%TF.GenerationSoftware,KiCad,Pcbnew,7.0.7*%
%TF.CreationDate,2024-02-28T11:49:30+01:00*%
%TF.ProjectId,bottom_test,626f7474-6f6d-45f7-9465-73742e6b6963,rev?*%
%TF.SameCoordinates,Original*%
%TF.FileFunction,Drillmap*%
%TF.FilePolarity,Positive*%
%FSLAX45Y45*%
G04 Gerber Fmt 4.5, Leading zero omitted, Abs format (unit mm)*
G04 Created by KiCad (PCBNEW 7.0.7) date 2024-02-28 11:49:30*
%MOMM*%
%LPD*%
G01*
G04 APERTURE LIST*
%ADD10C,0.200000*%
%ADD11C,0.040000*%
%ADD12C,0.080000*%
%ADD13C,0.100000*%
G04 APERTURE END LIST*
D10*
X2794000Y-2794000D02*
X7620000Y-2794000D01*
X7620000Y-7620000D01*
X2794000Y-7620000D01*
X2794000Y-2794000D01*
D11*
X3536000Y-5029490D02*
X3576000Y-5069490D01*
X3576000Y-5029490D02*
X3536000Y-5069490D01*
X4396870Y-3435980D02*
X4436870Y-3475980D01*
X4436870Y-3435980D02*
X4396870Y-3475980D01*
X4647720Y-4151910D02*
X4687720Y-4191910D01*
X4687720Y-4151910D02*
X4647720Y-4191910D01*
X5239530Y-5839800D02*
X5279530Y-5879800D01*
X5279530Y-5839800D02*
X5239530Y-5879800D01*
X6281490Y-4367250D02*
X6321490Y-4407250D01*
X6321490Y-4367250D02*
X6281490Y-4407250D01*
X7143620Y-5186990D02*
X7183620Y-5226990D01*
X7183620Y-5186990D02*
X7143620Y-5226990D01*
D12*
X6644000Y-3048000D02*
G75*
G03*
X6644000Y-3048000I-40000J0D01*
G01*
X7406000Y-3048000D02*
G75*
G03*
X7406000Y-3048000I-40000J0D01*
G01*
D13*
X3048000Y-2998000D02*
X3048000Y-3098000D01*
X2998000Y-3048000D02*
X3098000Y-3048000D01*
X3048000Y-3379000D02*
X3048000Y-3479000D01*
X2998000Y-3429000D02*
X3098000Y-3429000D01*
X3048000Y-3633000D02*
X3048000Y-3733000D01*
X2998000Y-3683000D02*
X3098000Y-3683000D01*
X3048000Y-3887000D02*
X3048000Y-3987000D01*
X2998000Y-3937000D02*
X3098000Y-3937000D01*
X3048000Y-4141000D02*
X3048000Y-4241000D01*
X2998000Y-4191000D02*
X3098000Y-4191000D01*
X3048000Y-4395000D02*
X3048000Y-4495000D01*
X2998000Y-4445000D02*
X3098000Y-4445000D01*
X3048000Y-7316000D02*
X3048000Y-7416000D01*
X2998000Y-7366000D02*
X3098000Y-7366000D01*
X3302000Y-2998000D02*
X3302000Y-3098000D01*
X3252000Y-3048000D02*
X3352000Y-3048000D01*
X3302000Y-7316000D02*
X3302000Y-7416000D01*
X3252000Y-7366000D02*
X3352000Y-7366000D01*
X3556000Y-2998000D02*
X3556000Y-3098000D01*
X3506000Y-3048000D02*
X3606000Y-3048000D01*
X3556000Y-7316000D02*
X3556000Y-7416000D01*
X3506000Y-7366000D02*
X3606000Y-7366000D01*
X3810000Y-2998000D02*
X3810000Y-3098000D01*
X3760000Y-3048000D02*
X3860000Y-3048000D01*
X3810000Y-7316000D02*
X3810000Y-7416000D01*
X3760000Y-7366000D02*
X3860000Y-7366000D01*
X4064000Y-2998000D02*
X4064000Y-3098000D01*
X4014000Y-3048000D02*
X4114000Y-3048000D01*
X4064000Y-7316000D02*
X4064000Y-7416000D01*
X4014000Y-7366000D02*
X4114000Y-7366000D01*
X7366000Y-3379000D02*
X7366000Y-3479000D01*
X7316000Y-3429000D02*
X7416000Y-3429000D01*
X7366000Y-3633000D02*
X7366000Y-3733000D01*
X7316000Y-3683000D02*
X7416000Y-3683000D01*
X7366000Y-3887000D02*
X7366000Y-3987000D01*
X7316000Y-3937000D02*
X7416000Y-3937000D01*
X7366000Y-4141000D02*
X7366000Y-4241000D01*
X7316000Y-4191000D02*
X7416000Y-4191000D01*
X7366000Y-4395000D02*
X7366000Y-4495000D01*
X7316000Y-4445000D02*
X7416000Y-4445000D01*
D10*
X3044777Y-7941484D02*
X3044777Y-7741484D01*
X3044777Y-7741484D02*
X3092396Y-7741484D01*
X3092396Y-7741484D02*
X3120967Y-7751008D01*
X3120967Y-7751008D02*
X3140015Y-7770055D01*
X3140015Y-7770055D02*
X3149539Y-7789103D01*
X3149539Y-7789103D02*
X3159062Y-7827198D01*
X3159062Y-7827198D02*
X3159062Y-7855769D01*
X3159062Y-7855769D02*
X3149539Y-7893865D01*
X3149539Y-7893865D02*
X3140015Y-7912912D01*
X3140015Y-7912912D02*
X3120967Y-7931960D01*
X3120967Y-7931960D02*
X3092396Y-7941484D01*
X3092396Y-7941484D02*
X3044777Y-7941484D01*
X3244777Y-7941484D02*
X3244777Y-7808150D01*
X3244777Y-7846246D02*
X3254301Y-7827198D01*
X3254301Y-7827198D02*
X3263824Y-7817674D01*
X3263824Y-7817674D02*
X3282872Y-7808150D01*
X3282872Y-7808150D02*
X3301920Y-7808150D01*
X3368586Y-7941484D02*
X3368586Y-7808150D01*
X3368586Y-7741484D02*
X3359062Y-7751008D01*
X3359062Y-7751008D02*
X3368586Y-7760531D01*
X3368586Y-7760531D02*
X3378110Y-7751008D01*
X3378110Y-7751008D02*
X3368586Y-7741484D01*
X3368586Y-7741484D02*
X3368586Y-7760531D01*
X3492396Y-7941484D02*
X3473348Y-7931960D01*
X3473348Y-7931960D02*
X3463824Y-7912912D01*
X3463824Y-7912912D02*
X3463824Y-7741484D01*
X3597158Y-7941484D02*
X3578110Y-7931960D01*
X3578110Y-7931960D02*
X3568586Y-7912912D01*
X3568586Y-7912912D02*
X3568586Y-7741484D01*
X3825729Y-7941484D02*
X3825729Y-7741484D01*
X3825729Y-7741484D02*
X3892396Y-7884341D01*
X3892396Y-7884341D02*
X3959062Y-7741484D01*
X3959062Y-7741484D02*
X3959062Y-7941484D01*
X4140015Y-7941484D02*
X4140015Y-7836722D01*
X4140015Y-7836722D02*
X4130491Y-7817674D01*
X4130491Y-7817674D02*
X4111443Y-7808150D01*
X4111443Y-7808150D02*
X4073348Y-7808150D01*
X4073348Y-7808150D02*
X4054301Y-7817674D01*
X4140015Y-7931960D02*
X4120967Y-7941484D01*
X4120967Y-7941484D02*
X4073348Y-7941484D01*
X4073348Y-7941484D02*
X4054301Y-7931960D01*
X4054301Y-7931960D02*
X4044777Y-7912912D01*
X4044777Y-7912912D02*
X4044777Y-7893865D01*
X4044777Y-7893865D02*
X4054301Y-7874817D01*
X4054301Y-7874817D02*
X4073348Y-7865293D01*
X4073348Y-7865293D02*
X4120967Y-7865293D01*
X4120967Y-7865293D02*
X4140015Y-7855769D01*
X4235253Y-7808150D02*
X4235253Y-8008150D01*
X4235253Y-7817674D02*
X4254301Y-7808150D01*
X4254301Y-7808150D02*
X4292396Y-7808150D01*
X4292396Y-7808150D02*
X4311444Y-7817674D01*
X4311444Y-7817674D02*
X4320967Y-7827198D01*
X4320967Y-7827198D02*
X4330491Y-7846246D01*
X4330491Y-7846246D02*
X4330491Y-7903388D01*
X4330491Y-7903388D02*
X4320967Y-7922436D01*
X4320967Y-7922436D02*
X4311444Y-7931960D01*
X4311444Y-7931960D02*
X4292396Y-7941484D01*
X4292396Y-7941484D02*
X4254301Y-7941484D01*
X4254301Y-7941484D02*
X4235253Y-7931960D01*
X4416205Y-7922436D02*
X4425729Y-7931960D01*
X4425729Y-7931960D02*
X4416205Y-7941484D01*
X4416205Y-7941484D02*
X4406682Y-7931960D01*
X4406682Y-7931960D02*
X4416205Y-7922436D01*
X4416205Y-7922436D02*
X4416205Y-7941484D01*
X4416205Y-7817674D02*
X4425729Y-7827198D01*
X4425729Y-7827198D02*
X4416205Y-7836722D01*
X4416205Y-7836722D02*
X4406682Y-7827198D01*
X4406682Y-7827198D02*
X4416205Y-7817674D01*
X4416205Y-7817674D02*
X4416205Y-7836722D01*
D11*
X2744000Y-8250000D02*
X2784000Y-8290000D01*
X2784000Y-8250000D02*
X2744000Y-8290000D01*
D10*
X3082872Y-8161484D02*
X3101920Y-8161484D01*
X3101920Y-8161484D02*
X3120967Y-8171008D01*
X3120967Y-8171008D02*
X3130491Y-8180531D01*
X3130491Y-8180531D02*
X3140015Y-8199579D01*
X3140015Y-8199579D02*
X3149539Y-8237674D01*
X3149539Y-8237674D02*
X3149539Y-8285293D01*
X3149539Y-8285293D02*
X3140015Y-8323388D01*
X3140015Y-8323388D02*
X3130491Y-8342436D01*
X3130491Y-8342436D02*
X3120967Y-8351960D01*
X3120967Y-8351960D02*
X3101920Y-8361484D01*
X3101920Y-8361484D02*
X3082872Y-8361484D01*
X3082872Y-8361484D02*
X3063824Y-8351960D01*
X3063824Y-8351960D02*
X3054301Y-8342436D01*
X3054301Y-8342436D02*
X3044777Y-8323388D01*
X3044777Y-8323388D02*
X3035253Y-8285293D01*
X3035253Y-8285293D02*
X3035253Y-8237674D01*
X3035253Y-8237674D02*
X3044777Y-8199579D01*
X3044777Y-8199579D02*
X3054301Y-8180531D01*
X3054301Y-8180531D02*
X3063824Y-8171008D01*
X3063824Y-8171008D02*
X3082872Y-8161484D01*
X3235253Y-8342436D02*
X3244777Y-8351960D01*
X3244777Y-8351960D02*
X3235253Y-8361484D01*
X3235253Y-8361484D02*
X3225729Y-8351960D01*
X3225729Y-8351960D02*
X3235253Y-8342436D01*
X3235253Y-8342436D02*
X3235253Y-8361484D01*
X3416205Y-8228150D02*
X3416205Y-8361484D01*
X3368586Y-8151960D02*
X3320967Y-8294817D01*
X3320967Y-8294817D02*
X3444777Y-8294817D01*
X3559062Y-8161484D02*
X3578110Y-8161484D01*
X3578110Y-8161484D02*
X3597158Y-8171008D01*
X3597158Y-8171008D02*
X3606682Y-8180531D01*
X3606682Y-8180531D02*
X3616205Y-8199579D01*
X3616205Y-8199579D02*
X3625729Y-8237674D01*
X3625729Y-8237674D02*
X3625729Y-8285293D01*
X3625729Y-8285293D02*
X3616205Y-8323388D01*
X3616205Y-8323388D02*
X3606682Y-8342436D01*
X3606682Y-8342436D02*
X3597158Y-8351960D01*
X3597158Y-8351960D02*
X3578110Y-8361484D01*
X3578110Y-8361484D02*
X3559062Y-8361484D01*
X3559062Y-8361484D02*
X3540015Y-8351960D01*
X3540015Y-8351960D02*
X3530491Y-8342436D01*
X3530491Y-8342436D02*
X3520967Y-8323388D01*
X3520967Y-8323388D02*
X3511443Y-8285293D01*
X3511443Y-8285293D02*
X3511443Y-8237674D01*
X3511443Y-8237674D02*
X3520967Y-8199579D01*
X3520967Y-8199579D02*
X3530491Y-8180531D01*
X3530491Y-8180531D02*
X3540015Y-8171008D01*
X3540015Y-8171008D02*
X3559062Y-8161484D01*
X3749539Y-8161484D02*
X3768586Y-8161484D01*
X3768586Y-8161484D02*
X3787634Y-8171008D01*
X3787634Y-8171008D02*
X3797158Y-8180531D01*
X3797158Y-8180531D02*
X3806682Y-8199579D01*
X3806682Y-8199579D02*
X3816205Y-8237674D01*
X3816205Y-8237674D02*
X3816205Y-8285293D01*
X3816205Y-8285293D02*
X3806682Y-8323388D01*
X3806682Y-8323388D02*
X3797158Y-8342436D01*
X3797158Y-8342436D02*
X3787634Y-8351960D01*
X3787634Y-8351960D02*
X3768586Y-8361484D01*
X3768586Y-8361484D02*
X3749539Y-8361484D01*
X3749539Y-8361484D02*
X3730491Y-8351960D01*
X3730491Y-8351960D02*
X3720967Y-8342436D01*
X3720967Y-8342436D02*
X3711443Y-8323388D01*
X3711443Y-8323388D02*
X3701920Y-8285293D01*
X3701920Y-8285293D02*
X3701920Y-8237674D01*
X3701920Y-8237674D02*
X3711443Y-8199579D01*
X3711443Y-8199579D02*
X3720967Y-8180531D01*
X3720967Y-8180531D02*
X3730491Y-8171008D01*
X3730491Y-8171008D02*
X3749539Y-8161484D01*
X3901920Y-8361484D02*
X3901920Y-8228150D01*
X3901920Y-8247198D02*
X3911443Y-8237674D01*
X3911443Y-8237674D02*
X3930491Y-8228150D01*
X3930491Y-8228150D02*
X3959063Y-8228150D01*
X3959063Y-8228150D02*
X3978110Y-8237674D01*
X3978110Y-8237674D02*
X3987634Y-8256722D01*
X3987634Y-8256722D02*
X3987634Y-8361484D01*
X3987634Y-8256722D02*
X3997158Y-8237674D01*
X3997158Y-8237674D02*
X4016205Y-8228150D01*
X4016205Y-8228150D02*
X4044777Y-8228150D01*
X4044777Y-8228150D02*
X4063824Y-8237674D01*
X4063824Y-8237674D02*
X4073348Y-8256722D01*
X4073348Y-8256722D02*
X4073348Y-8361484D01*
X4168586Y-8361484D02*
X4168586Y-8228150D01*
X4168586Y-8247198D02*
X4178110Y-8237674D01*
X4178110Y-8237674D02*
X4197158Y-8228150D01*
X4197158Y-8228150D02*
X4225729Y-8228150D01*
X4225729Y-8228150D02*
X4244777Y-8237674D01*
X4244777Y-8237674D02*
X4254301Y-8256722D01*
X4254301Y-8256722D02*
X4254301Y-8361484D01*
X4254301Y-8256722D02*
X4263825Y-8237674D01*
X4263825Y-8237674D02*
X4282872Y-8228150D01*
X4282872Y-8228150D02*
X4311444Y-8228150D01*
X4311444Y-8228150D02*
X4330491Y-8237674D01*
X4330491Y-8237674D02*
X4340015Y-8256722D01*
X4340015Y-8256722D02*
X4340015Y-8361484D01*
X4730491Y-8151960D02*
X4559063Y-8409103D01*
X4987634Y-8161484D02*
X5006682Y-8161484D01*
X5006682Y-8161484D02*
X5025729Y-8171008D01*
X5025729Y-8171008D02*
X5035253Y-8180531D01*
X5035253Y-8180531D02*
X5044777Y-8199579D01*
X5044777Y-8199579D02*
X5054301Y-8237674D01*
X5054301Y-8237674D02*
X5054301Y-8285293D01*
X5054301Y-8285293D02*
X5044777Y-8323388D01*
X5044777Y-8323388D02*
X5035253Y-8342436D01*
X5035253Y-8342436D02*
X5025729Y-8351960D01*
X5025729Y-8351960D02*
X5006682Y-8361484D01*
X5006682Y-8361484D02*
X4987634Y-8361484D01*
X4987634Y-8361484D02*
X4968587Y-8351960D01*
X4968587Y-8351960D02*
X4959063Y-8342436D01*
X4959063Y-8342436D02*
X4949539Y-8323388D01*
X4949539Y-8323388D02*
X4940015Y-8285293D01*
X4940015Y-8285293D02*
X4940015Y-8237674D01*
X4940015Y-8237674D02*
X4949539Y-8199579D01*
X4949539Y-8199579D02*
X4959063Y-8180531D01*
X4959063Y-8180531D02*
X4968587Y-8171008D01*
X4968587Y-8171008D02*
X4987634Y-8161484D01*
X5140015Y-8342436D02*
X5149539Y-8351960D01*
X5149539Y-8351960D02*
X5140015Y-8361484D01*
X5140015Y-8361484D02*
X5130491Y-8351960D01*
X5130491Y-8351960D02*
X5140015Y-8342436D01*
X5140015Y-8342436D02*
X5140015Y-8361484D01*
X5273348Y-8161484D02*
X5292396Y-8161484D01*
X5292396Y-8161484D02*
X5311444Y-8171008D01*
X5311444Y-8171008D02*
X5320968Y-8180531D01*
X5320968Y-8180531D02*
X5330491Y-8199579D01*
X5330491Y-8199579D02*
X5340015Y-8237674D01*
X5340015Y-8237674D02*
X5340015Y-8285293D01*
X5340015Y-8285293D02*
X5330491Y-8323388D01*
X5330491Y-8323388D02*
X5320968Y-8342436D01*
X5320968Y-8342436D02*
X5311444Y-8351960D01*
X5311444Y-8351960D02*
X5292396Y-8361484D01*
X5292396Y-8361484D02*
X5273348Y-8361484D01*
X5273348Y-8361484D02*
X5254301Y-8351960D01*
X5254301Y-8351960D02*
X5244777Y-8342436D01*
X5244777Y-8342436D02*
X5235253Y-8323388D01*
X5235253Y-8323388D02*
X5225729Y-8285293D01*
X5225729Y-8285293D02*
X5225729Y-8237674D01*
X5225729Y-8237674D02*
X5235253Y-8199579D01*
X5235253Y-8199579D02*
X5244777Y-8180531D01*
X5244777Y-8180531D02*
X5254301Y-8171008D01*
X5254301Y-8171008D02*
X5273348Y-8161484D01*
X5530491Y-8361484D02*
X5416206Y-8361484D01*
X5473348Y-8361484D02*
X5473348Y-8161484D01*
X5473348Y-8161484D02*
X5454301Y-8190055D01*
X5454301Y-8190055D02*
X5435253Y-8209103D01*
X5435253Y-8209103D02*
X5416206Y-8218627D01*
X5711444Y-8161484D02*
X5616206Y-8161484D01*
X5616206Y-8161484D02*
X5606682Y-8256722D01*
X5606682Y-8256722D02*
X5616206Y-8247198D01*
X5616206Y-8247198D02*
X5635253Y-8237674D01*
X5635253Y-8237674D02*
X5682872Y-8237674D01*
X5682872Y-8237674D02*
X5701920Y-8247198D01*
X5701920Y-8247198D02*
X5711444Y-8256722D01*
X5711444Y-8256722D02*
X5720967Y-8275769D01*
X5720967Y-8275769D02*
X5720967Y-8323388D01*
X5720967Y-8323388D02*
X5711444Y-8342436D01*
X5711444Y-8342436D02*
X5701920Y-8351960D01*
X5701920Y-8351960D02*
X5682872Y-8361484D01*
X5682872Y-8361484D02*
X5635253Y-8361484D01*
X5635253Y-8361484D02*
X5616206Y-8351960D01*
X5616206Y-8351960D02*
X5606682Y-8342436D01*
X5787634Y-8161484D02*
X5920967Y-8161484D01*
X5920967Y-8161484D02*
X5835253Y-8361484D01*
X5987634Y-8161484D02*
X5987634Y-8199579D01*
X6063825Y-8161484D02*
X6063825Y-8199579D01*
X6359063Y-8437674D02*
X6349539Y-8428150D01*
X6349539Y-8428150D02*
X6330491Y-8399579D01*
X6330491Y-8399579D02*
X6320968Y-8380531D01*
X6320968Y-8380531D02*
X6311444Y-8351960D01*
X6311444Y-8351960D02*
X6301920Y-8304341D01*
X6301920Y-8304341D02*
X6301920Y-8266246D01*
X6301920Y-8266246D02*
X6311444Y-8218627D01*
X6311444Y-8218627D02*
X6320968Y-8190055D01*
X6320968Y-8190055D02*
X6330491Y-8171008D01*
X6330491Y-8171008D02*
X6349539Y-8142436D01*
X6349539Y-8142436D02*
X6359063Y-8132912D01*
X6520968Y-8161484D02*
X6482872Y-8161484D01*
X6482872Y-8161484D02*
X6463825Y-8171008D01*
X6463825Y-8171008D02*
X6454301Y-8180531D01*
X6454301Y-8180531D02*
X6435253Y-8209103D01*
X6435253Y-8209103D02*
X6425729Y-8247198D01*
X6425729Y-8247198D02*
X6425729Y-8323388D01*
X6425729Y-8323388D02*
X6435253Y-8342436D01*
X6435253Y-8342436D02*
X6444777Y-8351960D01*
X6444777Y-8351960D02*
X6463825Y-8361484D01*
X6463825Y-8361484D02*
X6501920Y-8361484D01*
X6501920Y-8361484D02*
X6520968Y-8351960D01*
X6520968Y-8351960D02*
X6530491Y-8342436D01*
X6530491Y-8342436D02*
X6540015Y-8323388D01*
X6540015Y-8323388D02*
X6540015Y-8275769D01*
X6540015Y-8275769D02*
X6530491Y-8256722D01*
X6530491Y-8256722D02*
X6520968Y-8247198D01*
X6520968Y-8247198D02*
X6501920Y-8237674D01*
X6501920Y-8237674D02*
X6463825Y-8237674D01*
X6463825Y-8237674D02*
X6444777Y-8247198D01*
X6444777Y-8247198D02*
X6435253Y-8256722D01*
X6435253Y-8256722D02*
X6425729Y-8275769D01*
X6778110Y-8361484D02*
X6778110Y-8161484D01*
X6863825Y-8361484D02*
X6863825Y-8256722D01*
X6863825Y-8256722D02*
X6854301Y-8237674D01*
X6854301Y-8237674D02*
X6835253Y-8228150D01*
X6835253Y-8228150D02*
X6806682Y-8228150D01*
X6806682Y-8228150D02*
X6787634Y-8237674D01*
X6787634Y-8237674D02*
X6778110Y-8247198D01*
X6987634Y-8361484D02*
X6968587Y-8351960D01*
X6968587Y-8351960D02*
X6959063Y-8342436D01*
X6959063Y-8342436D02*
X6949539Y-8323388D01*
X6949539Y-8323388D02*
X6949539Y-8266246D01*
X6949539Y-8266246D02*
X6959063Y-8247198D01*
X6959063Y-8247198D02*
X6968587Y-8237674D01*
X6968587Y-8237674D02*
X6987634Y-8228150D01*
X6987634Y-8228150D02*
X7016206Y-8228150D01*
X7016206Y-8228150D02*
X7035253Y-8237674D01*
X7035253Y-8237674D02*
X7044777Y-8247198D01*
X7044777Y-8247198D02*
X7054301Y-8266246D01*
X7054301Y-8266246D02*
X7054301Y-8323388D01*
X7054301Y-8323388D02*
X7044777Y-8342436D01*
X7044777Y-8342436D02*
X7035253Y-8351960D01*
X7035253Y-8351960D02*
X7016206Y-8361484D01*
X7016206Y-8361484D02*
X6987634Y-8361484D01*
X7168587Y-8361484D02*
X7149539Y-8351960D01*
X7149539Y-8351960D02*
X7140015Y-8332912D01*
X7140015Y-8332912D02*
X7140015Y-8161484D01*
X7320968Y-8351960D02*
X7301920Y-8361484D01*
X7301920Y-8361484D02*
X7263825Y-8361484D01*
X7263825Y-8361484D02*
X7244777Y-8351960D01*
X7244777Y-8351960D02*
X7235253Y-8332912D01*
X7235253Y-8332912D02*
X7235253Y-8256722D01*
X7235253Y-8256722D02*
X7244777Y-8237674D01*
X7244777Y-8237674D02*
X7263825Y-8228150D01*
X7263825Y-8228150D02*
X7301920Y-8228150D01*
X7301920Y-8228150D02*
X7320968Y-8237674D01*
X7320968Y-8237674D02*
X7330491Y-8256722D01*
X7330491Y-8256722D02*
X7330491Y-8275769D01*
X7330491Y-8275769D02*
X7235253Y-8294817D01*
X7406682Y-8351960D02*
X7425730Y-8361484D01*
X7425730Y-8361484D02*
X7463825Y-8361484D01*
X7463825Y-8361484D02*
X7482872Y-8351960D01*
X7482872Y-8351960D02*
X7492396Y-8332912D01*
X7492396Y-8332912D02*
X7492396Y-8323388D01*
X7492396Y-8323388D02*
X7482872Y-8304341D01*
X7482872Y-8304341D02*
X7463825Y-8294817D01*
X7463825Y-8294817D02*
X7435253Y-8294817D01*
X7435253Y-8294817D02*
X7416206Y-8285293D01*
X7416206Y-8285293D02*
X7406682Y-8266246D01*
X7406682Y-8266246D02*
X7406682Y-8256722D01*
X7406682Y-8256722D02*
X7416206Y-8237674D01*
X7416206Y-8237674D02*
X7435253Y-8228150D01*
X7435253Y-8228150D02*
X7463825Y-8228150D01*
X7463825Y-8228150D02*
X7482872Y-8237674D01*
X7559063Y-8437674D02*
X7568587Y-8428150D01*
X7568587Y-8428150D02*
X7587634Y-8399579D01*
X7587634Y-8399579D02*
X7597158Y-8380531D01*
X7597158Y-8380531D02*
X7606682Y-8351960D01*
X7606682Y-8351960D02*
X7616206Y-8304341D01*
X7616206Y-8304341D02*
X7616206Y-8266246D01*
X7616206Y-8266246D02*
X7606682Y-8218627D01*
X7606682Y-8218627D02*
X7597158Y-8190055D01*
X7597158Y-8190055D02*
X7587634Y-8171008D01*
X7587634Y-8171008D02*
X7568587Y-8142436D01*
X7568587Y-8142436D02*
X7559063Y-8132912D01*
D12*
X2784000Y-8534000D02*
G75*
G03*
X2784000Y-8534000I-40000J0D01*
G01*
D10*
X3082872Y-8425484D02*
X3101920Y-8425484D01*
X3101920Y-8425484D02*
X3120967Y-8435008D01*
X3120967Y-8435008D02*
X3130491Y-8444531D01*
X3130491Y-8444531D02*
X3140015Y-8463579D01*
X3140015Y-8463579D02*
X3149539Y-8501674D01*
X3149539Y-8501674D02*
X3149539Y-8549293D01*
X3149539Y-8549293D02*
X3140015Y-8587389D01*
X3140015Y-8587389D02*
X3130491Y-8606436D01*
X3130491Y-8606436D02*
X3120967Y-8615960D01*
X3120967Y-8615960D02*
X3101920Y-8625484D01*
X3101920Y-8625484D02*
X3082872Y-8625484D01*
X3082872Y-8625484D02*
X3063824Y-8615960D01*
X3063824Y-8615960D02*
X3054301Y-8606436D01*
X3054301Y-8606436D02*
X3044777Y-8587389D01*
X3044777Y-8587389D02*
X3035253Y-8549293D01*
X3035253Y-8549293D02*
X3035253Y-8501674D01*
X3035253Y-8501674D02*
X3044777Y-8463579D01*
X3044777Y-8463579D02*
X3054301Y-8444531D01*
X3054301Y-8444531D02*
X3063824Y-8435008D01*
X3063824Y-8435008D02*
X3082872Y-8425484D01*
X3235253Y-8606436D02*
X3244777Y-8615960D01*
X3244777Y-8615960D02*
X3235253Y-8625484D01*
X3235253Y-8625484D02*
X3225729Y-8615960D01*
X3225729Y-8615960D02*
X3235253Y-8606436D01*
X3235253Y-8606436D02*
X3235253Y-8625484D01*
X3359062Y-8511198D02*
X3340015Y-8501674D01*
X3340015Y-8501674D02*
X3330491Y-8492150D01*
X3330491Y-8492150D02*
X3320967Y-8473103D01*
X3320967Y-8473103D02*
X3320967Y-8463579D01*
X3320967Y-8463579D02*
X3330491Y-8444531D01*
X3330491Y-8444531D02*
X3340015Y-8435008D01*
X3340015Y-8435008D02*
X3359062Y-8425484D01*
X3359062Y-8425484D02*
X3397158Y-8425484D01*
X3397158Y-8425484D02*
X3416205Y-8435008D01*
X3416205Y-8435008D02*
X3425729Y-8444531D01*
X3425729Y-8444531D02*
X3435253Y-8463579D01*
X3435253Y-8463579D02*
X3435253Y-8473103D01*
X3435253Y-8473103D02*
X3425729Y-8492150D01*
X3425729Y-8492150D02*
X3416205Y-8501674D01*
X3416205Y-8501674D02*
X3397158Y-8511198D01*
X3397158Y-8511198D02*
X3359062Y-8511198D01*
X3359062Y-8511198D02*
X3340015Y-8520722D01*
X3340015Y-8520722D02*
X3330491Y-8530246D01*
X3330491Y-8530246D02*
X3320967Y-8549293D01*
X3320967Y-8549293D02*
X3320967Y-8587389D01*
X3320967Y-8587389D02*
X3330491Y-8606436D01*
X3330491Y-8606436D02*
X3340015Y-8615960D01*
X3340015Y-8615960D02*
X3359062Y-8625484D01*
X3359062Y-8625484D02*
X3397158Y-8625484D01*
X3397158Y-8625484D02*
X3416205Y-8615960D01*
X3416205Y-8615960D02*
X3425729Y-8606436D01*
X3425729Y-8606436D02*
X3435253Y-8587389D01*
X3435253Y-8587389D02*
X3435253Y-8549293D01*
X3435253Y-8549293D02*
X3425729Y-8530246D01*
X3425729Y-8530246D02*
X3416205Y-8520722D01*
X3416205Y-8520722D02*
X3397158Y-8511198D01*
X3559062Y-8425484D02*
X3578110Y-8425484D01*
X3578110Y-8425484D02*
X3597158Y-8435008D01*
X3597158Y-8435008D02*
X3606682Y-8444531D01*
X3606682Y-8444531D02*
X3616205Y-8463579D01*
X3616205Y-8463579D02*
X3625729Y-8501674D01*
X3625729Y-8501674D02*
X3625729Y-8549293D01*
X3625729Y-8549293D02*
X3616205Y-8587389D01*
X3616205Y-8587389D02*
X3606682Y-8606436D01*
X3606682Y-8606436D02*
X3597158Y-8615960D01*
X3597158Y-8615960D02*
X3578110Y-8625484D01*
X3578110Y-8625484D02*
X3559062Y-8625484D01*
X3559062Y-8625484D02*
X3540015Y-8615960D01*
X3540015Y-8615960D02*
X3530491Y-8606436D01*
X3530491Y-8606436D02*
X3520967Y-8587389D01*
X3520967Y-8587389D02*
X3511443Y-8549293D01*
X3511443Y-8549293D02*
X3511443Y-8501674D01*
X3511443Y-8501674D02*
X3520967Y-8463579D01*
X3520967Y-8463579D02*
X3530491Y-8444531D01*
X3530491Y-8444531D02*
X3540015Y-8435008D01*
X3540015Y-8435008D02*
X3559062Y-8425484D01*
X3749539Y-8425484D02*
X3768586Y-8425484D01*
X3768586Y-8425484D02*
X3787634Y-8435008D01*
X3787634Y-8435008D02*
X3797158Y-8444531D01*
X3797158Y-8444531D02*
X3806682Y-8463579D01*
X3806682Y-8463579D02*
X3816205Y-8501674D01*
X3816205Y-8501674D02*
X3816205Y-8549293D01*
X3816205Y-8549293D02*
X3806682Y-8587389D01*
X3806682Y-8587389D02*
X3797158Y-8606436D01*
X3797158Y-8606436D02*
X3787634Y-8615960D01*
X3787634Y-8615960D02*
X3768586Y-8625484D01*
X3768586Y-8625484D02*
X3749539Y-8625484D01*
X3749539Y-8625484D02*
X3730491Y-8615960D01*
X3730491Y-8615960D02*
X3720967Y-8606436D01*
X3720967Y-8606436D02*
X3711443Y-8587389D01*
X3711443Y-8587389D02*
X3701920Y-8549293D01*
X3701920Y-8549293D02*
X3701920Y-8501674D01*
X3701920Y-8501674D02*
X3711443Y-8463579D01*
X3711443Y-8463579D02*
X3720967Y-8444531D01*
X3720967Y-8444531D02*
X3730491Y-8435008D01*
X3730491Y-8435008D02*
X3749539Y-8425484D01*
X3901920Y-8625484D02*
X3901920Y-8492150D01*
X3901920Y-8511198D02*
X3911443Y-8501674D01*
X3911443Y-8501674D02*
X3930491Y-8492150D01*
X3930491Y-8492150D02*
X3959063Y-8492150D01*
X3959063Y-8492150D02*
X3978110Y-8501674D01*
X3978110Y-8501674D02*
X3987634Y-8520722D01*
X3987634Y-8520722D02*
X3987634Y-8625484D01*
X3987634Y-8520722D02*
X3997158Y-8501674D01*
X3997158Y-8501674D02*
X4016205Y-8492150D01*
X4016205Y-8492150D02*
X4044777Y-8492150D01*
X4044777Y-8492150D02*
X4063824Y-8501674D01*
X4063824Y-8501674D02*
X4073348Y-8520722D01*
X4073348Y-8520722D02*
X4073348Y-8625484D01*
X4168586Y-8625484D02*
X4168586Y-8492150D01*
X4168586Y-8511198D02*
X4178110Y-8501674D01*
X4178110Y-8501674D02*
X4197158Y-8492150D01*
X4197158Y-8492150D02*
X4225729Y-8492150D01*
X4225729Y-8492150D02*
X4244777Y-8501674D01*
X4244777Y-8501674D02*
X4254301Y-8520722D01*
X4254301Y-8520722D02*
X4254301Y-8625484D01*
X4254301Y-8520722D02*
X4263825Y-8501674D01*
X4263825Y-8501674D02*
X4282872Y-8492150D01*
X4282872Y-8492150D02*
X4311444Y-8492150D01*
X4311444Y-8492150D02*
X4330491Y-8501674D01*
X4330491Y-8501674D02*
X4340015Y-8520722D01*
X4340015Y-8520722D02*
X4340015Y-8625484D01*
X4730491Y-8415960D02*
X4559063Y-8673103D01*
X4987634Y-8425484D02*
X5006682Y-8425484D01*
X5006682Y-8425484D02*
X5025729Y-8435008D01*
X5025729Y-8435008D02*
X5035253Y-8444531D01*
X5035253Y-8444531D02*
X5044777Y-8463579D01*
X5044777Y-8463579D02*
X5054301Y-8501674D01*
X5054301Y-8501674D02*
X5054301Y-8549293D01*
X5054301Y-8549293D02*
X5044777Y-8587389D01*
X5044777Y-8587389D02*
X5035253Y-8606436D01*
X5035253Y-8606436D02*
X5025729Y-8615960D01*
X5025729Y-8615960D02*
X5006682Y-8625484D01*
X5006682Y-8625484D02*
X4987634Y-8625484D01*
X4987634Y-8625484D02*
X4968587Y-8615960D01*
X4968587Y-8615960D02*
X4959063Y-8606436D01*
X4959063Y-8606436D02*
X4949539Y-8587389D01*
X4949539Y-8587389D02*
X4940015Y-8549293D01*
X4940015Y-8549293D02*
X4940015Y-8501674D01*
X4940015Y-8501674D02*
X4949539Y-8463579D01*
X4949539Y-8463579D02*
X4959063Y-8444531D01*
X4959063Y-8444531D02*
X4968587Y-8435008D01*
X4968587Y-8435008D02*
X4987634Y-8425484D01*
X5140015Y-8606436D02*
X5149539Y-8615960D01*
X5149539Y-8615960D02*
X5140015Y-8625484D01*
X5140015Y-8625484D02*
X5130491Y-8615960D01*
X5130491Y-8615960D02*
X5140015Y-8606436D01*
X5140015Y-8606436D02*
X5140015Y-8625484D01*
X5273348Y-8425484D02*
X5292396Y-8425484D01*
X5292396Y-8425484D02*
X5311444Y-8435008D01*
X5311444Y-8435008D02*
X5320968Y-8444531D01*
X5320968Y-8444531D02*
X5330491Y-8463579D01*
X5330491Y-8463579D02*
X5340015Y-8501674D01*
X5340015Y-8501674D02*
X5340015Y-8549293D01*
X5340015Y-8549293D02*
X5330491Y-8587389D01*
X5330491Y-8587389D02*
X5320968Y-8606436D01*
X5320968Y-8606436D02*
X5311444Y-8615960D01*
X5311444Y-8615960D02*
X5292396Y-8625484D01*
X5292396Y-8625484D02*
X5273348Y-8625484D01*
X5273348Y-8625484D02*
X5254301Y-8615960D01*
X5254301Y-8615960D02*
X5244777Y-8606436D01*
X5244777Y-8606436D02*
X5235253Y-8587389D01*
X5235253Y-8587389D02*
X5225729Y-8549293D01*
X5225729Y-8549293D02*
X5225729Y-8501674D01*
X5225729Y-8501674D02*
X5235253Y-8463579D01*
X5235253Y-8463579D02*
X5244777Y-8444531D01*
X5244777Y-8444531D02*
X5254301Y-8435008D01*
X5254301Y-8435008D02*
X5273348Y-8425484D01*
X5406682Y-8425484D02*
X5530491Y-8425484D01*
X5530491Y-8425484D02*
X5463825Y-8501674D01*
X5463825Y-8501674D02*
X5492396Y-8501674D01*
X5492396Y-8501674D02*
X5511444Y-8511198D01*
X5511444Y-8511198D02*
X5520968Y-8520722D01*
X5520968Y-8520722D02*
X5530491Y-8539770D01*
X5530491Y-8539770D02*
X5530491Y-8587389D01*
X5530491Y-8587389D02*
X5520968Y-8606436D01*
X5520968Y-8606436D02*
X5511444Y-8615960D01*
X5511444Y-8615960D02*
X5492396Y-8625484D01*
X5492396Y-8625484D02*
X5435253Y-8625484D01*
X5435253Y-8625484D02*
X5416206Y-8615960D01*
X5416206Y-8615960D02*
X5406682Y-8606436D01*
X5720967Y-8625484D02*
X5606682Y-8625484D01*
X5663825Y-8625484D02*
X5663825Y-8425484D01*
X5663825Y-8425484D02*
X5644777Y-8454055D01*
X5644777Y-8454055D02*
X5625729Y-8473103D01*
X5625729Y-8473103D02*
X5606682Y-8482627D01*
X5901920Y-8425484D02*
X5806682Y-8425484D01*
X5806682Y-8425484D02*
X5797158Y-8520722D01*
X5797158Y-8520722D02*
X5806682Y-8511198D01*
X5806682Y-8511198D02*
X5825729Y-8501674D01*
X5825729Y-8501674D02*
X5873348Y-8501674D01*
X5873348Y-8501674D02*
X5892396Y-8511198D01*
X5892396Y-8511198D02*
X5901920Y-8520722D01*
X5901920Y-8520722D02*
X5911444Y-8539770D01*
X5911444Y-8539770D02*
X5911444Y-8587389D01*
X5911444Y-8587389D02*
X5901920Y-8606436D01*
X5901920Y-8606436D02*
X5892396Y-8615960D01*
X5892396Y-8615960D02*
X5873348Y-8625484D01*
X5873348Y-8625484D02*
X5825729Y-8625484D01*
X5825729Y-8625484D02*
X5806682Y-8615960D01*
X5806682Y-8615960D02*
X5797158Y-8606436D01*
X5987634Y-8425484D02*
X5987634Y-8463579D01*
X6063825Y-8425484D02*
X6063825Y-8463579D01*
X6359063Y-8701674D02*
X6349539Y-8692150D01*
X6349539Y-8692150D02*
X6330491Y-8663579D01*
X6330491Y-8663579D02*
X6320968Y-8644531D01*
X6320968Y-8644531D02*
X6311444Y-8615960D01*
X6311444Y-8615960D02*
X6301920Y-8568341D01*
X6301920Y-8568341D02*
X6301920Y-8530246D01*
X6301920Y-8530246D02*
X6311444Y-8482627D01*
X6311444Y-8482627D02*
X6320968Y-8454055D01*
X6320968Y-8454055D02*
X6330491Y-8435008D01*
X6330491Y-8435008D02*
X6349539Y-8406436D01*
X6349539Y-8406436D02*
X6359063Y-8396912D01*
X6425729Y-8444531D02*
X6435253Y-8435008D01*
X6435253Y-8435008D02*
X6454301Y-8425484D01*
X6454301Y-8425484D02*
X6501920Y-8425484D01*
X6501920Y-8425484D02*
X6520968Y-8435008D01*
X6520968Y-8435008D02*
X6530491Y-8444531D01*
X6530491Y-8444531D02*
X6540015Y-8463579D01*
X6540015Y-8463579D02*
X6540015Y-8482627D01*
X6540015Y-8482627D02*
X6530491Y-8511198D01*
X6530491Y-8511198D02*
X6416206Y-8625484D01*
X6416206Y-8625484D02*
X6540015Y-8625484D01*
X6778110Y-8625484D02*
X6778110Y-8425484D01*
X6863825Y-8625484D02*
X6863825Y-8520722D01*
X6863825Y-8520722D02*
X6854301Y-8501674D01*
X6854301Y-8501674D02*
X6835253Y-8492150D01*
X6835253Y-8492150D02*
X6806682Y-8492150D01*
X6806682Y-8492150D02*
X6787634Y-8501674D01*
X6787634Y-8501674D02*
X6778110Y-8511198D01*
X6987634Y-8625484D02*
X6968587Y-8615960D01*
X6968587Y-8615960D02*
X6959063Y-8606436D01*
X6959063Y-8606436D02*
X6949539Y-8587389D01*
X6949539Y-8587389D02*
X6949539Y-8530246D01*
X6949539Y-8530246D02*
X6959063Y-8511198D01*
X6959063Y-8511198D02*
X6968587Y-8501674D01*
X6968587Y-8501674D02*
X6987634Y-8492150D01*
X6987634Y-8492150D02*
X7016206Y-8492150D01*
X7016206Y-8492150D02*
X7035253Y-8501674D01*
X7035253Y-8501674D02*
X7044777Y-8511198D01*
X7044777Y-8511198D02*
X7054301Y-8530246D01*
X7054301Y-8530246D02*
X7054301Y-8587389D01*
X7054301Y-8587389D02*
X7044777Y-8606436D01*
X7044777Y-8606436D02*
X7035253Y-8615960D01*
X7035253Y-8615960D02*
X7016206Y-8625484D01*
X7016206Y-8625484D02*
X6987634Y-8625484D01*
X7168587Y-8625484D02*
X7149539Y-8615960D01*
X7149539Y-8615960D02*
X7140015Y-8596912D01*
X7140015Y-8596912D02*
X7140015Y-8425484D01*
X7320968Y-8615960D02*
X7301920Y-8625484D01*
X7301920Y-8625484D02*
X7263825Y-8625484D01*
X7263825Y-8625484D02*
X7244777Y-8615960D01*
X7244777Y-8615960D02*
X7235253Y-8596912D01*
X7235253Y-8596912D02*
X7235253Y-8520722D01*
X7235253Y-8520722D02*
X7244777Y-8501674D01*
X7244777Y-8501674D02*
X7263825Y-8492150D01*
X7263825Y-8492150D02*
X7301920Y-8492150D01*
X7301920Y-8492150D02*
X7320968Y-8501674D01*
X7320968Y-8501674D02*
X7330491Y-8520722D01*
X7330491Y-8520722D02*
X7330491Y-8539770D01*
X7330491Y-8539770D02*
X7235253Y-8558817D01*
X7406682Y-8615960D02*
X7425730Y-8625484D01*
X7425730Y-8625484D02*
X7463825Y-8625484D01*
X7463825Y-8625484D02*
X7482872Y-8615960D01*
X7482872Y-8615960D02*
X7492396Y-8596912D01*
X7492396Y-8596912D02*
X7492396Y-8587389D01*
X7492396Y-8587389D02*
X7482872Y-8568341D01*
X7482872Y-8568341D02*
X7463825Y-8558817D01*
X7463825Y-8558817D02*
X7435253Y-8558817D01*
X7435253Y-8558817D02*
X7416206Y-8549293D01*
X7416206Y-8549293D02*
X7406682Y-8530246D01*
X7406682Y-8530246D02*
X7406682Y-8520722D01*
X7406682Y-8520722D02*
X7416206Y-8501674D01*
X7416206Y-8501674D02*
X7435253Y-8492150D01*
X7435253Y-8492150D02*
X7463825Y-8492150D01*
X7463825Y-8492150D02*
X7482872Y-8501674D01*
X7559063Y-8701674D02*
X7568587Y-8692150D01*
X7568587Y-8692150D02*
X7587634Y-8663579D01*
X7587634Y-8663579D02*
X7597158Y-8644531D01*
X7597158Y-8644531D02*
X7606682Y-8615960D01*
X7606682Y-8615960D02*
X7616206Y-8568341D01*
X7616206Y-8568341D02*
X7616206Y-8530246D01*
X7616206Y-8530246D02*
X7606682Y-8482627D01*
X7606682Y-8482627D02*
X7597158Y-8454055D01*
X7597158Y-8454055D02*
X7587634Y-8435008D01*
X7587634Y-8435008D02*
X7568587Y-8406436D01*
X7568587Y-8406436D02*
X7559063Y-8396912D01*
D13*
X2734000Y-8748000D02*
X2734000Y-8848000D01*
X2684000Y-8798000D02*
X2784000Y-8798000D01*
D10*
X3149539Y-8889484D02*
X3035253Y-8889484D01*
X3092396Y-8889484D02*
X3092396Y-8689484D01*
X3092396Y-8689484D02*
X3073348Y-8718055D01*
X3073348Y-8718055D02*
X3054301Y-8737103D01*
X3054301Y-8737103D02*
X3035253Y-8746627D01*
X3235253Y-8870436D02*
X3244777Y-8879960D01*
X3244777Y-8879960D02*
X3235253Y-8889484D01*
X3235253Y-8889484D02*
X3225729Y-8879960D01*
X3225729Y-8879960D02*
X3235253Y-8870436D01*
X3235253Y-8870436D02*
X3235253Y-8889484D01*
X3368586Y-8689484D02*
X3387634Y-8689484D01*
X3387634Y-8689484D02*
X3406682Y-8699008D01*
X3406682Y-8699008D02*
X3416205Y-8708531D01*
X3416205Y-8708531D02*
X3425729Y-8727579D01*
X3425729Y-8727579D02*
X3435253Y-8765674D01*
X3435253Y-8765674D02*
X3435253Y-8813293D01*
X3435253Y-8813293D02*
X3425729Y-8851389D01*
X3425729Y-8851389D02*
X3416205Y-8870436D01*
X3416205Y-8870436D02*
X3406682Y-8879960D01*
X3406682Y-8879960D02*
X3387634Y-8889484D01*
X3387634Y-8889484D02*
X3368586Y-8889484D01*
X3368586Y-8889484D02*
X3349539Y-8879960D01*
X3349539Y-8879960D02*
X3340015Y-8870436D01*
X3340015Y-8870436D02*
X3330491Y-8851389D01*
X3330491Y-8851389D02*
X3320967Y-8813293D01*
X3320967Y-8813293D02*
X3320967Y-8765674D01*
X3320967Y-8765674D02*
X3330491Y-8727579D01*
X3330491Y-8727579D02*
X3340015Y-8708531D01*
X3340015Y-8708531D02*
X3349539Y-8699008D01*
X3349539Y-8699008D02*
X3368586Y-8689484D01*
X3559062Y-8689484D02*
X3578110Y-8689484D01*
X3578110Y-8689484D02*
X3597158Y-8699008D01*
X3597158Y-8699008D02*
X3606682Y-8708531D01*
X3606682Y-8708531D02*
X3616205Y-8727579D01*
X3616205Y-8727579D02*
X3625729Y-8765674D01*
X3625729Y-8765674D02*
X3625729Y-8813293D01*
X3625729Y-8813293D02*
X3616205Y-8851389D01*
X3616205Y-8851389D02*
X3606682Y-8870436D01*
X3606682Y-8870436D02*
X3597158Y-8879960D01*
X3597158Y-8879960D02*
X3578110Y-8889484D01*
X3578110Y-8889484D02*
X3559062Y-8889484D01*
X3559062Y-8889484D02*
X3540015Y-8879960D01*
X3540015Y-8879960D02*
X3530491Y-8870436D01*
X3530491Y-8870436D02*
X3520967Y-8851389D01*
X3520967Y-8851389D02*
X3511443Y-8813293D01*
X3511443Y-8813293D02*
X3511443Y-8765674D01*
X3511443Y-8765674D02*
X3520967Y-8727579D01*
X3520967Y-8727579D02*
X3530491Y-8708531D01*
X3530491Y-8708531D02*
X3540015Y-8699008D01*
X3540015Y-8699008D02*
X3559062Y-8689484D01*
X3749539Y-8689484D02*
X3768586Y-8689484D01*
X3768586Y-8689484D02*
X3787634Y-8699008D01*
X3787634Y-8699008D02*
X3797158Y-8708531D01*
X3797158Y-8708531D02*
X3806682Y-8727579D01*
X3806682Y-8727579D02*
X3816205Y-8765674D01*
X3816205Y-8765674D02*
X3816205Y-8813293D01*
X3816205Y-8813293D02*
X3806682Y-8851389D01*
X3806682Y-8851389D02*
X3797158Y-8870436D01*
X3797158Y-8870436D02*
X3787634Y-8879960D01*
X3787634Y-8879960D02*
X3768586Y-8889484D01*
X3768586Y-8889484D02*
X3749539Y-8889484D01*
X3749539Y-8889484D02*
X3730491Y-8879960D01*
X3730491Y-8879960D02*
X3720967Y-8870436D01*
X3720967Y-8870436D02*
X3711443Y-8851389D01*
X3711443Y-8851389D02*
X3701920Y-8813293D01*
X3701920Y-8813293D02*
X3701920Y-8765674D01*
X3701920Y-8765674D02*
X3711443Y-8727579D01*
X3711443Y-8727579D02*
X3720967Y-8708531D01*
X3720967Y-8708531D02*
X3730491Y-8699008D01*
X3730491Y-8699008D02*
X3749539Y-8689484D01*
X3901920Y-8889484D02*
X3901920Y-8756150D01*
X3901920Y-8775198D02*
X3911443Y-8765674D01*
X3911443Y-8765674D02*
X3930491Y-8756150D01*
X3930491Y-8756150D02*
X3959063Y-8756150D01*
X3959063Y-8756150D02*
X3978110Y-8765674D01*
X3978110Y-8765674D02*
X3987634Y-8784722D01*
X3987634Y-8784722D02*
X3987634Y-8889484D01*
X3987634Y-8784722D02*
X3997158Y-8765674D01*
X3997158Y-8765674D02*
X4016205Y-8756150D01*
X4016205Y-8756150D02*
X4044777Y-8756150D01*
X4044777Y-8756150D02*
X4063824Y-8765674D01*
X4063824Y-8765674D02*
X4073348Y-8784722D01*
X4073348Y-8784722D02*
X4073348Y-8889484D01*
X4168586Y-8889484D02*
X4168586Y-8756150D01*
X4168586Y-8775198D02*
X4178110Y-8765674D01*
X4178110Y-8765674D02*
X4197158Y-8756150D01*
X4197158Y-8756150D02*
X4225729Y-8756150D01*
X4225729Y-8756150D02*
X4244777Y-8765674D01*
X4244777Y-8765674D02*
X4254301Y-8784722D01*
X4254301Y-8784722D02*
X4254301Y-8889484D01*
X4254301Y-8784722D02*
X4263825Y-8765674D01*
X4263825Y-8765674D02*
X4282872Y-8756150D01*
X4282872Y-8756150D02*
X4311444Y-8756150D01*
X4311444Y-8756150D02*
X4330491Y-8765674D01*
X4330491Y-8765674D02*
X4340015Y-8784722D01*
X4340015Y-8784722D02*
X4340015Y-8889484D01*
X4730491Y-8679960D02*
X4559063Y-8937103D01*
X4987634Y-8689484D02*
X5006682Y-8689484D01*
X5006682Y-8689484D02*
X5025729Y-8699008D01*
X5025729Y-8699008D02*
X5035253Y-8708531D01*
X5035253Y-8708531D02*
X5044777Y-8727579D01*
X5044777Y-8727579D02*
X5054301Y-8765674D01*
X5054301Y-8765674D02*
X5054301Y-8813293D01*
X5054301Y-8813293D02*
X5044777Y-8851389D01*
X5044777Y-8851389D02*
X5035253Y-8870436D01*
X5035253Y-8870436D02*
X5025729Y-8879960D01*
X5025729Y-8879960D02*
X5006682Y-8889484D01*
X5006682Y-8889484D02*
X4987634Y-8889484D01*
X4987634Y-8889484D02*
X4968587Y-8879960D01*
X4968587Y-8879960D02*
X4959063Y-8870436D01*
X4959063Y-8870436D02*
X4949539Y-8851389D01*
X4949539Y-8851389D02*
X4940015Y-8813293D01*
X4940015Y-8813293D02*
X4940015Y-8765674D01*
X4940015Y-8765674D02*
X4949539Y-8727579D01*
X4949539Y-8727579D02*
X4959063Y-8708531D01*
X4959063Y-8708531D02*
X4968587Y-8699008D01*
X4968587Y-8699008D02*
X4987634Y-8689484D01*
X5140015Y-8870436D02*
X5149539Y-8879960D01*
X5149539Y-8879960D02*
X5140015Y-8889484D01*
X5140015Y-8889484D02*
X5130491Y-8879960D01*
X5130491Y-8879960D02*
X5140015Y-8870436D01*
X5140015Y-8870436D02*
X5140015Y-8889484D01*
X5273348Y-8689484D02*
X5292396Y-8689484D01*
X5292396Y-8689484D02*
X5311444Y-8699008D01*
X5311444Y-8699008D02*
X5320968Y-8708531D01*
X5320968Y-8708531D02*
X5330491Y-8727579D01*
X5330491Y-8727579D02*
X5340015Y-8765674D01*
X5340015Y-8765674D02*
X5340015Y-8813293D01*
X5340015Y-8813293D02*
X5330491Y-8851389D01*
X5330491Y-8851389D02*
X5320968Y-8870436D01*
X5320968Y-8870436D02*
X5311444Y-8879960D01*
X5311444Y-8879960D02*
X5292396Y-8889484D01*
X5292396Y-8889484D02*
X5273348Y-8889484D01*
X5273348Y-8889484D02*
X5254301Y-8879960D01*
X5254301Y-8879960D02*
X5244777Y-8870436D01*
X5244777Y-8870436D02*
X5235253Y-8851389D01*
X5235253Y-8851389D02*
X5225729Y-8813293D01*
X5225729Y-8813293D02*
X5225729Y-8765674D01*
X5225729Y-8765674D02*
X5235253Y-8727579D01*
X5235253Y-8727579D02*
X5244777Y-8708531D01*
X5244777Y-8708531D02*
X5254301Y-8699008D01*
X5254301Y-8699008D02*
X5273348Y-8689484D01*
X5406682Y-8689484D02*
X5530491Y-8689484D01*
X5530491Y-8689484D02*
X5463825Y-8765674D01*
X5463825Y-8765674D02*
X5492396Y-8765674D01*
X5492396Y-8765674D02*
X5511444Y-8775198D01*
X5511444Y-8775198D02*
X5520968Y-8784722D01*
X5520968Y-8784722D02*
X5530491Y-8803770D01*
X5530491Y-8803770D02*
X5530491Y-8851389D01*
X5530491Y-8851389D02*
X5520968Y-8870436D01*
X5520968Y-8870436D02*
X5511444Y-8879960D01*
X5511444Y-8879960D02*
X5492396Y-8889484D01*
X5492396Y-8889484D02*
X5435253Y-8889484D01*
X5435253Y-8889484D02*
X5416206Y-8879960D01*
X5416206Y-8879960D02*
X5406682Y-8870436D01*
X5625729Y-8889484D02*
X5663825Y-8889484D01*
X5663825Y-8889484D02*
X5682872Y-8879960D01*
X5682872Y-8879960D02*
X5692396Y-8870436D01*
X5692396Y-8870436D02*
X5711444Y-8841865D01*
X5711444Y-8841865D02*
X5720967Y-8803770D01*
X5720967Y-8803770D02*
X5720967Y-8727579D01*
X5720967Y-8727579D02*
X5711444Y-8708531D01*
X5711444Y-8708531D02*
X5701920Y-8699008D01*
X5701920Y-8699008D02*
X5682872Y-8689484D01*
X5682872Y-8689484D02*
X5644777Y-8689484D01*
X5644777Y-8689484D02*
X5625729Y-8699008D01*
X5625729Y-8699008D02*
X5616206Y-8708531D01*
X5616206Y-8708531D02*
X5606682Y-8727579D01*
X5606682Y-8727579D02*
X5606682Y-8775198D01*
X5606682Y-8775198D02*
X5616206Y-8794246D01*
X5616206Y-8794246D02*
X5625729Y-8803770D01*
X5625729Y-8803770D02*
X5644777Y-8813293D01*
X5644777Y-8813293D02*
X5682872Y-8813293D01*
X5682872Y-8813293D02*
X5701920Y-8803770D01*
X5701920Y-8803770D02*
X5711444Y-8794246D01*
X5711444Y-8794246D02*
X5720967Y-8775198D01*
X5892396Y-8756150D02*
X5892396Y-8889484D01*
X5844777Y-8679960D02*
X5797158Y-8822817D01*
X5797158Y-8822817D02*
X5920967Y-8822817D01*
X5987634Y-8689484D02*
X5987634Y-8727579D01*
X6063825Y-8689484D02*
X6063825Y-8727579D01*
X6359063Y-8965674D02*
X6349539Y-8956150D01*
X6349539Y-8956150D02*
X6330491Y-8927579D01*
X6330491Y-8927579D02*
X6320968Y-8908531D01*
X6320968Y-8908531D02*
X6311444Y-8879960D01*
X6311444Y-8879960D02*
X6301920Y-8832341D01*
X6301920Y-8832341D02*
X6301920Y-8794246D01*
X6301920Y-8794246D02*
X6311444Y-8746627D01*
X6311444Y-8746627D02*
X6320968Y-8718055D01*
X6320968Y-8718055D02*
X6330491Y-8699008D01*
X6330491Y-8699008D02*
X6349539Y-8670436D01*
X6349539Y-8670436D02*
X6359063Y-8660912D01*
X6425729Y-8708531D02*
X6435253Y-8699008D01*
X6435253Y-8699008D02*
X6454301Y-8689484D01*
X6454301Y-8689484D02*
X6501920Y-8689484D01*
X6501920Y-8689484D02*
X6520968Y-8699008D01*
X6520968Y-8699008D02*
X6530491Y-8708531D01*
X6530491Y-8708531D02*
X6540015Y-8727579D01*
X6540015Y-8727579D02*
X6540015Y-8746627D01*
X6540015Y-8746627D02*
X6530491Y-8775198D01*
X6530491Y-8775198D02*
X6416206Y-8889484D01*
X6416206Y-8889484D02*
X6540015Y-8889484D01*
X6663825Y-8689484D02*
X6682872Y-8689484D01*
X6682872Y-8689484D02*
X6701920Y-8699008D01*
X6701920Y-8699008D02*
X6711444Y-8708531D01*
X6711444Y-8708531D02*
X6720968Y-8727579D01*
X6720968Y-8727579D02*
X6730491Y-8765674D01*
X6730491Y-8765674D02*
X6730491Y-8813293D01*
X6730491Y-8813293D02*
X6720968Y-8851389D01*
X6720968Y-8851389D02*
X6711444Y-8870436D01*
X6711444Y-8870436D02*
X6701920Y-8879960D01*
X6701920Y-8879960D02*
X6682872Y-8889484D01*
X6682872Y-8889484D02*
X6663825Y-8889484D01*
X6663825Y-8889484D02*
X6644777Y-8879960D01*
X6644777Y-8879960D02*
X6635253Y-8870436D01*
X6635253Y-8870436D02*
X6625729Y-8851389D01*
X6625729Y-8851389D02*
X6616206Y-8813293D01*
X6616206Y-8813293D02*
X6616206Y-8765674D01*
X6616206Y-8765674D02*
X6625729Y-8727579D01*
X6625729Y-8727579D02*
X6635253Y-8708531D01*
X6635253Y-8708531D02*
X6644777Y-8699008D01*
X6644777Y-8699008D02*
X6663825Y-8689484D01*
X6968587Y-8889484D02*
X6968587Y-8689484D01*
X7054301Y-8889484D02*
X7054301Y-8784722D01*
X7054301Y-8784722D02*
X7044777Y-8765674D01*
X7044777Y-8765674D02*
X7025730Y-8756150D01*
X7025730Y-8756150D02*
X6997158Y-8756150D01*
X6997158Y-8756150D02*
X6978110Y-8765674D01*
X6978110Y-8765674D02*
X6968587Y-8775198D01*
X7178110Y-8889484D02*
X7159063Y-8879960D01*
X7159063Y-8879960D02*
X7149539Y-8870436D01*
X7149539Y-8870436D02*
X7140015Y-8851389D01*
X7140015Y-8851389D02*
X7140015Y-8794246D01*
X7140015Y-8794246D02*
X7149539Y-8775198D01*
X7149539Y-8775198D02*
X7159063Y-8765674D01*
X7159063Y-8765674D02*
X7178110Y-8756150D01*
X7178110Y-8756150D02*
X7206682Y-8756150D01*
X7206682Y-8756150D02*
X7225730Y-8765674D01*
X7225730Y-8765674D02*
X7235253Y-8775198D01*
X7235253Y-8775198D02*
X7244777Y-8794246D01*
X7244777Y-8794246D02*
X7244777Y-8851389D01*
X7244777Y-8851389D02*
X7235253Y-8870436D01*
X7235253Y-8870436D02*
X7225730Y-8879960D01*
X7225730Y-8879960D02*
X7206682Y-8889484D01*
X7206682Y-8889484D02*
X7178110Y-8889484D01*
X7359063Y-8889484D02*
X7340015Y-8879960D01*
X7340015Y-8879960D02*
X7330491Y-8860912D01*
X7330491Y-8860912D02*
X7330491Y-8689484D01*
X7511444Y-8879960D02*
X7492396Y-8889484D01*
X7492396Y-8889484D02*
X7454301Y-8889484D01*
X7454301Y-8889484D02*
X7435253Y-8879960D01*
X7435253Y-8879960D02*
X7425730Y-8860912D01*
X7425730Y-8860912D02*
X7425730Y-8784722D01*
X7425730Y-8784722D02*
X7435253Y-8765674D01*
X7435253Y-8765674D02*
X7454301Y-8756150D01*
X7454301Y-8756150D02*
X7492396Y-8756150D01*
X7492396Y-8756150D02*
X7511444Y-8765674D01*
X7511444Y-8765674D02*
X7520968Y-8784722D01*
X7520968Y-8784722D02*
X7520968Y-8803770D01*
X7520968Y-8803770D02*
X7425730Y-8822817D01*
X7597158Y-8879960D02*
X7616206Y-8889484D01*
X7616206Y-8889484D02*
X7654301Y-8889484D01*
X7654301Y-8889484D02*
X7673349Y-8879960D01*
X7673349Y-8879960D02*
X7682872Y-8860912D01*
X7682872Y-8860912D02*
X7682872Y-8851389D01*
X7682872Y-8851389D02*
X7673349Y-8832341D01*
X7673349Y-8832341D02*
X7654301Y-8822817D01*
X7654301Y-8822817D02*
X7625730Y-8822817D01*
X7625730Y-8822817D02*
X7606682Y-8813293D01*
X7606682Y-8813293D02*
X7597158Y-8794246D01*
X7597158Y-8794246D02*
X7597158Y-8784722D01*
X7597158Y-8784722D02*
X7606682Y-8765674D01*
X7606682Y-8765674D02*
X7625730Y-8756150D01*
X7625730Y-8756150D02*
X7654301Y-8756150D01*
X7654301Y-8756150D02*
X7673349Y-8765674D01*
X7749539Y-8965674D02*
X7759063Y-8956150D01*
X7759063Y-8956150D02*
X7778111Y-8927579D01*
X7778111Y-8927579D02*
X7787634Y-8908531D01*
X7787634Y-8908531D02*
X7797158Y-8879960D01*
X7797158Y-8879960D02*
X7806682Y-8832341D01*
X7806682Y-8832341D02*
X7806682Y-8794246D01*
X7806682Y-8794246D02*
X7797158Y-8746627D01*
X7797158Y-8746627D02*
X7787634Y-8718055D01*
X7787634Y-8718055D02*
X7778111Y-8699008D01*
X7778111Y-8699008D02*
X7759063Y-8670436D01*
X7759063Y-8670436D02*
X7749539Y-8660912D01*
M02*
