M48
; DRILL file {KiCad 7.0.7} date Wed Feb 28 11:49:27 2024
; FORMAT={-:-/ absolute / metric / decimal}
; #@! TF.CreationDate,2024-02-28T11:49:27+01:00
; #@! TF.GenerationSoftware,Kicad,Pcbnew,7.0.7
; #@! TF.FileFunction,Plated,1,2,PTH
FMAT,2
METRIC
; #@! TA.AperFunction,Plated,PTH,ViaDrill
T1C0.400
; #@! TA.AperFunction,Plated,PTH,ComponentDrill
T2C0.800
; #@! TA.AperFunction,Plated,PTH,ComponentDrill
T3C1.000
%
G90
G05
T1
X35.56Y-50.495
X44.169Y-34.56
X46.677Y-41.719
X52.595Y-58.598
X63.015Y-43.872
X71.636Y-52.07
T2
X66.04Y-30.48
X73.66Y-30.48
T3
X30.48Y-30.48
X30.48Y-34.29
X30.48Y-36.83
X30.48Y-39.37
X30.48Y-41.91
X30.48Y-44.45
X30.48Y-73.66
X33.02Y-30.48
X33.02Y-73.66
X35.56Y-30.48
X35.56Y-73.66
X38.1Y-30.48
X38.1Y-73.66
X40.64Y-30.48
X40.64Y-73.66
X73.66Y-34.29
X73.66Y-36.83
X73.66Y-39.37
X73.66Y-41.91
X73.66Y-44.45
T0
M30
