G04 #@! TF.GenerationSoftware,KiCad,Pcbnew,7.0.7*
G04 #@! TF.CreationDate,2024-02-28T11:49:35+01:00*
G04 #@! TF.ProjectId,bottom_test,626f7474-6f6d-45f7-9465-73742e6b6963,rev?*
G04 #@! TF.SameCoordinates,Original*
G04 #@! TF.FileFunction,Copper,L2,Bot*
G04 #@! TF.FilePolarity,Positive*
%FSLAX46Y46*%
G04 Gerber Fmt 4.6, Leading zero omitted, Abs format (unit mm)*
G04 Created by KiCad (PCBNEW 7.0.7) date 2024-02-28 11:49:35*
%MOMM*%
%LPD*%
G01*
G04 APERTURE LIST*
G04 #@! TA.AperFunction,ComponentPad*
%ADD10R,1.700000X1.700000*%
G04 #@! TD*
G04 #@! TA.AperFunction,ComponentPad*
%ADD11O,1.700000X1.700000*%
G04 #@! TD*
G04 #@! TA.AperFunction,ComponentPad*
%ADD12R,1.600000X1.600000*%
G04 #@! TD*
G04 #@! TA.AperFunction,ComponentPad*
%ADD13O,1.600000X1.600000*%
G04 #@! TD*
G04 #@! TA.AperFunction,ViaPad*
%ADD14C,0.800000*%
G04 #@! TD*
G04 #@! TA.AperFunction,Conductor*
%ADD15C,0.500000*%
G04 #@! TD*
G04 APERTURE END LIST*
D10*
X30480000Y-44450000D03*
D11*
X30480000Y-41910000D03*
X30480000Y-39370000D03*
X30480000Y-36830000D03*
X30480000Y-34290000D03*
D10*
X30480000Y-73660000D03*
D11*
X33020000Y-73660000D03*
X35560000Y-73660000D03*
X38100000Y-73660000D03*
X40640000Y-73660000D03*
D12*
X66040000Y-30480000D03*
D13*
X73660000Y-30480000D03*
D10*
X30480000Y-30480000D03*
D11*
X33020000Y-30480000D03*
X35560000Y-30480000D03*
X38100000Y-30480000D03*
X40640000Y-30480000D03*
D10*
X73660000Y-44450000D03*
D11*
X73660000Y-41910000D03*
X73660000Y-39370000D03*
X73660000Y-36830000D03*
X73660000Y-34290000D03*
D14*
X44168700Y-34559800D03*
X71636200Y-52069900D03*
X35560000Y-50494900D03*
X46677200Y-41719100D03*
X63014900Y-43872500D03*
X52595300Y-58598000D03*
D15*
X30480000Y-44450000D02*
X30480000Y-73660000D01*
X29078100Y-43048100D02*
X29078100Y-33283800D01*
X30480000Y-44450000D02*
X29078100Y-43048100D01*
X30480000Y-30480000D02*
X30480000Y-31881900D01*
X29078100Y-33283800D02*
X30480000Y-31881900D01*
X41172400Y-29008000D02*
X44168700Y-32004300D01*
X33020000Y-73660000D02*
X33020000Y-44450000D01*
X33020000Y-44450000D02*
X30480000Y-41910000D01*
X44168700Y-32004300D02*
X44168700Y-34559800D01*
X34492000Y-29008000D02*
X41172400Y-29008000D01*
X33020000Y-30480000D02*
X34492000Y-29008000D01*
X31881900Y-36830000D02*
X32092800Y-37040900D01*
X38100000Y-31881900D02*
X32941000Y-37040900D01*
X38100000Y-30480000D02*
X38100000Y-31881900D01*
X32092800Y-37040900D02*
X32941000Y-37040900D01*
X32941000Y-37040900D02*
X38100000Y-42199900D01*
X71636200Y-38853800D02*
X71636200Y-52069900D01*
X73660000Y-36830000D02*
X71636200Y-38853800D01*
X30480000Y-36830000D02*
X31881900Y-36830000D01*
X38100000Y-42199900D02*
X38100000Y-73660000D01*
X35560000Y-50494900D02*
X35560000Y-44450000D01*
X35560000Y-73660000D02*
X35560000Y-50494900D01*
X35560000Y-44450000D02*
X30480000Y-39370000D01*
X40640000Y-30480000D02*
X40640000Y-31881900D01*
X46677200Y-41719100D02*
X40640000Y-41719100D01*
X40640000Y-41719100D02*
X40640000Y-73660000D01*
X40640000Y-31881900D02*
X40640000Y-41719100D01*
X52595300Y-54292100D02*
X52595300Y-58598000D01*
X73660000Y-30480000D02*
X73660000Y-31831900D01*
X63014900Y-43872500D02*
X52595300Y-54292100D01*
X73660000Y-31831900D02*
X63014900Y-42477000D01*
X63014900Y-42477000D02*
X63014900Y-43872500D01*
M02*
