G04 #@! TF.GenerationSoftware,KiCad,Pcbnew,7.0.7*
G04 #@! TF.CreationDate,2024-02-28T11:49:36+01:00*
G04 #@! TF.ProjectId,bottom_test,626f7474-6f6d-45f7-9465-73742e6b6963,rev?*
G04 #@! TF.SameCoordinates,Original*
G04 #@! TF.FileFunction,Legend,Top*
G04 #@! TF.FilePolarity,Positive*
%FSLAX46Y46*%
G04 Gerber Fmt 4.6, Leading zero omitted, Abs format (unit mm)*
G04 Created by KiCad (PCBNEW 7.0.7) date 2024-02-28 11:49:36*
%MOMM*%
%LPD*%
G01*
G04 APERTURE LIST*
%ADD10C,0.150000*%
%ADD11C,0.120000*%
%ADD12C,1.700000*%
%ADD13O,1.700000X1.700000*%
%ADD14R,1.700000X1.700000*%
%ADD15R,1.600000X1.600000*%
%ADD16O,1.600000X1.600000*%
G04 APERTURE END LIST*
D10*
X23618808Y-47079580D02*
X23571189Y-47127200D01*
X23571189Y-47127200D02*
X23428332Y-47174819D01*
X23428332Y-47174819D02*
X23333094Y-47174819D01*
X23333094Y-47174819D02*
X23190237Y-47127200D01*
X23190237Y-47127200D02*
X23094999Y-47031961D01*
X23094999Y-47031961D02*
X23047380Y-46936723D01*
X23047380Y-46936723D02*
X22999761Y-46746247D01*
X22999761Y-46746247D02*
X22999761Y-46603390D01*
X22999761Y-46603390D02*
X23047380Y-46412914D01*
X23047380Y-46412914D02*
X23094999Y-46317676D01*
X23094999Y-46317676D02*
X23190237Y-46222438D01*
X23190237Y-46222438D02*
X23333094Y-46174819D01*
X23333094Y-46174819D02*
X23428332Y-46174819D01*
X23428332Y-46174819D02*
X23571189Y-46222438D01*
X23571189Y-46222438D02*
X23618808Y-46270057D01*
X24190237Y-47174819D02*
X24094999Y-47127200D01*
X24094999Y-47127200D02*
X24047380Y-47079580D01*
X24047380Y-47079580D02*
X23999761Y-46984342D01*
X23999761Y-46984342D02*
X23999761Y-46698628D01*
X23999761Y-46698628D02*
X24047380Y-46603390D01*
X24047380Y-46603390D02*
X24094999Y-46555771D01*
X24094999Y-46555771D02*
X24190237Y-46508152D01*
X24190237Y-46508152D02*
X24333094Y-46508152D01*
X24333094Y-46508152D02*
X24428332Y-46555771D01*
X24428332Y-46555771D02*
X24475951Y-46603390D01*
X24475951Y-46603390D02*
X24523570Y-46698628D01*
X24523570Y-46698628D02*
X24523570Y-46984342D01*
X24523570Y-46984342D02*
X24475951Y-47079580D01*
X24475951Y-47079580D02*
X24428332Y-47127200D01*
X24428332Y-47127200D02*
X24333094Y-47174819D01*
X24333094Y-47174819D02*
X24190237Y-47174819D01*
X24952142Y-46508152D02*
X24952142Y-47174819D01*
X24952142Y-46603390D02*
X24999761Y-46555771D01*
X24999761Y-46555771D02*
X25094999Y-46508152D01*
X25094999Y-46508152D02*
X25237856Y-46508152D01*
X25237856Y-46508152D02*
X25333094Y-46555771D01*
X25333094Y-46555771D02*
X25380713Y-46651009D01*
X25380713Y-46651009D02*
X25380713Y-47174819D01*
X26333094Y-47174819D02*
X25856904Y-47174819D01*
X25856904Y-47174819D02*
X25856904Y-46174819D01*
X27047380Y-47127200D02*
X26952142Y-47174819D01*
X26952142Y-47174819D02*
X26761666Y-47174819D01*
X26761666Y-47174819D02*
X26666428Y-47127200D01*
X26666428Y-47127200D02*
X26618809Y-47031961D01*
X26618809Y-47031961D02*
X26618809Y-46651009D01*
X26618809Y-46651009D02*
X26666428Y-46555771D01*
X26666428Y-46555771D02*
X26761666Y-46508152D01*
X26761666Y-46508152D02*
X26952142Y-46508152D01*
X26952142Y-46508152D02*
X27047380Y-46555771D01*
X27047380Y-46555771D02*
X27094999Y-46651009D01*
X27094999Y-46651009D02*
X27094999Y-46746247D01*
X27094999Y-46746247D02*
X26618809Y-46841485D01*
X27380714Y-46508152D02*
X27761666Y-46508152D01*
X27523571Y-47174819D02*
X27523571Y-46317676D01*
X27523571Y-46317676D02*
X27571190Y-46222438D01*
X27571190Y-46222438D02*
X27666428Y-46174819D01*
X27666428Y-46174819D02*
X27761666Y-46174819D01*
X27952143Y-46508152D02*
X28333095Y-46508152D01*
X28095000Y-46174819D02*
X28095000Y-47031961D01*
X28095000Y-47031961D02*
X28142619Y-47127200D01*
X28142619Y-47127200D02*
X28237857Y-47174819D01*
X28237857Y-47174819D02*
X28333095Y-47174819D01*
X29190238Y-47174819D02*
X28618810Y-47174819D01*
X28904524Y-47174819D02*
X28904524Y-46174819D01*
X28904524Y-46174819D02*
X28809286Y-46317676D01*
X28809286Y-46317676D02*
X28714048Y-46412914D01*
X28714048Y-46412914D02*
X28618810Y-46460533D01*
X28069580Y-80349524D02*
X28117200Y-80397143D01*
X28117200Y-80397143D02*
X28164819Y-80540000D01*
X28164819Y-80540000D02*
X28164819Y-80635238D01*
X28164819Y-80635238D02*
X28117200Y-80778095D01*
X28117200Y-80778095D02*
X28021961Y-80873333D01*
X28021961Y-80873333D02*
X27926723Y-80920952D01*
X27926723Y-80920952D02*
X27736247Y-80968571D01*
X27736247Y-80968571D02*
X27593390Y-80968571D01*
X27593390Y-80968571D02*
X27402914Y-80920952D01*
X27402914Y-80920952D02*
X27307676Y-80873333D01*
X27307676Y-80873333D02*
X27212438Y-80778095D01*
X27212438Y-80778095D02*
X27164819Y-80635238D01*
X27164819Y-80635238D02*
X27164819Y-80540000D01*
X27164819Y-80540000D02*
X27212438Y-80397143D01*
X27212438Y-80397143D02*
X27260057Y-80349524D01*
X28164819Y-79778095D02*
X28117200Y-79873333D01*
X28117200Y-79873333D02*
X28069580Y-79920952D01*
X28069580Y-79920952D02*
X27974342Y-79968571D01*
X27974342Y-79968571D02*
X27688628Y-79968571D01*
X27688628Y-79968571D02*
X27593390Y-79920952D01*
X27593390Y-79920952D02*
X27545771Y-79873333D01*
X27545771Y-79873333D02*
X27498152Y-79778095D01*
X27498152Y-79778095D02*
X27498152Y-79635238D01*
X27498152Y-79635238D02*
X27545771Y-79540000D01*
X27545771Y-79540000D02*
X27593390Y-79492381D01*
X27593390Y-79492381D02*
X27688628Y-79444762D01*
X27688628Y-79444762D02*
X27974342Y-79444762D01*
X27974342Y-79444762D02*
X28069580Y-79492381D01*
X28069580Y-79492381D02*
X28117200Y-79540000D01*
X28117200Y-79540000D02*
X28164819Y-79635238D01*
X28164819Y-79635238D02*
X28164819Y-79778095D01*
X27498152Y-79016190D02*
X28164819Y-79016190D01*
X27593390Y-79016190D02*
X27545771Y-78968571D01*
X27545771Y-78968571D02*
X27498152Y-78873333D01*
X27498152Y-78873333D02*
X27498152Y-78730476D01*
X27498152Y-78730476D02*
X27545771Y-78635238D01*
X27545771Y-78635238D02*
X27641009Y-78587619D01*
X27641009Y-78587619D02*
X28164819Y-78587619D01*
X27641009Y-77778095D02*
X27688628Y-77635238D01*
X27688628Y-77635238D02*
X27736247Y-77587619D01*
X27736247Y-77587619D02*
X27831485Y-77540000D01*
X27831485Y-77540000D02*
X27974342Y-77540000D01*
X27974342Y-77540000D02*
X28069580Y-77587619D01*
X28069580Y-77587619D02*
X28117200Y-77635238D01*
X28117200Y-77635238D02*
X28164819Y-77730476D01*
X28164819Y-77730476D02*
X28164819Y-78111428D01*
X28164819Y-78111428D02*
X27164819Y-78111428D01*
X27164819Y-78111428D02*
X27164819Y-77778095D01*
X27164819Y-77778095D02*
X27212438Y-77682857D01*
X27212438Y-77682857D02*
X27260057Y-77635238D01*
X27260057Y-77635238D02*
X27355295Y-77587619D01*
X27355295Y-77587619D02*
X27450533Y-77587619D01*
X27450533Y-77587619D02*
X27545771Y-77635238D01*
X27545771Y-77635238D02*
X27593390Y-77682857D01*
X27593390Y-77682857D02*
X27641009Y-77778095D01*
X27641009Y-77778095D02*
X27641009Y-78111428D01*
X28164819Y-76968571D02*
X28117200Y-77063809D01*
X28117200Y-77063809D02*
X28069580Y-77111428D01*
X28069580Y-77111428D02*
X27974342Y-77159047D01*
X27974342Y-77159047D02*
X27688628Y-77159047D01*
X27688628Y-77159047D02*
X27593390Y-77111428D01*
X27593390Y-77111428D02*
X27545771Y-77063809D01*
X27545771Y-77063809D02*
X27498152Y-76968571D01*
X27498152Y-76968571D02*
X27498152Y-76825714D01*
X27498152Y-76825714D02*
X27545771Y-76730476D01*
X27545771Y-76730476D02*
X27593390Y-76682857D01*
X27593390Y-76682857D02*
X27688628Y-76635238D01*
X27688628Y-76635238D02*
X27974342Y-76635238D01*
X27974342Y-76635238D02*
X28069580Y-76682857D01*
X28069580Y-76682857D02*
X28117200Y-76730476D01*
X28117200Y-76730476D02*
X28164819Y-76825714D01*
X28164819Y-76825714D02*
X28164819Y-76968571D01*
X27498152Y-76349523D02*
X27498152Y-75968571D01*
X27164819Y-76206666D02*
X28021961Y-76206666D01*
X28021961Y-76206666D02*
X28117200Y-76159047D01*
X28117200Y-76159047D02*
X28164819Y-76063809D01*
X28164819Y-76063809D02*
X28164819Y-75968571D01*
X28164819Y-75111428D02*
X28164819Y-75682856D01*
X28164819Y-75397142D02*
X27164819Y-75397142D01*
X27164819Y-75397142D02*
X27307676Y-75492380D01*
X27307676Y-75492380D02*
X27402914Y-75587618D01*
X27402914Y-75587618D02*
X27450533Y-75682856D01*
X69111905Y-28814819D02*
X69111905Y-27814819D01*
X69111905Y-27814819D02*
X69350000Y-27814819D01*
X69350000Y-27814819D02*
X69492857Y-27862438D01*
X69492857Y-27862438D02*
X69588095Y-27957676D01*
X69588095Y-27957676D02*
X69635714Y-28052914D01*
X69635714Y-28052914D02*
X69683333Y-28243390D01*
X69683333Y-28243390D02*
X69683333Y-28386247D01*
X69683333Y-28386247D02*
X69635714Y-28576723D01*
X69635714Y-28576723D02*
X69588095Y-28671961D01*
X69588095Y-28671961D02*
X69492857Y-28767200D01*
X69492857Y-28767200D02*
X69350000Y-28814819D01*
X69350000Y-28814819D02*
X69111905Y-28814819D01*
X70635714Y-28814819D02*
X70064286Y-28814819D01*
X70350000Y-28814819D02*
X70350000Y-27814819D01*
X70350000Y-27814819D02*
X70254762Y-27957676D01*
X70254762Y-27957676D02*
X70159524Y-28052914D01*
X70159524Y-28052914D02*
X70064286Y-28100533D01*
X65778095Y-29134819D02*
X65778095Y-28134819D01*
X66349523Y-29134819D02*
X65920952Y-28563390D01*
X66349523Y-28134819D02*
X65778095Y-28706247D01*
X28569580Y-28452143D02*
X28617200Y-28499762D01*
X28617200Y-28499762D02*
X28664819Y-28642619D01*
X28664819Y-28642619D02*
X28664819Y-28737857D01*
X28664819Y-28737857D02*
X28617200Y-28880714D01*
X28617200Y-28880714D02*
X28521961Y-28975952D01*
X28521961Y-28975952D02*
X28426723Y-29023571D01*
X28426723Y-29023571D02*
X28236247Y-29071190D01*
X28236247Y-29071190D02*
X28093390Y-29071190D01*
X28093390Y-29071190D02*
X27902914Y-29023571D01*
X27902914Y-29023571D02*
X27807676Y-28975952D01*
X27807676Y-28975952D02*
X27712438Y-28880714D01*
X27712438Y-28880714D02*
X27664819Y-28737857D01*
X27664819Y-28737857D02*
X27664819Y-28642619D01*
X27664819Y-28642619D02*
X27712438Y-28499762D01*
X27712438Y-28499762D02*
X27760057Y-28452143D01*
X28664819Y-27880714D02*
X28617200Y-27975952D01*
X28617200Y-27975952D02*
X28569580Y-28023571D01*
X28569580Y-28023571D02*
X28474342Y-28071190D01*
X28474342Y-28071190D02*
X28188628Y-28071190D01*
X28188628Y-28071190D02*
X28093390Y-28023571D01*
X28093390Y-28023571D02*
X28045771Y-27975952D01*
X28045771Y-27975952D02*
X27998152Y-27880714D01*
X27998152Y-27880714D02*
X27998152Y-27737857D01*
X27998152Y-27737857D02*
X28045771Y-27642619D01*
X28045771Y-27642619D02*
X28093390Y-27595000D01*
X28093390Y-27595000D02*
X28188628Y-27547381D01*
X28188628Y-27547381D02*
X28474342Y-27547381D01*
X28474342Y-27547381D02*
X28569580Y-27595000D01*
X28569580Y-27595000D02*
X28617200Y-27642619D01*
X28617200Y-27642619D02*
X28664819Y-27737857D01*
X28664819Y-27737857D02*
X28664819Y-27880714D01*
X27998152Y-27118809D02*
X28664819Y-27118809D01*
X28093390Y-27118809D02*
X28045771Y-27071190D01*
X28045771Y-27071190D02*
X27998152Y-26975952D01*
X27998152Y-26975952D02*
X27998152Y-26833095D01*
X27998152Y-26833095D02*
X28045771Y-26737857D01*
X28045771Y-26737857D02*
X28141009Y-26690238D01*
X28141009Y-26690238D02*
X28664819Y-26690238D01*
X27664819Y-26356904D02*
X27664819Y-25785476D01*
X28664819Y-26071190D02*
X27664819Y-26071190D01*
X28664819Y-25309285D02*
X28617200Y-25404523D01*
X28617200Y-25404523D02*
X28569580Y-25452142D01*
X28569580Y-25452142D02*
X28474342Y-25499761D01*
X28474342Y-25499761D02*
X28188628Y-25499761D01*
X28188628Y-25499761D02*
X28093390Y-25452142D01*
X28093390Y-25452142D02*
X28045771Y-25404523D01*
X28045771Y-25404523D02*
X27998152Y-25309285D01*
X27998152Y-25309285D02*
X27998152Y-25166428D01*
X27998152Y-25166428D02*
X28045771Y-25071190D01*
X28045771Y-25071190D02*
X28093390Y-25023571D01*
X28093390Y-25023571D02*
X28188628Y-24975952D01*
X28188628Y-24975952D02*
X28474342Y-24975952D01*
X28474342Y-24975952D02*
X28569580Y-25023571D01*
X28569580Y-25023571D02*
X28617200Y-25071190D01*
X28617200Y-25071190D02*
X28664819Y-25166428D01*
X28664819Y-25166428D02*
X28664819Y-25309285D01*
X27998152Y-24547380D02*
X28998152Y-24547380D01*
X28045771Y-24547380D02*
X27998152Y-24452142D01*
X27998152Y-24452142D02*
X27998152Y-24261666D01*
X27998152Y-24261666D02*
X28045771Y-24166428D01*
X28045771Y-24166428D02*
X28093390Y-24118809D01*
X28093390Y-24118809D02*
X28188628Y-24071190D01*
X28188628Y-24071190D02*
X28474342Y-24071190D01*
X28474342Y-24071190D02*
X28569580Y-24118809D01*
X28569580Y-24118809D02*
X28617200Y-24166428D01*
X28617200Y-24166428D02*
X28664819Y-24261666D01*
X28664819Y-24261666D02*
X28664819Y-24452142D01*
X28664819Y-24452142D02*
X28617200Y-24547380D01*
X28664819Y-23118809D02*
X28664819Y-23690237D01*
X28664819Y-23404523D02*
X27664819Y-23404523D01*
X27664819Y-23404523D02*
X27807676Y-23499761D01*
X27807676Y-23499761D02*
X27902914Y-23594999D01*
X27902914Y-23594999D02*
X27950533Y-23690237D01*
X75039999Y-47579580D02*
X74992380Y-47627200D01*
X74992380Y-47627200D02*
X74849523Y-47674819D01*
X74849523Y-47674819D02*
X74754285Y-47674819D01*
X74754285Y-47674819D02*
X74611428Y-47627200D01*
X74611428Y-47627200D02*
X74516190Y-47531961D01*
X74516190Y-47531961D02*
X74468571Y-47436723D01*
X74468571Y-47436723D02*
X74420952Y-47246247D01*
X74420952Y-47246247D02*
X74420952Y-47103390D01*
X74420952Y-47103390D02*
X74468571Y-46912914D01*
X74468571Y-46912914D02*
X74516190Y-46817676D01*
X74516190Y-46817676D02*
X74611428Y-46722438D01*
X74611428Y-46722438D02*
X74754285Y-46674819D01*
X74754285Y-46674819D02*
X74849523Y-46674819D01*
X74849523Y-46674819D02*
X74992380Y-46722438D01*
X74992380Y-46722438D02*
X75039999Y-46770057D01*
X75611428Y-47674819D02*
X75516190Y-47627200D01*
X75516190Y-47627200D02*
X75468571Y-47579580D01*
X75468571Y-47579580D02*
X75420952Y-47484342D01*
X75420952Y-47484342D02*
X75420952Y-47198628D01*
X75420952Y-47198628D02*
X75468571Y-47103390D01*
X75468571Y-47103390D02*
X75516190Y-47055771D01*
X75516190Y-47055771D02*
X75611428Y-47008152D01*
X75611428Y-47008152D02*
X75754285Y-47008152D01*
X75754285Y-47008152D02*
X75849523Y-47055771D01*
X75849523Y-47055771D02*
X75897142Y-47103390D01*
X75897142Y-47103390D02*
X75944761Y-47198628D01*
X75944761Y-47198628D02*
X75944761Y-47484342D01*
X75944761Y-47484342D02*
X75897142Y-47579580D01*
X75897142Y-47579580D02*
X75849523Y-47627200D01*
X75849523Y-47627200D02*
X75754285Y-47674819D01*
X75754285Y-47674819D02*
X75611428Y-47674819D01*
X76373333Y-47008152D02*
X76373333Y-47674819D01*
X76373333Y-47103390D02*
X76420952Y-47055771D01*
X76420952Y-47055771D02*
X76516190Y-47008152D01*
X76516190Y-47008152D02*
X76659047Y-47008152D01*
X76659047Y-47008152D02*
X76754285Y-47055771D01*
X76754285Y-47055771D02*
X76801904Y-47151009D01*
X76801904Y-47151009D02*
X76801904Y-47674819D01*
X77849523Y-47674819D02*
X77516190Y-47198628D01*
X77278095Y-47674819D02*
X77278095Y-46674819D01*
X77278095Y-46674819D02*
X77659047Y-46674819D01*
X77659047Y-46674819D02*
X77754285Y-46722438D01*
X77754285Y-46722438D02*
X77801904Y-46770057D01*
X77801904Y-46770057D02*
X77849523Y-46865295D01*
X77849523Y-46865295D02*
X77849523Y-47008152D01*
X77849523Y-47008152D02*
X77801904Y-47103390D01*
X77801904Y-47103390D02*
X77754285Y-47151009D01*
X77754285Y-47151009D02*
X77659047Y-47198628D01*
X77659047Y-47198628D02*
X77278095Y-47198628D01*
X78278095Y-47674819D02*
X78278095Y-47008152D01*
X78278095Y-46674819D02*
X78230476Y-46722438D01*
X78230476Y-46722438D02*
X78278095Y-46770057D01*
X78278095Y-46770057D02*
X78325714Y-46722438D01*
X78325714Y-46722438D02*
X78278095Y-46674819D01*
X78278095Y-46674819D02*
X78278095Y-46770057D01*
X79182856Y-47008152D02*
X79182856Y-47817676D01*
X79182856Y-47817676D02*
X79135237Y-47912914D01*
X79135237Y-47912914D02*
X79087618Y-47960533D01*
X79087618Y-47960533D02*
X78992380Y-48008152D01*
X78992380Y-48008152D02*
X78849523Y-48008152D01*
X78849523Y-48008152D02*
X78754285Y-47960533D01*
X79182856Y-47627200D02*
X79087618Y-47674819D01*
X79087618Y-47674819D02*
X78897142Y-47674819D01*
X78897142Y-47674819D02*
X78801904Y-47627200D01*
X78801904Y-47627200D02*
X78754285Y-47579580D01*
X78754285Y-47579580D02*
X78706666Y-47484342D01*
X78706666Y-47484342D02*
X78706666Y-47198628D01*
X78706666Y-47198628D02*
X78754285Y-47103390D01*
X78754285Y-47103390D02*
X78801904Y-47055771D01*
X78801904Y-47055771D02*
X78897142Y-47008152D01*
X78897142Y-47008152D02*
X79087618Y-47008152D01*
X79087618Y-47008152D02*
X79182856Y-47055771D01*
X79659047Y-47674819D02*
X79659047Y-46674819D01*
X80087618Y-47674819D02*
X80087618Y-47151009D01*
X80087618Y-47151009D02*
X80039999Y-47055771D01*
X80039999Y-47055771D02*
X79944761Y-47008152D01*
X79944761Y-47008152D02*
X79801904Y-47008152D01*
X79801904Y-47008152D02*
X79706666Y-47055771D01*
X79706666Y-47055771D02*
X79659047Y-47103390D01*
X80420952Y-47008152D02*
X80801904Y-47008152D01*
X80563809Y-46674819D02*
X80563809Y-47531961D01*
X80563809Y-47531961D02*
X80611428Y-47627200D01*
X80611428Y-47627200D02*
X80706666Y-47674819D01*
X80706666Y-47674819D02*
X80801904Y-47674819D01*
X81659047Y-47674819D02*
X81087619Y-47674819D01*
X81373333Y-47674819D02*
X81373333Y-46674819D01*
X81373333Y-46674819D02*
X81278095Y-46817676D01*
X81278095Y-46817676D02*
X81182857Y-46912914D01*
X81182857Y-46912914D02*
X81087619Y-46960533D01*
D11*
X53400000Y-43230000D02*
X52070000Y-43230000D01*
X53400000Y-41900000D02*
X53400000Y-43230000D01*
X53400000Y-40630000D02*
X53400000Y-32950000D01*
X53400000Y-40630000D02*
X50740000Y-40630000D01*
X53400000Y-32950000D02*
X50740000Y-32950000D01*
X50740000Y-40630000D02*
X50740000Y-32950000D01*
X31750000Y-45720000D02*
X30480000Y-45720000D01*
X31750000Y-44450000D02*
X31750000Y-45720000D01*
X29437071Y-42290000D02*
X29040000Y-42290000D01*
X29437071Y-41530000D02*
X29040000Y-41530000D01*
X29437071Y-39750000D02*
X29040000Y-39750000D01*
X29437071Y-38990000D02*
X29040000Y-38990000D01*
X29437071Y-37210000D02*
X29040000Y-37210000D01*
X29437071Y-36450000D02*
X29040000Y-36450000D01*
X29437071Y-34670000D02*
X29040000Y-34670000D01*
X29437071Y-33910000D02*
X29040000Y-33910000D01*
X29370000Y-44830000D02*
X29040000Y-44830000D01*
X29370000Y-44070000D02*
X29040000Y-44070000D01*
X29040000Y-45780000D02*
X29040000Y-32960000D01*
X29040000Y-43180000D02*
X26380000Y-43180000D01*
X29040000Y-40640000D02*
X26380000Y-40640000D01*
X29040000Y-38100000D02*
X26380000Y-38100000D01*
X29040000Y-35560000D02*
X26380000Y-35560000D01*
X29040000Y-32960000D02*
X26380000Y-32960000D01*
X26380000Y-45780000D02*
X29040000Y-45780000D01*
X26380000Y-44830000D02*
X20380000Y-44830000D01*
X26380000Y-44770000D02*
X20380000Y-44770000D01*
X26380000Y-44650000D02*
X20380000Y-44650000D01*
X26380000Y-44530000D02*
X20380000Y-44530000D01*
X26380000Y-44410000D02*
X20380000Y-44410000D01*
X26380000Y-44290000D02*
X20380000Y-44290000D01*
X26380000Y-44170000D02*
X20380000Y-44170000D01*
X26380000Y-42290000D02*
X20380000Y-42290000D01*
X26380000Y-39750000D02*
X20380000Y-39750000D01*
X26380000Y-37210000D02*
X20380000Y-37210000D01*
X26380000Y-34670000D02*
X20380000Y-34670000D01*
X26380000Y-32960000D02*
X26380000Y-45780000D01*
X20380000Y-44830000D02*
X20380000Y-44070000D01*
X20380000Y-44070000D02*
X26380000Y-44070000D01*
X20380000Y-42290000D02*
X20380000Y-41530000D01*
X20380000Y-41530000D02*
X26380000Y-41530000D01*
X20380000Y-39750000D02*
X20380000Y-38990000D01*
X20380000Y-38990000D02*
X26380000Y-38990000D01*
X20380000Y-37210000D02*
X20380000Y-36450000D01*
X20380000Y-36450000D02*
X26380000Y-36450000D01*
X20380000Y-34670000D02*
X20380000Y-33910000D01*
X20380000Y-33910000D02*
X26380000Y-33910000D01*
X43240000Y-54550000D02*
X43240000Y-55880000D01*
X41910000Y-54550000D02*
X43240000Y-54550000D01*
X40640000Y-54550000D02*
X32960000Y-54550000D01*
X40640000Y-54550000D02*
X40640000Y-57210000D01*
X32960000Y-54550000D02*
X32960000Y-57210000D01*
X40640000Y-57210000D02*
X32960000Y-57210000D01*
X29150000Y-83750000D02*
X41970000Y-83750000D01*
X29150000Y-83750000D02*
X29150000Y-75120000D01*
X29270000Y-83750000D02*
X29270000Y-75120000D01*
X29388095Y-83750000D02*
X29388095Y-75120000D01*
X29506190Y-83750000D02*
X29506190Y-75120000D01*
X29624285Y-83750000D02*
X29624285Y-75120000D01*
X29742380Y-83750000D02*
X29742380Y-75120000D01*
X29860475Y-83750000D02*
X29860475Y-75120000D01*
X29978570Y-83750000D02*
X29978570Y-75120000D01*
X30096665Y-83750000D02*
X30096665Y-75120000D01*
X30214760Y-83750000D02*
X30214760Y-75120000D01*
X30332855Y-83750000D02*
X30332855Y-75120000D01*
X30450950Y-83750000D02*
X30450950Y-75120000D01*
X30569045Y-83750000D02*
X30569045Y-75120000D01*
X30687140Y-83750000D02*
X30687140Y-75120000D01*
X30805235Y-83750000D02*
X30805235Y-75120000D01*
X30923330Y-83750000D02*
X30923330Y-75120000D01*
X31041425Y-83750000D02*
X31041425Y-75120000D01*
X31159520Y-83750000D02*
X31159520Y-75120000D01*
X31277615Y-83750000D02*
X31277615Y-75120000D01*
X31395710Y-83750000D02*
X31395710Y-75120000D01*
X31513805Y-83750000D02*
X31513805Y-75120000D01*
X31631900Y-83750000D02*
X31631900Y-75120000D01*
X31750000Y-83750000D02*
X31750000Y-75120000D01*
X34290000Y-83750000D02*
X34290000Y-75120000D01*
X36830000Y-83750000D02*
X36830000Y-75120000D01*
X39370000Y-83750000D02*
X39370000Y-75120000D01*
X41970000Y-83750000D02*
X41970000Y-75120000D01*
X29150000Y-75120000D02*
X41970000Y-75120000D01*
X30120000Y-75120000D02*
X30120000Y-74770000D01*
X30840000Y-75120000D02*
X30840000Y-74770000D01*
X32660000Y-75120000D02*
X32660000Y-74710000D01*
X33380000Y-75120000D02*
X33380000Y-74710000D01*
X35200000Y-75120000D02*
X35200000Y-74710000D01*
X35920000Y-75120000D02*
X35920000Y-74710000D01*
X37740000Y-75120000D02*
X37740000Y-74710000D01*
X38460000Y-75120000D02*
X38460000Y-74710000D01*
X40280000Y-75120000D02*
X40280000Y-74710000D01*
X41000000Y-75120000D02*
X41000000Y-74710000D01*
X29150000Y-73660000D02*
X29150000Y-72550000D01*
X29150000Y-72550000D02*
X30480000Y-72550000D01*
X67080000Y-30480000D02*
X67730000Y-30480000D01*
X67730000Y-29360000D02*
X67730000Y-31600000D01*
X67730000Y-31600000D02*
X71970000Y-31600000D01*
X68330000Y-29360000D02*
X68330000Y-31600000D01*
X68450000Y-29360000D02*
X68450000Y-31600000D01*
X68570000Y-29360000D02*
X68570000Y-31600000D01*
X71970000Y-29360000D02*
X67730000Y-29360000D01*
X71970000Y-31600000D02*
X71970000Y-29360000D01*
X72620000Y-30480000D02*
X71970000Y-30480000D01*
X29210000Y-31750000D02*
X29210000Y-30480000D01*
X30480000Y-31750000D02*
X29210000Y-31750000D01*
X32640000Y-29437071D02*
X32640000Y-29040000D01*
X33400000Y-29437071D02*
X33400000Y-29040000D01*
X35180000Y-29437071D02*
X35180000Y-29040000D01*
X35940000Y-29437071D02*
X35940000Y-29040000D01*
X37720000Y-29437071D02*
X37720000Y-29040000D01*
X38480000Y-29437071D02*
X38480000Y-29040000D01*
X40260000Y-29437071D02*
X40260000Y-29040000D01*
X41020000Y-29437071D02*
X41020000Y-29040000D01*
X30100000Y-29370000D02*
X30100000Y-29040000D01*
X30860000Y-29370000D02*
X30860000Y-29040000D01*
X29150000Y-29040000D02*
X41970000Y-29040000D01*
X31750000Y-29040000D02*
X31750000Y-26380000D01*
X34290000Y-29040000D02*
X34290000Y-26380000D01*
X36830000Y-29040000D02*
X36830000Y-26380000D01*
X39370000Y-29040000D02*
X39370000Y-26380000D01*
X41970000Y-29040000D02*
X41970000Y-26380000D01*
X29150000Y-26380000D02*
X29150000Y-29040000D01*
X30100000Y-26380000D02*
X30100000Y-20380000D01*
X30160000Y-26380000D02*
X30160000Y-20380000D01*
X30280000Y-26380000D02*
X30280000Y-20380000D01*
X30400000Y-26380000D02*
X30400000Y-20380000D01*
X30520000Y-26380000D02*
X30520000Y-20380000D01*
X30640000Y-26380000D02*
X30640000Y-20380000D01*
X30760000Y-26380000D02*
X30760000Y-20380000D01*
X32640000Y-26380000D02*
X32640000Y-20380000D01*
X35180000Y-26380000D02*
X35180000Y-20380000D01*
X37720000Y-26380000D02*
X37720000Y-20380000D01*
X40260000Y-26380000D02*
X40260000Y-20380000D01*
X41970000Y-26380000D02*
X29150000Y-26380000D01*
X30100000Y-20380000D02*
X30860000Y-20380000D01*
X30860000Y-20380000D02*
X30860000Y-26380000D01*
X32640000Y-20380000D02*
X33400000Y-20380000D01*
X33400000Y-20380000D02*
X33400000Y-26380000D01*
X35180000Y-20380000D02*
X35940000Y-20380000D01*
X35940000Y-20380000D02*
X35940000Y-26380000D01*
X37720000Y-20380000D02*
X38480000Y-20380000D01*
X38480000Y-20380000D02*
X38480000Y-26380000D01*
X40260000Y-20380000D02*
X41020000Y-20380000D01*
X41020000Y-20380000D02*
X41020000Y-26380000D01*
X54550000Y-60900000D02*
X55880000Y-60900000D01*
X54550000Y-62230000D02*
X54550000Y-60900000D01*
X54550000Y-63500000D02*
X54550000Y-71180000D01*
X54550000Y-63500000D02*
X57210000Y-63500000D01*
X54550000Y-71180000D02*
X57210000Y-71180000D01*
X57210000Y-63500000D02*
X57210000Y-71180000D01*
X50816700Y-60900000D02*
X52146700Y-60900000D01*
X50816700Y-62230000D02*
X50816700Y-60900000D01*
X50816700Y-63500000D02*
X50816700Y-71180000D01*
X50816700Y-63500000D02*
X53476700Y-63500000D01*
X50816700Y-71180000D02*
X53476700Y-71180000D01*
X53476700Y-63500000D02*
X53476700Y-71180000D01*
X83750000Y-45780000D02*
X83750000Y-32960000D01*
X83750000Y-45780000D02*
X75120000Y-45780000D01*
X83750000Y-45660000D02*
X75120000Y-45660000D01*
X83750000Y-45541905D02*
X75120000Y-45541905D01*
X83750000Y-45423810D02*
X75120000Y-45423810D01*
X83750000Y-45305715D02*
X75120000Y-45305715D01*
X83750000Y-45187620D02*
X75120000Y-45187620D01*
X83750000Y-45069525D02*
X75120000Y-45069525D01*
X83750000Y-44951430D02*
X75120000Y-44951430D01*
X83750000Y-44833335D02*
X75120000Y-44833335D01*
X83750000Y-44715240D02*
X75120000Y-44715240D01*
X83750000Y-44597145D02*
X75120000Y-44597145D01*
X83750000Y-44479050D02*
X75120000Y-44479050D01*
X83750000Y-44360955D02*
X75120000Y-44360955D01*
X83750000Y-44242860D02*
X75120000Y-44242860D01*
X83750000Y-44124765D02*
X75120000Y-44124765D01*
X83750000Y-44006670D02*
X75120000Y-44006670D01*
X83750000Y-43888575D02*
X75120000Y-43888575D01*
X83750000Y-43770480D02*
X75120000Y-43770480D01*
X83750000Y-43652385D02*
X75120000Y-43652385D01*
X83750000Y-43534290D02*
X75120000Y-43534290D01*
X83750000Y-43416195D02*
X75120000Y-43416195D01*
X83750000Y-43298100D02*
X75120000Y-43298100D01*
X83750000Y-43180000D02*
X75120000Y-43180000D01*
X83750000Y-40640000D02*
X75120000Y-40640000D01*
X83750000Y-38100000D02*
X75120000Y-38100000D01*
X83750000Y-35560000D02*
X75120000Y-35560000D01*
X83750000Y-32960000D02*
X75120000Y-32960000D01*
X75120000Y-45780000D02*
X75120000Y-32960000D01*
X75120000Y-44810000D02*
X74770000Y-44810000D01*
X75120000Y-44090000D02*
X74770000Y-44090000D01*
X75120000Y-42270000D02*
X74710000Y-42270000D01*
X75120000Y-41550000D02*
X74710000Y-41550000D01*
X75120000Y-39730000D02*
X74710000Y-39730000D01*
X75120000Y-39010000D02*
X74710000Y-39010000D01*
X75120000Y-37190000D02*
X74710000Y-37190000D01*
X75120000Y-36470000D02*
X74710000Y-36470000D01*
X75120000Y-34650000D02*
X74710000Y-34650000D01*
X75120000Y-33930000D02*
X74710000Y-33930000D01*
X73660000Y-45780000D02*
X72550000Y-45780000D01*
X72550000Y-45780000D02*
X72550000Y-44450000D01*
X60900000Y-53400000D02*
X60900000Y-52070000D01*
X62230000Y-53400000D02*
X60900000Y-53400000D01*
X63500000Y-53400000D02*
X71180000Y-53400000D01*
X63500000Y-53400000D02*
X63500000Y-50740000D01*
X71180000Y-53400000D02*
X71180000Y-50740000D01*
X63500000Y-50740000D02*
X71180000Y-50740000D01*
X49590000Y-43230000D02*
X48260000Y-43230000D01*
X49590000Y-41900000D02*
X49590000Y-43230000D01*
X49590000Y-40630000D02*
X49590000Y-32950000D01*
X49590000Y-40630000D02*
X46930000Y-40630000D01*
X49590000Y-32950000D02*
X46930000Y-32950000D01*
X46930000Y-40630000D02*
X46930000Y-32950000D01*
X43240000Y-50740000D02*
X43240000Y-52070000D01*
X41910000Y-50740000D02*
X43240000Y-50740000D01*
X40640000Y-50740000D02*
X32960000Y-50740000D01*
X40640000Y-50740000D02*
X40640000Y-53400000D01*
X32960000Y-50740000D02*
X32960000Y-53400000D01*
X40640000Y-53400000D02*
X32960000Y-53400000D01*
X60900000Y-49590000D02*
X60900000Y-48260000D01*
X62230000Y-49590000D02*
X60900000Y-49590000D01*
X63500000Y-49590000D02*
X71180000Y-49590000D01*
X63500000Y-49590000D02*
X63500000Y-46930000D01*
X71180000Y-49590000D02*
X71180000Y-46930000D01*
X63500000Y-46930000D02*
X71180000Y-46930000D01*
%LPC*%
D12*
X52070000Y-41900000D03*
D13*
X52070000Y-39360000D03*
X52070000Y-36820000D03*
X52070000Y-34280000D03*
D14*
X30480000Y-44450000D03*
D13*
X30480000Y-41910000D03*
X30480000Y-39370000D03*
X30480000Y-36830000D03*
X30480000Y-34290000D03*
D12*
X41910000Y-55880000D03*
D13*
X39370000Y-55880000D03*
X36830000Y-55880000D03*
X34290000Y-55880000D03*
D14*
X30480000Y-73660000D03*
D13*
X33020000Y-73660000D03*
X35560000Y-73660000D03*
X38100000Y-73660000D03*
X40640000Y-73660000D03*
D15*
X66040000Y-30480000D03*
D16*
X73660000Y-30480000D03*
D14*
X30480000Y-30480000D03*
D13*
X33020000Y-30480000D03*
X35560000Y-30480000D03*
X38100000Y-30480000D03*
X40640000Y-30480000D03*
D12*
X55880000Y-62230000D03*
D13*
X55880000Y-64770000D03*
X55880000Y-67310000D03*
X55880000Y-69850000D03*
D12*
X52146700Y-62230000D03*
D13*
X52146700Y-64770000D03*
X52146700Y-67310000D03*
X52146700Y-69850000D03*
D14*
X73660000Y-44450000D03*
D13*
X73660000Y-41910000D03*
X73660000Y-39370000D03*
X73660000Y-36830000D03*
X73660000Y-34290000D03*
D12*
X62230000Y-52070000D03*
D13*
X64770000Y-52070000D03*
X67310000Y-52070000D03*
X69850000Y-52070000D03*
D12*
X48260000Y-41900000D03*
D13*
X48260000Y-39360000D03*
X48260000Y-36820000D03*
X48260000Y-34280000D03*
D12*
X41910000Y-52070000D03*
D13*
X39370000Y-52070000D03*
X36830000Y-52070000D03*
X34290000Y-52070000D03*
D12*
X62230000Y-48260000D03*
D13*
X64770000Y-48260000D03*
X67310000Y-48260000D03*
X69850000Y-48260000D03*
%LPD*%
M02*
