%TF.GenerationSoftware,KiCad,Pcbnew,7.0.7*%
%TF.CreationDate,2024-02-28T11:49:30+01:00*%
%TF.ProjectId,bottom_test,626f7474-6f6d-45f7-9465-73742e6b6963,rev?*%
%TF.SameCoordinates,Original*%
%TF.FileFunction,Drillmap*%
%TF.FilePolarity,Positive*%
%FSLAX45Y45*%
G04 Gerber Fmt 4.5, Leading zero omitted, Abs format (unit mm)*
G04 Created by KiCad (PCBNEW 7.0.7) date 2024-02-28 11:49:30*
%MOMM*%
%LPD*%
G01*
G04 APERTURE LIST*
%ADD10C,0.200000*%
G04 APERTURE END LIST*
D10*
X2794000Y-2794000D02*
X7620000Y-2794000D01*
X7620000Y-7620000D01*
X2794000Y-7620000D01*
X2794000Y-2794000D01*
X3044777Y-7941484D02*
X3044777Y-7741484D01*
X3044777Y-7741484D02*
X3092396Y-7741484D01*
X3092396Y-7741484D02*
X3120967Y-7751008D01*
X3120967Y-7751008D02*
X3140015Y-7770055D01*
X3140015Y-7770055D02*
X3149539Y-7789103D01*
X3149539Y-7789103D02*
X3159062Y-7827198D01*
X3159062Y-7827198D02*
X3159062Y-7855769D01*
X3159062Y-7855769D02*
X3149539Y-7893865D01*
X3149539Y-7893865D02*
X3140015Y-7912912D01*
X3140015Y-7912912D02*
X3120967Y-7931960D01*
X3120967Y-7931960D02*
X3092396Y-7941484D01*
X3092396Y-7941484D02*
X3044777Y-7941484D01*
X3244777Y-7941484D02*
X3244777Y-7808150D01*
X3244777Y-7846246D02*
X3254301Y-7827198D01*
X3254301Y-7827198D02*
X3263824Y-7817674D01*
X3263824Y-7817674D02*
X3282872Y-7808150D01*
X3282872Y-7808150D02*
X3301920Y-7808150D01*
X3368586Y-7941484D02*
X3368586Y-7808150D01*
X3368586Y-7741484D02*
X3359062Y-7751008D01*
X3359062Y-7751008D02*
X3368586Y-7760531D01*
X3368586Y-7760531D02*
X3378110Y-7751008D01*
X3378110Y-7751008D02*
X3368586Y-7741484D01*
X3368586Y-7741484D02*
X3368586Y-7760531D01*
X3492396Y-7941484D02*
X3473348Y-7931960D01*
X3473348Y-7931960D02*
X3463824Y-7912912D01*
X3463824Y-7912912D02*
X3463824Y-7741484D01*
X3597158Y-7941484D02*
X3578110Y-7931960D01*
X3578110Y-7931960D02*
X3568586Y-7912912D01*
X3568586Y-7912912D02*
X3568586Y-7741484D01*
X3825729Y-7941484D02*
X3825729Y-7741484D01*
X3825729Y-7741484D02*
X3892396Y-7884341D01*
X3892396Y-7884341D02*
X3959062Y-7741484D01*
X3959062Y-7741484D02*
X3959062Y-7941484D01*
X4140015Y-7941484D02*
X4140015Y-7836722D01*
X4140015Y-7836722D02*
X4130491Y-7817674D01*
X4130491Y-7817674D02*
X4111443Y-7808150D01*
X4111443Y-7808150D02*
X4073348Y-7808150D01*
X4073348Y-7808150D02*
X4054301Y-7817674D01*
X4140015Y-7931960D02*
X4120967Y-7941484D01*
X4120967Y-7941484D02*
X4073348Y-7941484D01*
X4073348Y-7941484D02*
X4054301Y-7931960D01*
X4054301Y-7931960D02*
X4044777Y-7912912D01*
X4044777Y-7912912D02*
X4044777Y-7893865D01*
X4044777Y-7893865D02*
X4054301Y-7874817D01*
X4054301Y-7874817D02*
X4073348Y-7865293D01*
X4073348Y-7865293D02*
X4120967Y-7865293D01*
X4120967Y-7865293D02*
X4140015Y-7855769D01*
X4235253Y-7808150D02*
X4235253Y-8008150D01*
X4235253Y-7817674D02*
X4254301Y-7808150D01*
X4254301Y-7808150D02*
X4292396Y-7808150D01*
X4292396Y-7808150D02*
X4311444Y-7817674D01*
X4311444Y-7817674D02*
X4320967Y-7827198D01*
X4320967Y-7827198D02*
X4330491Y-7846246D01*
X4330491Y-7846246D02*
X4330491Y-7903388D01*
X4330491Y-7903388D02*
X4320967Y-7922436D01*
X4320967Y-7922436D02*
X4311444Y-7931960D01*
X4311444Y-7931960D02*
X4292396Y-7941484D01*
X4292396Y-7941484D02*
X4254301Y-7941484D01*
X4254301Y-7941484D02*
X4235253Y-7931960D01*
X4416205Y-7922436D02*
X4425729Y-7931960D01*
X4425729Y-7931960D02*
X4416205Y-7941484D01*
X4416205Y-7941484D02*
X4406682Y-7931960D01*
X4406682Y-7931960D02*
X4416205Y-7922436D01*
X4416205Y-7922436D02*
X4416205Y-7941484D01*
X4416205Y-7817674D02*
X4425729Y-7827198D01*
X4425729Y-7827198D02*
X4416205Y-7836722D01*
X4416205Y-7836722D02*
X4406682Y-7827198D01*
X4406682Y-7827198D02*
X4416205Y-7817674D01*
X4416205Y-7817674D02*
X4416205Y-7836722D01*
M02*
