{"asset":{"version":"2.0","generator":"VECTARY"},"nodes":[{"translation":[0,-1.7053025658242405e-16,1],"scale":[0.001,0.0010000000000000002,0.0010000000000000002],"rotation":[-1,0,0,2.220446049250313e-16],"name":"Doppelspalt-Exp_Lichtquelle v3","children":[1,2,3,4]},{"translation":[0,0,0],"scale":[1,1,1],"rotation":[0.7071067811865475,0,0,0.7071067811865476],"name":"Body1","mesh":0},{"translation":[0,0,0],"scale":[1,1,1],"rotation":[0.7071067811865475,0,0,0.7071067811865476],"name":"Body1:1","mesh":1},{"translation":[0,0,0],"scale":[1,1,1],"rotation":[0.7071067811865475,0,0,0.7071067811865476],"name":"Body2","mesh":2},{"translation":[0,0,0],"scale":[1,1,1],"rotation":[0.7071067811865475,0,0,0.7071067811865476],"name":"Body3","mesh":3},{"translation":[0,1.7053025658242405e-16,-1],"scale":[0.001,0.001,0.001],"rotation":[-1,0,0,2.220446049250313e-16],"name":"Doppelspalt-Exp_Spaltteil v2","children":[6,7,8,9,10,11,12]},{"translation":[0,0,0],"scale":[1,1,1],"rotation":[0.7071067811865475,0,0,0.7071067811865476],"name":"Body1","mesh":4},{"translation":[0,0,0],"scale":[1,1,1],"rotation":[0.7071067811865475,0,0,0.7071067811865476],"name":"Bodenplatte","mesh":5},{"translation":[0,0,0],"scale":[1,1,1],"rotation":[0.7071067811865475,0,0,0.7071067811865476],"name":"KastenMitÖffnungen","mesh":6},{"translation":[0,0,0],"scale":[1,1,1],"rotation":[0.7071067811865475,0,0,0.7071067811865476],"name":"RechteÖffnungL","mesh":7},{"translation":[0,0,0],"scale":[1,1,1],"rotation":[0.7071067811865475,0,0,0.7071067811865476],"name":"RechteÖffnungR","mesh":8},{"translation":[0,0,0],"scale":[1,1,1],"rotation":[0.7071067811865475,0,0,0.7071067811865476],"name":"LinkeÖffnungR","mesh":9},{"translation":[0,0,0],"scale":[1,1,1],"rotation":[0.7071067811865475,0,0,0.7071067811865476],"name":"LinkeÖffnungL","mesh":10}],"materials":[{"pbrMetallicRoughness":{"baseColorFactor":[0.7372047873606051,0.48776520187781053,0.24680041960155044,1],"metallicFactor":0,"roughnessFactor":0.2},"name":"Day Glow","emissiveFactor":[0,0,0],"extensions":{},"alphaMode":"OPAQUE","doubleSided":false},{"pbrMetallicRoughness":{"baseColorFactor":[0.907547199521614,0.37867625092984036,0.11657577617857154,1],"metallicFactor":0,"roughnessFactor":0.2},"name":"Twilight","emissiveFactor":[0,0,0],"extensions":{},"alphaMode":"OPAQUE","doubleSided":false},{"pbrMetallicRoughness":{"baseColorFactor":[0.5356416093153108,0.5356416093153108,0.5356416093153108,1],"metallicFactor":0,"roughnessFactor":0.2},"name":"Spicy Mix","emissiveFactor":[0,0,0],"extensions":{},"alphaMode":"OPAQUE","doubleSided":false},{"pbrMetallicRoughness":{"baseColorFactor":[0.02422294206753424,0.07592611945626479,0.07592611945626479,1],"metallicFactor":0,"roughnessFactor":0.2},"name":"Zuni","emissiveFactor":[0,0,0],"extensions":{},"alphaMode":"OPAQUE","doubleSided":false},{"pbrMetallicRoughness":{"baseColorFactor":[0.7372047873606051,0.48776520187781053,0.24680041960155044,1],"metallicFactor":0,"roughnessFactor":0.2},"name":"Aquarius","emissiveFactor":[0,0,0],"extensions":{},"alphaMode":"OPAQUE","doubleSided":false},{"pbrMetallicRoughness":{"baseColorFactor":[0.907547199521614,0.37867625092984036,0.11657577617857154,1],"metallicFactor":0,"roughnessFactor":0.2},"name":"Aero","emissiveFactor":[0,0,0],"extensions":{},"alphaMode":"OPAQUE","doubleSided":false},{"pbrMetallicRoughness":{"baseColorFactor":[0.14198029068573553,0.14198029068573553,0.14198029068573553,1],"metallicFactor":0,"roughnessFactor":0.2},"name":"California Dream","emissiveFactor":[0,0,0],"extensions":{},"alphaMode":"OPAQUE","doubleSided":false},{"pbrMetallicRoughness":{"baseColorFactor":[0.8670237934377415,0.8670237934377415,0.8670237934377415,1],"metallicFactor":0,"roughnessFactor":0.2},"name":"Cosmic Dust","emissiveFactor":[0,0,0],"extensions":{},"alphaMode":"OPAQUE","doubleSided":false},{"pbrMetallicRoughness":{"baseColorFactor":[0.8670237934377415,0.8670237934377415,0.8670237934377415,1],"metallicFactor":0,"roughnessFactor":0.2},"name":"Amulet","emissiveFactor":[0,0,0],"extensions":{},"alphaMode":"OPAQUE","doubleSided":false},{"pbrMetallicRoughness":{"baseColorFactor":[0.8670237934377415,0.8670237934377415,0.8670237934377415,1],"metallicFactor":0,"roughnessFactor":0.2},"name":"Morning Shine","emissiveFactor":[0,0,0],"extensions":{},"alphaMode":"OPAQUE","doubleSided":false},{"pbrMetallicRoughness":{"baseColorFactor":[0.8670237934377415,0.8670237934377415,0.8670237934377415,1],"metallicFactor":0,"roughnessFactor":0.2},"name":"Emerald Dream","emissiveFactor":[0,0,0],"extensions":{},"alphaMode":"OPAQUE","doubleSided":false}],"meshes":[{"primitives":[{"mode":4,"attributes":{"POSITION":1,"NORMAL":2,"TEXCOORD_0":3},"material":0,"indices":0}]},{"primitives":[{"mode":4,"attributes":{"POSITION":5,"NORMAL":6,"TEXCOORD_0":7},"material":1,"indices":4}]},{"primitives":[{"mode":4,"attributes":{"POSITION":9,"NORMAL":10,"TEXCOORD_0":11},"material":2,"indices":8}]},{"primitives":[{"mode":4,"attributes":{"POSITION":13,"NORMAL":14,"TEXCOORD_0":15},"material":3,"indices":12}]},{"primitives":[{"mode":4,"attributes":{"POSITION":17,"NORMAL":18,"TEXCOORD_0":19},"material":4,"indices":16}]},{"primitives":[{"mode":4,"attributes":{"POSITION":21,"NORMAL":22,"TEXCOORD_0":23},"material":5,"indices":20}]},{"primitives":[{"mode":4,"attributes":{"POSITION":25,"NORMAL":26,"TEXCOORD_0":27},"material":6,"indices":24}]},{"primitives":[{"mode":4,"attributes":{"POSITION":29,"NORMAL":30,"TEXCOORD_0":31},"material":7,"indices":28}]},{"primitives":[{"mode":4,"attributes":{"POSITION":33,"NORMAL":34,"TEXCOORD_0":35},"material":8,"indices":32}]},{"primitives":[{"mode":4,"attributes":{"POSITION":37,"NORMAL":38,"TEXCOORD_0":39},"material":9,"indices":36}]},{"primitives":[{"mode":4,"attributes":{"POSITION":41,"NORMAL":42,"TEXCOORD_0":43},"material":10,"indices":40}]}],"accessors":[{"bufferView":0,"byteOffset":0,"componentType":5125,"count":588,"type":"SCALAR"},{"bufferView":1,"byteOffset":0,"componentType":5126,"count":252,"max":[360,250,1060],"min":[-360,-250,0],"type":"VEC3"},{"bufferView":2,"byteOffset":0,"componentType":5126,"count":252,"type":"VEC3"},{"bufferView":3,"byteOffset":0,"componentType":5126,"count":252,"type":"VEC2"},{"bufferView":4,"byteOffset":0,"componentType":5125,"count":36,"type":"SCALAR"},{"bufferView":5,"byteOffset":0,"componentType":5126,"count":24,"max":[438,129,1078],"min":[-438,-129,1060],"type":"VEC3"},{"bufferView":6,"byteOffset":0,"componentType":5126,"count":24,"type":"VEC3"},{"bufferView":7,"byteOffset":0,"componentType":5126,"count":24,"type":"VEC2"},{"bufferView":8,"byteOffset":0,"componentType":5125,"count":36,"type":"SCALAR"},{"bufferView":9,"byteOffset":0,"componentType":5126,"count":24,"max":[115,210,1308],"min":[-115,-210,1078],"type":"VEC3"},{"bufferView":10,"byteOffset":0,"componentType":5126,"count":24,"type":"VEC3"},{"bufferView":11,"byteOffset":0,"componentType":5126,"count":24,"type":"VEC2"},{"bufferView":12,"byteOffset":0,"componentType":5125,"count":456,"type":"SCALAR"},{"bufferView":13,"byteOffset":0,"componentType":5126,"count":158,"max":[60,310,1252.9512939453125],"min":[-59.80543899536133,210,1133.0487060546875],"type":"VEC3"},{"bufferView":14,"byteOffset":0,"componentType":5126,"count":158,"type":"VEC3"},{"bufferView":15,"byteOffset":0,"componentType":5126,"count":158,"type":"VEC2"},{"bufferView":16,"byteOffset":0,"componentType":5125,"count":588,"type":"SCALAR"},{"bufferView":17,"byteOffset":0,"componentType":5126,"count":252,"max":[360,250,1060],"min":[-360,-250,0],"type":"VEC3"},{"bufferView":18,"byteOffset":0,"componentType":5126,"count":252,"type":"VEC3"},{"bufferView":19,"byteOffset":0,"componentType":5126,"count":252,"type":"VEC2"},{"bufferView":20,"byteOffset":0,"componentType":5125,"count":36,"type":"SCALAR"},{"bufferView":21,"byteOffset":0,"componentType":5126,"count":24,"max":[382.5,85,1078],"min":[-382.5,-85,1060],"type":"VEC3"},{"bufferView":22,"byteOffset":0,"componentType":5126,"count":24,"type":"VEC3"},{"bufferView":23,"byteOffset":0,"componentType":5126,"count":24,"type":"VEC2"},{"bufferView":24,"byteOffset":0,"componentType":5125,"count":156,"type":"SCALAR"},{"bufferView":25,"byteOffset":0,"componentType":5126,"count":72,"max":[277.5,30,1498],"min":[-277.5,-30,1078],"type":"VEC3"},{"bufferView":26,"byteOffset":0,"componentType":5126,"count":72,"type":"VEC3"},{"bufferView":27,"byteOffset":0,"componentType":5126,"count":72,"type":"VEC2"},{"bufferView":28,"byteOffset":0,"componentType":5125,"count":36,"type":"SCALAR"},{"bufferView":29,"byteOffset":0,"componentType":5126,"count":24,"max":[33,10,1429],"min":[-31,-10,1147],"type":"VEC3"},{"bufferView":30,"byteOffset":0,"componentType":5126,"count":24,"type":"VEC3"},{"bufferView":31,"byteOffset":0,"componentType":5126,"count":24,"type":"VEC2"},{"bufferView":32,"byteOffset":0,"componentType":5125,"count":36,"type":"SCALAR"},{"bufferView":33,"byteOffset":0,"componentType":5126,"count":24,"max":[207,10,1429],"min":[117,-10,1147],"type":"VEC3"},{"bufferView":34,"byteOffset":0,"componentType":5126,"count":24,"type":"VEC3"},{"bufferView":35,"byteOffset":0,"componentType":5126,"count":24,"type":"VEC2"},{"bufferView":36,"byteOffset":0,"componentType":5125,"count":36,"type":"SCALAR"},{"bufferView":37,"byteOffset":0,"componentType":5126,"count":24,"max":[31,10,1429],"min":[-33,-10,1147],"type":"VEC3"},{"bufferView":38,"byteOffset":0,"componentType":5126,"count":24,"type":"VEC3"},{"bufferView":39,"byteOffset":0,"componentType":5126,"count":24,"type":"VEC2"},{"bufferView":40,"byteOffset":0,"componentType":5125,"count":36,"type":"SCALAR"},{"bufferView":41,"byteOffset":0,"componentType":5126,"count":24,"max":[-117,10,1429],"min":[-207,-10,1147],"type":"VEC3"},{"bufferView":42,"byteOffset":0,"componentType":5126,"count":24,"type":"VEC3"},{"bufferView":43,"byteOffset":0,"componentType":5126,"count":24,"type":"VEC2"}],"bufferViews":[{"buffer":0,"byteOffset":0,"byteLength":2352,"target":34963},{"buffer":0,"byteOffset":2352,"byteLength":3024,"target":34962},{"buffer":0,"byteOffset":5376,"byteLength":3024,"target":34962},{"buffer":0,"byteOffset":8400,"byteLength":2016,"target":34962},{"buffer":0,"byteOffset":10416,"byteLength":144,"target":34963},{"buffer":0,"byteOffset":10560,"byteLength":288,"target":34962},{"buffer":0,"byteOffset":10848,"byteLength":288,"target":34962},{"buffer":0,"byteOffset":11136,"byteLength":192,"target":34962},{"buffer":0,"byteOffset":11328,"byteLength":144,"target":34963},{"buffer":0,"byteOffset":11472,"byteLength":288,"target":34962},{"buffer":0,"byteOffset":11760,"byteLength":288,"target":34962},{"buffer":0,"byteOffset":12048,"byteLength":192,"target":34962},{"buffer":0,"byteOffset":12240,"byteLength":1824,"target":34963},{"buffer":0,"byteOffset":14064,"byteLength":1896,"target":34962},{"buffer":0,"byteOffset":15960,"byteLength":1896,"target":34962},{"buffer":0,"byteOffset":17856,"byteLength":1264,"target":34962},{"buffer":0,"byteOffset":19120,"byteLength":2352,"target":34963},{"buffer":0,"byteOffset":21472,"byteLength":3024,"target":34962},{"buffer":0,"byteOffset":24496,"byteLength":3024,"target":34962},{"buffer":0,"byteOffset":27520,"byteLength":2016,"target":34962},{"buffer":0,"byteOffset":29536,"byteLength":144,"target":34963},{"buffer":0,"byteOffset":29680,"byteLength":288,"target":34962},{"buffer":0,"byteOffset":29968,"byteLength":288,"target":34962},{"buffer":0,"byteOffset":30256,"byteLength":192,"target":34962},{"buffer":0,"byteOffset":30448,"byteLength":624,"target":34963},{"buffer":0,"byteOffset":31072,"byteLength":864,"target":34962},{"buffer":0,"byteOffset":31936,"byteLength":864,"target":34962},{"buffer":0,"byteOffset":32800,"byteLength":576,"target":34962},{"buffer":0,"byteOffset":33376,"byteLength":144,"target":34963},{"buffer":0,"byteOffset":33520,"byteLength":288,"target":34962},{"buffer":0,"byteOffset":33808,"byteLength":288,"target":34962},{"buffer":0,"byteOffset":34096,"byteLength":192,"target":34962},{"buffer":0,"byteOffset":34288,"byteLength":144,"target":34963},{"buffer":0,"byteOffset":34432,"byteLength":288,"target":34962},{"buffer":0,"byteOffset":34720,"byteLength":288,"target":34962},{"buffer":0,"byteOffset":35008,"byteLength":192,"target":34962},{"buffer":0,"byteOffset":35200,"byteLength":144,"target":34963},{"buffer":0,"byteOffset":35344,"byteLength":288,"target":34962},{"buffer":0,"byteOffset":35632,"byteLength":288,"target":34962},{"buffer":0,"byteOffset":35920,"byteLength":192,"target":34962},{"buffer":0,"byteOffset":36112,"byteLength":144,"target":34963},{"buffer":0,"byteOffset":36256,"byteLength":288,"target":34962},{"buffer":0,"byteOffset":36544,"byteLength":288,"target":34962},{"buffer":0,"byteOffset":36832,"byteLength":192,"target":34962}],"scene":0,"scenes":[{"nodes":[0,5],"name":"Doppelspalt-Experiment"}],"extensionsUsed":["KHR_texture_transform"],"buffers":[{"byteLength":37024,"uri":"Doppelspalt-Experiment.bin"}]}