{"asset":{"version":"2.0","generator":"VECTARY"},"nodes":[{"translation":[0,-2.6645352591003758e-18,0.014957348363297342],"scale":[0.001,0.0010000000000000002,0.0010000000000000002],"rotation":[0,0,0,1],"name":"HufeisenMagnet v2","children":[1,2]},{"translation":[0,0,0],"scale":[1,1,1],"rotation":[0.7071067811865475,0,0,0.7071067811865476],"name":"Body1","mesh":0},{"translation":[0,0,0],"scale":[1,1,1],"rotation":[0.7071067811865475,0,0,0.7071067811865476],"name":"Body2","mesh":1}],"materials":[{"pbrMetallicRoughness":{"baseColorFactor":[1,0,0,1],"metallicFactor":0,"roughnessFactor":0.2},"name":"Circus","emissiveFactor":[0,0,0],"extensions":{},"alphaMode":"OPAQUE","doubleSided":false},{"pbrMetallicRoughness":{"baseColorFactor":[0.03423020656508195,1,0,1],"metallicFactor":0,"roughnessFactor":0.2},"name":"Just Perfect","emissiveFactor":[0,0,0],"extensions":{},"alphaMode":"OPAQUE","doubleSided":false}],"meshes":[{"primitives":[{"mode":4,"attributes":{"POSITION":1,"NORMAL":2,"TEXCOORD_0":3},"material":0,"indices":0}]},{"primitives":[{"mode":4,"attributes":{"POSITION":5,"NORMAL":6,"TEXCOORD_0":7},"material":1,"indices":4}]}],"accessors":[{"bufferView":0,"byteOffset":0,"componentType":5125,"count":288,"type":"SCALAR"},{"bufferView":1,"byteOffset":0,"componentType":5126,"count":112,"max":[95,95,20],"min":[-150,0,0],"type":"VEC3"},{"bufferView":2,"byteOffset":0,"componentType":5126,"count":112,"type":"VEC3"},{"bufferView":3,"byteOffset":0,"componentType":5126,"count":112,"type":"VEC2"},{"bufferView":4,"byteOffset":0,"componentType":5125,"count":288,"type":"SCALAR"},{"bufferView":5,"byteOffset":0,"componentType":5126,"count":111,"max":[95,0,20],"min":[-150,-95,0],"type":"VEC3"},{"bufferView":6,"byteOffset":0,"componentType":5126,"count":111,"type":"VEC3"},{"bufferView":7,"byteOffset":0,"componentType":5126,"count":111,"type":"VEC2"}],"bufferViews":[{"buffer":0,"byteOffset":0,"byteLength":1152,"target":34963},{"buffer":0,"byteOffset":1152,"byteLength":1344,"target":34962},{"buffer":0,"byteOffset":2496,"byteLength":1344,"target":34962},{"buffer":0,"byteOffset":3840,"byteLength":896,"target":34962},{"buffer":0,"byteOffset":4736,"byteLength":1152,"target":34963},{"buffer":0,"byteOffset":5888,"byteLength":1332,"target":34962},{"buffer":0,"byteOffset":7220,"byteLength":1332,"target":34962},{"buffer":0,"byteOffset":8552,"byteLength":888,"target":34962}],"scene":0,"scenes":[{"nodes":[0],"name":"Hufeisen-Magnet"}],"extensionsUsed":["KHR_texture_transform"],"buffers":[{"byteLength":9440,"uri":"Hufeisen-Magnet.bin"}]}