%TF.GenerationSoftware,KiCad,Pcbnew,7.0.7*%
%TF.CreationDate,2024-02-28T11:46:37+01:00*%
%TF.ProjectId,brick_test,62726963-6b5f-4746-9573-742e6b696361,rev?*%
%TF.SameCoordinates,Original*%
%TF.FileFunction,Legend,Top*%
%TF.FilePolarity,Positive*%
%FSLAX46Y46*%
G04 Gerber Fmt 4.6, Leading zero omitted, Abs format (unit mm)*
G04 Created by KiCad (PCBNEW 7.0.7) date 2024-02-28 11:46:37*
%MOMM*%
%LPD*%
G01*
G04 APERTURE LIST*
%ADD10C,0.150000*%
%ADD11C,0.100000*%
%ADD12C,0.120000*%
%ADD13C,0.127000*%
%ADD14C,0.200000*%
%ADD15C,1.600000*%
%ADD16O,1.600000X1.600000*%
%ADD17R,1.700000X1.700000*%
%ADD18O,1.700000X1.700000*%
%ADD19R,1.530000X1.530000*%
%ADD20C,1.530000*%
%ADD21R,1.600000X1.600000*%
G04 APERTURE END LIST*
D10*
X62063333Y-57604819D02*
X61730000Y-57128628D01*
X61491905Y-57604819D02*
X61491905Y-56604819D01*
X61491905Y-56604819D02*
X61872857Y-56604819D01*
X61872857Y-56604819D02*
X61968095Y-56652438D01*
X61968095Y-56652438D02*
X62015714Y-56700057D01*
X62015714Y-56700057D02*
X62063333Y-56795295D01*
X62063333Y-56795295D02*
X62063333Y-56938152D01*
X62063333Y-56938152D02*
X62015714Y-57033390D01*
X62015714Y-57033390D02*
X61968095Y-57081009D01*
X61968095Y-57081009D02*
X61872857Y-57128628D01*
X61872857Y-57128628D02*
X61491905Y-57128628D01*
X62920476Y-56938152D02*
X62920476Y-57604819D01*
X62682381Y-56557200D02*
X62444286Y-57271485D01*
X62444286Y-57271485D02*
X63063333Y-57271485D01*
X72223333Y-69034819D02*
X71890000Y-68558628D01*
X71651905Y-69034819D02*
X71651905Y-68034819D01*
X71651905Y-68034819D02*
X72032857Y-68034819D01*
X72032857Y-68034819D02*
X72128095Y-68082438D01*
X72128095Y-68082438D02*
X72175714Y-68130057D01*
X72175714Y-68130057D02*
X72223333Y-68225295D01*
X72223333Y-68225295D02*
X72223333Y-68368152D01*
X72223333Y-68368152D02*
X72175714Y-68463390D01*
X72175714Y-68463390D02*
X72128095Y-68511009D01*
X72128095Y-68511009D02*
X72032857Y-68558628D01*
X72032857Y-68558628D02*
X71651905Y-68558628D01*
X73128095Y-68034819D02*
X72651905Y-68034819D01*
X72651905Y-68034819D02*
X72604286Y-68511009D01*
X72604286Y-68511009D02*
X72651905Y-68463390D01*
X72651905Y-68463390D02*
X72747143Y-68415771D01*
X72747143Y-68415771D02*
X72985238Y-68415771D01*
X72985238Y-68415771D02*
X73080476Y-68463390D01*
X73080476Y-68463390D02*
X73128095Y-68511009D01*
X73128095Y-68511009D02*
X73175714Y-68606247D01*
X73175714Y-68606247D02*
X73175714Y-68844342D01*
X73175714Y-68844342D02*
X73128095Y-68939580D01*
X73128095Y-68939580D02*
X73080476Y-68987200D01*
X73080476Y-68987200D02*
X72985238Y-69034819D01*
X72985238Y-69034819D02*
X72747143Y-69034819D01*
X72747143Y-69034819D02*
X72651905Y-68987200D01*
X72651905Y-68987200D02*
X72604286Y-68939580D01*
X60644819Y-73993333D02*
X61359104Y-73993333D01*
X61359104Y-73993333D02*
X61501961Y-74040952D01*
X61501961Y-74040952D02*
X61597200Y-74136190D01*
X61597200Y-74136190D02*
X61644819Y-74279047D01*
X61644819Y-74279047D02*
X61644819Y-74374285D01*
X60644819Y-73040952D02*
X60644819Y-73517142D01*
X60644819Y-73517142D02*
X61121009Y-73564761D01*
X61121009Y-73564761D02*
X61073390Y-73517142D01*
X61073390Y-73517142D02*
X61025771Y-73421904D01*
X61025771Y-73421904D02*
X61025771Y-73183809D01*
X61025771Y-73183809D02*
X61073390Y-73088571D01*
X61073390Y-73088571D02*
X61121009Y-73040952D01*
X61121009Y-73040952D02*
X61216247Y-72993333D01*
X61216247Y-72993333D02*
X61454342Y-72993333D01*
X61454342Y-72993333D02*
X61549580Y-73040952D01*
X61549580Y-73040952D02*
X61597200Y-73088571D01*
X61597200Y-73088571D02*
X61644819Y-73183809D01*
X61644819Y-73183809D02*
X61644819Y-73421904D01*
X61644819Y-73421904D02*
X61597200Y-73517142D01*
X61597200Y-73517142D02*
X61549580Y-73564761D01*
D11*
X50555419Y-52808094D02*
X49555419Y-52808094D01*
X49555419Y-52808094D02*
X49555419Y-52569999D01*
X49555419Y-52569999D02*
X49603038Y-52427142D01*
X49603038Y-52427142D02*
X49698276Y-52331904D01*
X49698276Y-52331904D02*
X49793514Y-52284285D01*
X49793514Y-52284285D02*
X49983990Y-52236666D01*
X49983990Y-52236666D02*
X50126847Y-52236666D01*
X50126847Y-52236666D02*
X50317323Y-52284285D01*
X50317323Y-52284285D02*
X50412561Y-52331904D01*
X50412561Y-52331904D02*
X50507800Y-52427142D01*
X50507800Y-52427142D02*
X50555419Y-52569999D01*
X50555419Y-52569999D02*
X50555419Y-52808094D01*
X50555419Y-51284285D02*
X50555419Y-51855713D01*
X50555419Y-51569999D02*
X49555419Y-51569999D01*
X49555419Y-51569999D02*
X49698276Y-51665237D01*
X49698276Y-51665237D02*
X49793514Y-51760475D01*
X49793514Y-51760475D02*
X49841133Y-51855713D01*
D10*
X62063333Y-65224819D02*
X61730000Y-64748628D01*
X61491905Y-65224819D02*
X61491905Y-64224819D01*
X61491905Y-64224819D02*
X61872857Y-64224819D01*
X61872857Y-64224819D02*
X61968095Y-64272438D01*
X61968095Y-64272438D02*
X62015714Y-64320057D01*
X62015714Y-64320057D02*
X62063333Y-64415295D01*
X62063333Y-64415295D02*
X62063333Y-64558152D01*
X62063333Y-64558152D02*
X62015714Y-64653390D01*
X62015714Y-64653390D02*
X61968095Y-64701009D01*
X61968095Y-64701009D02*
X61872857Y-64748628D01*
X61872857Y-64748628D02*
X61491905Y-64748628D01*
X63015714Y-65224819D02*
X62444286Y-65224819D01*
X62730000Y-65224819D02*
X62730000Y-64224819D01*
X62730000Y-64224819D02*
X62634762Y-64367676D01*
X62634762Y-64367676D02*
X62539524Y-64462914D01*
X62539524Y-64462914D02*
X62444286Y-64510533D01*
X55546666Y-59354819D02*
X55546666Y-60069104D01*
X55546666Y-60069104D02*
X55499047Y-60211961D01*
X55499047Y-60211961D02*
X55403809Y-60307200D01*
X55403809Y-60307200D02*
X55260952Y-60354819D01*
X55260952Y-60354819D02*
X55165714Y-60354819D01*
X55975238Y-59450057D02*
X56022857Y-59402438D01*
X56022857Y-59402438D02*
X56118095Y-59354819D01*
X56118095Y-59354819D02*
X56356190Y-59354819D01*
X56356190Y-59354819D02*
X56451428Y-59402438D01*
X56451428Y-59402438D02*
X56499047Y-59450057D01*
X56499047Y-59450057D02*
X56546666Y-59545295D01*
X56546666Y-59545295D02*
X56546666Y-59640533D01*
X56546666Y-59640533D02*
X56499047Y-59783390D01*
X56499047Y-59783390D02*
X55927619Y-60354819D01*
X55927619Y-60354819D02*
X56546666Y-60354819D01*
X51813366Y-59354819D02*
X51813366Y-60069104D01*
X51813366Y-60069104D02*
X51765747Y-60211961D01*
X51765747Y-60211961D02*
X51670509Y-60307200D01*
X51670509Y-60307200D02*
X51527652Y-60354819D01*
X51527652Y-60354819D02*
X51432414Y-60354819D01*
X52718128Y-59688152D02*
X52718128Y-60354819D01*
X52480033Y-59307200D02*
X52241938Y-60021485D01*
X52241938Y-60021485D02*
X52860985Y-60021485D01*
D11*
X65278095Y-42637419D02*
X65278095Y-43446942D01*
X65278095Y-43446942D02*
X65325714Y-43542180D01*
X65325714Y-43542180D02*
X65373333Y-43589800D01*
X65373333Y-43589800D02*
X65468571Y-43637419D01*
X65468571Y-43637419D02*
X65659047Y-43637419D01*
X65659047Y-43637419D02*
X65754285Y-43589800D01*
X65754285Y-43589800D02*
X65801904Y-43542180D01*
X65801904Y-43542180D02*
X65849523Y-43446942D01*
X65849523Y-43446942D02*
X65849523Y-42637419D01*
X66278095Y-42732657D02*
X66325714Y-42685038D01*
X66325714Y-42685038D02*
X66420952Y-42637419D01*
X66420952Y-42637419D02*
X66659047Y-42637419D01*
X66659047Y-42637419D02*
X66754285Y-42685038D01*
X66754285Y-42685038D02*
X66801904Y-42732657D01*
X66801904Y-42732657D02*
X66849523Y-42827895D01*
X66849523Y-42827895D02*
X66849523Y-42923133D01*
X66849523Y-42923133D02*
X66801904Y-43065990D01*
X66801904Y-43065990D02*
X66230476Y-43637419D01*
X66230476Y-43637419D02*
X66849523Y-43637419D01*
D10*
X34120868Y-69280921D02*
X34073249Y-69328541D01*
X34073249Y-69328541D02*
X33930392Y-69376160D01*
X33930392Y-69376160D02*
X33835154Y-69376160D01*
X33835154Y-69376160D02*
X33692297Y-69328541D01*
X33692297Y-69328541D02*
X33597059Y-69233302D01*
X33597059Y-69233302D02*
X33549440Y-69138064D01*
X33549440Y-69138064D02*
X33501821Y-68947588D01*
X33501821Y-68947588D02*
X33501821Y-68804731D01*
X33501821Y-68804731D02*
X33549440Y-68614255D01*
X33549440Y-68614255D02*
X33597059Y-68519017D01*
X33597059Y-68519017D02*
X33692297Y-68423779D01*
X33692297Y-68423779D02*
X33835154Y-68376160D01*
X33835154Y-68376160D02*
X33930392Y-68376160D01*
X33930392Y-68376160D02*
X34073249Y-68423779D01*
X34073249Y-68423779D02*
X34120868Y-68471398D01*
X35073249Y-69376160D02*
X34501821Y-69376160D01*
X34787535Y-69376160D02*
X34787535Y-68376160D01*
X34787535Y-68376160D02*
X34692297Y-68519017D01*
X34692297Y-68519017D02*
X34597059Y-68614255D01*
X34597059Y-68614255D02*
X34501821Y-68661874D01*
X67143333Y-52694819D02*
X66810000Y-52218628D01*
X66571905Y-52694819D02*
X66571905Y-51694819D01*
X66571905Y-51694819D02*
X66952857Y-51694819D01*
X66952857Y-51694819D02*
X67048095Y-51742438D01*
X67048095Y-51742438D02*
X67095714Y-51790057D01*
X67095714Y-51790057D02*
X67143333Y-51885295D01*
X67143333Y-51885295D02*
X67143333Y-52028152D01*
X67143333Y-52028152D02*
X67095714Y-52123390D01*
X67095714Y-52123390D02*
X67048095Y-52171009D01*
X67048095Y-52171009D02*
X66952857Y-52218628D01*
X66952857Y-52218628D02*
X66571905Y-52218628D01*
X67524286Y-51790057D02*
X67571905Y-51742438D01*
X67571905Y-51742438D02*
X67667143Y-51694819D01*
X67667143Y-51694819D02*
X67905238Y-51694819D01*
X67905238Y-51694819D02*
X68000476Y-51742438D01*
X68000476Y-51742438D02*
X68048095Y-51790057D01*
X68048095Y-51790057D02*
X68095714Y-51885295D01*
X68095714Y-51885295D02*
X68095714Y-51980533D01*
X68095714Y-51980533D02*
X68048095Y-52123390D01*
X68048095Y-52123390D02*
X67476667Y-52694819D01*
X67476667Y-52694819D02*
X68095714Y-52694819D01*
X39764989Y-61723719D02*
X40574512Y-61723719D01*
X40574512Y-61723719D02*
X40669750Y-61676100D01*
X40669750Y-61676100D02*
X40717370Y-61628481D01*
X40717370Y-61628481D02*
X40764989Y-61533243D01*
X40764989Y-61533243D02*
X40764989Y-61342767D01*
X40764989Y-61342767D02*
X40717370Y-61247529D01*
X40717370Y-61247529D02*
X40669750Y-61199910D01*
X40669750Y-61199910D02*
X40574512Y-61152291D01*
X40574512Y-61152291D02*
X39764989Y-61152291D01*
X40764989Y-60152291D02*
X40764989Y-60723719D01*
X40764989Y-60438005D02*
X39764989Y-60438005D01*
X39764989Y-60438005D02*
X39907846Y-60533243D01*
X39907846Y-60533243D02*
X40003084Y-60628481D01*
X40003084Y-60628481D02*
X40050703Y-60723719D01*
X72223333Y-61414819D02*
X71890000Y-60938628D01*
X71651905Y-61414819D02*
X71651905Y-60414819D01*
X71651905Y-60414819D02*
X72032857Y-60414819D01*
X72032857Y-60414819D02*
X72128095Y-60462438D01*
X72128095Y-60462438D02*
X72175714Y-60510057D01*
X72175714Y-60510057D02*
X72223333Y-60605295D01*
X72223333Y-60605295D02*
X72223333Y-60748152D01*
X72223333Y-60748152D02*
X72175714Y-60843390D01*
X72175714Y-60843390D02*
X72128095Y-60891009D01*
X72128095Y-60891009D02*
X72032857Y-60938628D01*
X72032857Y-60938628D02*
X71651905Y-60938628D01*
X72556667Y-60414819D02*
X73175714Y-60414819D01*
X73175714Y-60414819D02*
X72842381Y-60795771D01*
X72842381Y-60795771D02*
X72985238Y-60795771D01*
X72985238Y-60795771D02*
X73080476Y-60843390D01*
X73080476Y-60843390D02*
X73128095Y-60891009D01*
X73128095Y-60891009D02*
X73175714Y-60986247D01*
X73175714Y-60986247D02*
X73175714Y-61224342D01*
X73175714Y-61224342D02*
X73128095Y-61319580D01*
X73128095Y-61319580D02*
X73080476Y-61367200D01*
X73080476Y-61367200D02*
X72985238Y-61414819D01*
X72985238Y-61414819D02*
X72699524Y-61414819D01*
X72699524Y-61414819D02*
X72604286Y-61367200D01*
X72604286Y-61367200D02*
X72556667Y-61319580D01*
D12*
X64040000Y-57050000D02*
X70580000Y-57050000D01*
X64040000Y-57380000D02*
X64040000Y-57050000D01*
X64040000Y-59460000D02*
X64040000Y-59790000D01*
X64040000Y-59790000D02*
X70580000Y-59790000D01*
X70580000Y-57050000D02*
X70580000Y-57380000D01*
X70580000Y-59790000D02*
X70580000Y-59460000D01*
X64040000Y-68480000D02*
X70580000Y-68480000D01*
X64040000Y-68810000D02*
X64040000Y-68480000D01*
X64040000Y-70890000D02*
X64040000Y-71220000D01*
X64040000Y-71220000D02*
X70580000Y-71220000D01*
X70580000Y-68480000D02*
X70580000Y-68810000D01*
X70580000Y-71220000D02*
X70580000Y-70890000D01*
X57150000Y-72330000D02*
X46930000Y-72330000D01*
X57150000Y-72330000D02*
X57150000Y-74990000D01*
X46930000Y-72330000D02*
X46930000Y-74990000D01*
X59750000Y-73660000D02*
X59750000Y-74990000D01*
X59750000Y-74990000D02*
X58420000Y-74990000D01*
X57150000Y-74990000D02*
X46930000Y-74990000D01*
X47050000Y-62290000D02*
X45720000Y-62290000D01*
X47050000Y-60960000D02*
X47050000Y-62290000D01*
X44390000Y-59690000D02*
X44390000Y-41850000D01*
X47050000Y-59690000D02*
X44390000Y-59690000D01*
X47050000Y-59690000D02*
X47050000Y-41850000D01*
X47050000Y-41850000D02*
X44390000Y-41850000D01*
X64040000Y-64670000D02*
X70580000Y-64670000D01*
X64040000Y-65000000D02*
X64040000Y-64670000D01*
X64040000Y-67080000D02*
X64040000Y-67410000D01*
X64040000Y-67410000D02*
X70580000Y-67410000D01*
X70580000Y-64670000D02*
X70580000Y-65000000D01*
X70580000Y-67410000D02*
X70580000Y-67080000D01*
X54550000Y-60900000D02*
X55880000Y-60900000D01*
X54550000Y-62230000D02*
X54550000Y-60900000D01*
X54550000Y-63500000D02*
X54550000Y-71180000D01*
X54550000Y-63500000D02*
X57210000Y-63500000D01*
X54550000Y-71180000D02*
X57210000Y-71180000D01*
X57210000Y-63500000D02*
X57210000Y-71180000D01*
X50816700Y-60900000D02*
X52146700Y-60900000D01*
X50816700Y-62230000D02*
X50816700Y-60900000D01*
X50816700Y-63500000D02*
X50816700Y-71180000D01*
X50816700Y-63500000D02*
X53476700Y-63500000D01*
X50816700Y-71180000D02*
X53476700Y-71180000D01*
X53476700Y-63500000D02*
X53476700Y-71180000D01*
D13*
X57140000Y-30140000D02*
X57140000Y-51140000D01*
X57140000Y-51140000D02*
X74940000Y-51140000D01*
X74940000Y-30140000D02*
X57140000Y-30140000D01*
X74940000Y-51140000D02*
X74940000Y-30140000D01*
D14*
X56440000Y-33020000D02*
G75*
G03*
X56440000Y-33020000I-100000J0D01*
G01*
D12*
X31110302Y-68805000D02*
X31910302Y-68805000D01*
X31510302Y-68405000D02*
X31510302Y-69205000D01*
X35520000Y-67040000D02*
X35520000Y-75200000D01*
X35560000Y-67040000D02*
X35560000Y-75200000D01*
X35600000Y-67040000D02*
X35600000Y-75200000D01*
X35640000Y-67041000D02*
X35640000Y-75199000D01*
X35680000Y-67043000D02*
X35680000Y-75197000D01*
X35720000Y-67044000D02*
X35720000Y-75196000D01*
X35760000Y-67046000D02*
X35760000Y-75194000D01*
X35800000Y-67049000D02*
X35800000Y-75191000D01*
X35840000Y-67052000D02*
X35840000Y-75188000D01*
X35880000Y-67055000D02*
X35880000Y-75185000D01*
X35920000Y-67059000D02*
X35920000Y-75181000D01*
X35960000Y-67063000D02*
X35960000Y-75177000D01*
X36000000Y-67068000D02*
X36000000Y-75172000D01*
X36040000Y-67072000D02*
X36040000Y-75168000D01*
X36080000Y-67078000D02*
X36080000Y-75162000D01*
X36120000Y-67083000D02*
X36120000Y-75157000D01*
X36160000Y-67090000D02*
X36160000Y-75150000D01*
X36200000Y-67096000D02*
X36200000Y-75144000D01*
X36241000Y-67103000D02*
X36241000Y-75137000D01*
X36281000Y-67110000D02*
X36281000Y-75130000D01*
X36321000Y-67118000D02*
X36321000Y-75122000D01*
X36361000Y-67126000D02*
X36361000Y-75114000D01*
X36401000Y-67135000D02*
X36401000Y-75105000D01*
X36441000Y-67144000D02*
X36441000Y-75096000D01*
X36481000Y-67153000D02*
X36481000Y-75087000D01*
X36521000Y-67163000D02*
X36521000Y-75077000D01*
X36561000Y-67173000D02*
X36561000Y-75067000D01*
X36601000Y-67184000D02*
X36601000Y-75056000D01*
X36641000Y-67195000D02*
X36641000Y-75045000D01*
X36681000Y-67206000D02*
X36681000Y-75034000D01*
X36721000Y-67218000D02*
X36721000Y-75022000D01*
X36761000Y-67231000D02*
X36761000Y-75009000D01*
X36801000Y-67243000D02*
X36801000Y-74997000D01*
X36841000Y-67257000D02*
X36841000Y-74983000D01*
X36881000Y-67270000D02*
X36881000Y-74970000D01*
X36921000Y-67285000D02*
X36921000Y-74955000D01*
X36961000Y-67299000D02*
X36961000Y-74941000D01*
X37001000Y-67315000D02*
X37001000Y-70080000D01*
X37001000Y-72160000D02*
X37001000Y-74925000D01*
X37041000Y-67330000D02*
X37041000Y-70080000D01*
X37041000Y-72160000D02*
X37041000Y-74910000D01*
X37081000Y-67346000D02*
X37081000Y-70080000D01*
X37081000Y-72160000D02*
X37081000Y-74894000D01*
X37121000Y-67363000D02*
X37121000Y-70080000D01*
X37121000Y-72160000D02*
X37121000Y-74877000D01*
X37161000Y-67380000D02*
X37161000Y-70080000D01*
X37161000Y-72160000D02*
X37161000Y-74860000D01*
X37201000Y-67398000D02*
X37201000Y-70080000D01*
X37201000Y-72160000D02*
X37201000Y-74842000D01*
X37241000Y-67416000D02*
X37241000Y-70080000D01*
X37241000Y-72160000D02*
X37241000Y-74824000D01*
X37281000Y-67434000D02*
X37281000Y-70080000D01*
X37281000Y-72160000D02*
X37281000Y-74806000D01*
X37321000Y-67454000D02*
X37321000Y-70080000D01*
X37321000Y-72160000D02*
X37321000Y-74786000D01*
X37361000Y-67473000D02*
X37361000Y-70080000D01*
X37361000Y-72160000D02*
X37361000Y-74767000D01*
X37401000Y-67493000D02*
X37401000Y-70080000D01*
X37401000Y-72160000D02*
X37401000Y-74747000D01*
X37441000Y-67514000D02*
X37441000Y-70080000D01*
X37441000Y-72160000D02*
X37441000Y-74726000D01*
X37481000Y-67536000D02*
X37481000Y-70080000D01*
X37481000Y-72160000D02*
X37481000Y-74704000D01*
X37521000Y-67558000D02*
X37521000Y-70080000D01*
X37521000Y-72160000D02*
X37521000Y-74682000D01*
X37561000Y-67580000D02*
X37561000Y-70080000D01*
X37561000Y-72160000D02*
X37561000Y-74660000D01*
X37601000Y-67603000D02*
X37601000Y-70080000D01*
X37601000Y-72160000D02*
X37601000Y-74637000D01*
X37641000Y-67627000D02*
X37641000Y-70080000D01*
X37641000Y-72160000D02*
X37641000Y-74613000D01*
X37681000Y-67651000D02*
X37681000Y-70080000D01*
X37681000Y-72160000D02*
X37681000Y-74589000D01*
X37721000Y-67676000D02*
X37721000Y-70080000D01*
X37721000Y-72160000D02*
X37721000Y-74564000D01*
X37761000Y-67702000D02*
X37761000Y-70080000D01*
X37761000Y-72160000D02*
X37761000Y-74538000D01*
X37801000Y-67728000D02*
X37801000Y-70080000D01*
X37801000Y-72160000D02*
X37801000Y-74512000D01*
X37841000Y-67755000D02*
X37841000Y-70080000D01*
X37841000Y-72160000D02*
X37841000Y-74485000D01*
X37881000Y-67782000D02*
X37881000Y-70080000D01*
X37881000Y-72160000D02*
X37881000Y-74458000D01*
X37921000Y-67811000D02*
X37921000Y-70080000D01*
X37921000Y-72160000D02*
X37921000Y-74429000D01*
X37961000Y-67840000D02*
X37961000Y-70080000D01*
X37961000Y-72160000D02*
X37961000Y-74400000D01*
X38001000Y-67870000D02*
X38001000Y-70080000D01*
X38001000Y-72160000D02*
X38001000Y-74370000D01*
X38041000Y-67900000D02*
X38041000Y-70080000D01*
X38041000Y-72160000D02*
X38041000Y-74340000D01*
X38081000Y-67931000D02*
X38081000Y-70080000D01*
X38081000Y-72160000D02*
X38081000Y-74309000D01*
X38121000Y-67964000D02*
X38121000Y-70080000D01*
X38121000Y-72160000D02*
X38121000Y-74276000D01*
X38161000Y-67996000D02*
X38161000Y-70080000D01*
X38161000Y-72160000D02*
X38161000Y-74244000D01*
X38201000Y-68030000D02*
X38201000Y-70080000D01*
X38201000Y-72160000D02*
X38201000Y-74210000D01*
X38241000Y-68065000D02*
X38241000Y-70080000D01*
X38241000Y-72160000D02*
X38241000Y-74175000D01*
X38281000Y-68101000D02*
X38281000Y-70080000D01*
X38281000Y-72160000D02*
X38281000Y-74139000D01*
X38321000Y-68137000D02*
X38321000Y-70080000D01*
X38321000Y-72160000D02*
X38321000Y-74103000D01*
X38361000Y-68175000D02*
X38361000Y-70080000D01*
X38361000Y-72160000D02*
X38361000Y-74065000D01*
X38401000Y-68213000D02*
X38401000Y-70080000D01*
X38401000Y-72160000D02*
X38401000Y-74027000D01*
X38441000Y-68253000D02*
X38441000Y-70080000D01*
X38441000Y-72160000D02*
X38441000Y-73987000D01*
X38481000Y-68294000D02*
X38481000Y-70080000D01*
X38481000Y-72160000D02*
X38481000Y-73946000D01*
X38521000Y-68336000D02*
X38521000Y-70080000D01*
X38521000Y-72160000D02*
X38521000Y-73904000D01*
X38561000Y-68379000D02*
X38561000Y-70080000D01*
X38561000Y-72160000D02*
X38561000Y-73861000D01*
X38601000Y-68423000D02*
X38601000Y-70080000D01*
X38601000Y-72160000D02*
X38601000Y-73817000D01*
X38641000Y-68469000D02*
X38641000Y-70080000D01*
X38641000Y-72160000D02*
X38641000Y-73771000D01*
X38681000Y-68516000D02*
X38681000Y-70080000D01*
X38681000Y-72160000D02*
X38681000Y-73724000D01*
X38721000Y-68564000D02*
X38721000Y-70080000D01*
X38721000Y-72160000D02*
X38721000Y-73676000D01*
X38761000Y-68615000D02*
X38761000Y-70080000D01*
X38761000Y-72160000D02*
X38761000Y-73625000D01*
X38801000Y-68666000D02*
X38801000Y-70080000D01*
X38801000Y-72160000D02*
X38801000Y-73574000D01*
X38841000Y-68720000D02*
X38841000Y-70080000D01*
X38841000Y-72160000D02*
X38841000Y-73520000D01*
X38881000Y-68775000D02*
X38881000Y-70080000D01*
X38881000Y-72160000D02*
X38881000Y-73465000D01*
X38921000Y-68833000D02*
X38921000Y-70080000D01*
X38921000Y-72160000D02*
X38921000Y-73407000D01*
X38961000Y-68892000D02*
X38961000Y-70080000D01*
X38961000Y-72160000D02*
X38961000Y-73348000D01*
X39001000Y-68954000D02*
X39001000Y-70080000D01*
X39001000Y-72160000D02*
X39001000Y-73286000D01*
X39041000Y-69018000D02*
X39041000Y-70080000D01*
X39041000Y-72160000D02*
X39041000Y-73222000D01*
X39081000Y-69086000D02*
X39081000Y-73154000D01*
X39121000Y-69156000D02*
X39121000Y-73084000D01*
X39161000Y-69230000D02*
X39161000Y-73010000D01*
X39201000Y-69307000D02*
X39201000Y-72933000D01*
X39241000Y-69389000D02*
X39241000Y-72851000D01*
X39281000Y-69475000D02*
X39281000Y-72765000D01*
X39321000Y-69568000D02*
X39321000Y-72672000D01*
X39361000Y-69667000D02*
X39361000Y-72573000D01*
X39401000Y-69774000D02*
X39401000Y-72466000D01*
X39441000Y-69891000D02*
X39441000Y-72349000D01*
X39481000Y-70022000D02*
X39481000Y-72218000D01*
X39521000Y-70172000D02*
X39521000Y-72068000D01*
X39561000Y-70352000D02*
X39561000Y-71888000D01*
X39601000Y-70587000D02*
X39601000Y-71653000D01*
X39640000Y-71120000D02*
G75*
G03*
X39640000Y-71120000I-4120000J0D01*
G01*
X64040000Y-53240000D02*
X70580000Y-53240000D01*
X64040000Y-53570000D02*
X64040000Y-53240000D01*
X64040000Y-55650000D02*
X64040000Y-55980000D01*
X64040000Y-55980000D02*
X70580000Y-55980000D01*
X70580000Y-53240000D02*
X70580000Y-53570000D01*
X70580000Y-55980000D02*
X70580000Y-55650000D01*
X39430000Y-62350000D02*
X39430000Y-41790000D01*
X39430000Y-41790000D02*
X29150000Y-41790000D01*
X36940000Y-62290000D02*
X36940000Y-41850000D01*
X36940000Y-41850000D02*
X31640000Y-41850000D01*
X35290000Y-62290000D02*
X36940000Y-62290000D01*
X31640000Y-62290000D02*
X33290000Y-62290000D01*
X31640000Y-41850000D02*
X31640000Y-62290000D01*
X29150000Y-62350000D02*
X39430000Y-62350000D01*
X29150000Y-41790000D02*
X29150000Y-62350000D01*
X35290000Y-62290000D02*
G75*
G03*
X33290000Y-62290000I-1000000J0D01*
G01*
X70580000Y-63600000D02*
X64040000Y-63600000D01*
X70580000Y-63270000D02*
X70580000Y-63600000D01*
X70580000Y-61190000D02*
X70580000Y-60860000D01*
X70580000Y-60860000D02*
X64040000Y-60860000D01*
X64040000Y-63600000D02*
X64040000Y-63270000D01*
X64040000Y-60860000D02*
X64040000Y-61190000D01*
%LPC*%
D15*
X63500000Y-58420000D03*
D16*
X71120000Y-58420000D03*
D15*
X63500000Y-69850000D03*
D16*
X71120000Y-69850000D03*
D17*
X58420000Y-73660000D03*
D18*
X55880000Y-73660000D03*
X53340000Y-73660000D03*
X50800000Y-73660000D03*
X48260000Y-73660000D03*
D17*
X45720000Y-60960000D03*
D18*
X45720000Y-58420000D03*
X45720000Y-55880000D03*
X45720000Y-53340000D03*
X45720000Y-50800000D03*
X45720000Y-48260000D03*
X45720000Y-45720000D03*
X45720000Y-43180000D03*
D15*
X63500000Y-66040000D03*
D16*
X71120000Y-66040000D03*
D17*
X55880000Y-62230000D03*
D18*
X55880000Y-64770000D03*
X55880000Y-67310000D03*
X55880000Y-69850000D03*
D17*
X52146700Y-62230000D03*
D18*
X52146700Y-64770000D03*
X52146700Y-67310000D03*
X52146700Y-69850000D03*
D19*
X58420000Y-33020000D03*
D20*
X58420000Y-35560000D03*
X58420000Y-38100000D03*
X58420000Y-40640000D03*
X58420000Y-43180000D03*
X58420000Y-45720000D03*
X58420000Y-48260000D03*
X73660000Y-48260000D03*
X73660000Y-45720000D03*
X73660000Y-43180000D03*
X73660000Y-40640000D03*
X73660000Y-38100000D03*
X73660000Y-35560000D03*
X73660000Y-33020000D03*
D21*
X33020000Y-71120000D03*
D15*
X38020000Y-71120000D03*
X63500000Y-54610000D03*
D16*
X71120000Y-54610000D03*
D21*
X38100000Y-60960000D03*
D16*
X38100000Y-58420000D03*
X38100000Y-55880000D03*
X38100000Y-53340000D03*
X38100000Y-50800000D03*
X38100000Y-48260000D03*
X38100000Y-45720000D03*
X38100000Y-43180000D03*
X30480000Y-43180000D03*
X30480000Y-45720000D03*
X30480000Y-48260000D03*
X30480000Y-50800000D03*
X30480000Y-53340000D03*
X30480000Y-55880000D03*
X30480000Y-58420000D03*
X30480000Y-60960000D03*
D15*
X71120000Y-62230000D03*
D16*
X63500000Y-62230000D03*
%LPD*%
M02*
