%TF.GenerationSoftware,KiCad,Pcbnew,7.0.7*%
%TF.CreationDate,2024-02-28T11:46:36+01:00*%
%TF.ProjectId,brick_test,62726963-6b5f-4746-9573-742e6b696361,rev?*%
%TF.SameCoordinates,Original*%
%TF.FileFunction,Copper,L2,Bot*%
%TF.FilePolarity,Positive*%
%FSLAX46Y46*%
G04 Gerber Fmt 4.6, Leading zero omitted, Abs format (unit mm)*
G04 Created by KiCad (PCBNEW 7.0.7) date 2024-02-28 11:46:36*
%MOMM*%
%LPD*%
G01*
G04 APERTURE LIST*
%TA.AperFunction,ComponentPad*%
%ADD10C,1.600000*%
%TD*%
%TA.AperFunction,ComponentPad*%
%ADD11O,1.600000X1.600000*%
%TD*%
%TA.AperFunction,ComponentPad*%
%ADD12R,1.700000X1.700000*%
%TD*%
%TA.AperFunction,ComponentPad*%
%ADD13O,1.700000X1.700000*%
%TD*%
%TA.AperFunction,ComponentPad*%
%ADD14R,1.530000X1.530000*%
%TD*%
%TA.AperFunction,ComponentPad*%
%ADD15C,1.530000*%
%TD*%
%TA.AperFunction,ComponentPad*%
%ADD16R,1.600000X1.600000*%
%TD*%
%TA.AperFunction,ViaPad*%
%ADD17C,0.800000*%
%TD*%
%TA.AperFunction,Conductor*%
%ADD18C,0.500000*%
%TD*%
G04 APERTURE END LIST*
D10*
X63500000Y-58420000D03*
D11*
X71120000Y-58420000D03*
D10*
X63500000Y-69850000D03*
D11*
X71120000Y-69850000D03*
D12*
X58420000Y-73660000D03*
D13*
X55880000Y-73660000D03*
X53340000Y-73660000D03*
X50800000Y-73660000D03*
X48260000Y-73660000D03*
D12*
X45720000Y-60960000D03*
D13*
X45720000Y-58420000D03*
X45720000Y-55880000D03*
X45720000Y-53340000D03*
X45720000Y-50800000D03*
X45720000Y-48260000D03*
X45720000Y-45720000D03*
X45720000Y-43180000D03*
D10*
X63500000Y-66040000D03*
D11*
X71120000Y-66040000D03*
D12*
X55880000Y-62230000D03*
D13*
X55880000Y-64770000D03*
X55880000Y-67310000D03*
X55880000Y-69850000D03*
D12*
X52146700Y-62230000D03*
D13*
X52146700Y-64770000D03*
X52146700Y-67310000D03*
X52146700Y-69850000D03*
D14*
X58420000Y-33020000D03*
D15*
X58420000Y-35560000D03*
X58420000Y-38100000D03*
X58420000Y-40640000D03*
X58420000Y-43180000D03*
X58420000Y-45720000D03*
X58420000Y-48260000D03*
X73660000Y-48260000D03*
X73660000Y-45720000D03*
X73660000Y-43180000D03*
X73660000Y-40640000D03*
X73660000Y-38100000D03*
X73660000Y-35560000D03*
X73660000Y-33020000D03*
D16*
X33020000Y-71120000D03*
D10*
X38020000Y-71120000D03*
X63500000Y-54610000D03*
D11*
X71120000Y-54610000D03*
D16*
X38100000Y-60960000D03*
D11*
X38100000Y-58420000D03*
X38100000Y-55880000D03*
X38100000Y-53340000D03*
X38100000Y-50800000D03*
X38100000Y-48260000D03*
X38100000Y-45720000D03*
X38100000Y-43180000D03*
X30480000Y-43180000D03*
X30480000Y-45720000D03*
X30480000Y-48260000D03*
X30480000Y-50800000D03*
X30480000Y-53340000D03*
X30480000Y-55880000D03*
X30480000Y-58420000D03*
X30480000Y-60960000D03*
D10*
X71120000Y-62230000D03*
D11*
X63500000Y-62230000D03*
D17*
X51732700Y-52726500D03*
X59237600Y-61822700D03*
X55797800Y-58357200D03*
X50815600Y-71982700D03*
X61249100Y-49774000D03*
X60775400Y-70665600D03*
X48263600Y-60136100D03*
X46060900Y-63162800D03*
D18*
X71120000Y-54610000D02*
X71120000Y-40640000D01*
X30480000Y-62311900D02*
X33020000Y-64851900D01*
X71120000Y-66040000D02*
X71120000Y-69850000D01*
X71120000Y-40640000D02*
X73660000Y-38100000D01*
X71120000Y-62230000D02*
X71120000Y-66040000D01*
X30480000Y-60960000D02*
X30480000Y-62311900D01*
X33020000Y-64851900D02*
X33020000Y-71120000D01*
X36699500Y-54479500D02*
X38100000Y-55880000D01*
X38100000Y-60960000D02*
X38100000Y-62311900D01*
X47966700Y-58420000D02*
X47121900Y-58420000D01*
X45720000Y-58420000D02*
X47121900Y-58420000D01*
X52146700Y-64770000D02*
X49764700Y-62388000D01*
X38100000Y-58420000D02*
X38100000Y-60960000D01*
X49764700Y-62388000D02*
X49764700Y-60218000D01*
X36699500Y-44580500D02*
X36699500Y-54479500D01*
X49764700Y-60218000D02*
X47966700Y-58420000D01*
X38020000Y-62391900D02*
X38020000Y-71120000D01*
X38100000Y-62311900D02*
X38020000Y-62391900D01*
X38100000Y-43180000D02*
X36699500Y-44580500D01*
X38100000Y-55880000D02*
X38100000Y-58420000D01*
X47735400Y-52726500D02*
X47121900Y-53340000D01*
X51732700Y-52726500D02*
X47735400Y-52726500D01*
X45720000Y-53340000D02*
X47121900Y-53340000D01*
X49117300Y-47402700D02*
X45720000Y-50800000D01*
X49117300Y-42322700D02*
X49117300Y-47402700D01*
X58420000Y-33020000D02*
X49117300Y-42322700D01*
X59237600Y-60811200D02*
X54780200Y-60811200D01*
X54478100Y-67518600D02*
X52146700Y-69850000D01*
X54478100Y-61113300D02*
X54478100Y-67518600D01*
X54780200Y-60811200D02*
X54478100Y-61113300D01*
X59736900Y-44496900D02*
X59736900Y-48805500D01*
X59736900Y-48805500D02*
X59237600Y-49304800D01*
X58420000Y-43180000D02*
X59736900Y-44496900D01*
X59237600Y-49304800D02*
X59237600Y-60811200D01*
X59237600Y-60811200D02*
X59237600Y-61822700D01*
X55797800Y-58357200D02*
X53676200Y-60478800D01*
X55797800Y-48342200D02*
X55797800Y-58357200D01*
X53676200Y-65780500D02*
X52146700Y-67310000D01*
X53676200Y-60478800D02*
X53676200Y-65780500D01*
X58420000Y-45720000D02*
X55797800Y-48342200D01*
X42214200Y-63381300D02*
X42214200Y-54914200D01*
X42214200Y-54914200D02*
X38100000Y-50800000D01*
X50815600Y-71982700D02*
X42214200Y-63381300D01*
X53075200Y-71252900D02*
X54478100Y-69850000D01*
X43127300Y-53287300D02*
X43127300Y-62815100D01*
X38100000Y-48260000D02*
X43127300Y-53287300D01*
X51565100Y-71252900D02*
X53075200Y-71252900D01*
X55880000Y-69850000D02*
X54478100Y-69850000D01*
X43127300Y-62815100D02*
X51565100Y-71252900D01*
X60775400Y-73835900D02*
X60775400Y-70665600D01*
X63500000Y-66040000D02*
X61249100Y-63789100D01*
X61249100Y-63789100D02*
X61249100Y-49774000D01*
X59549400Y-75061900D02*
X60775400Y-73835900D01*
X35266700Y-60666700D02*
X35266700Y-70301900D01*
X30480000Y-55880000D02*
X35266700Y-60666700D01*
X35266700Y-70301900D02*
X40026700Y-75061900D01*
X40026700Y-75061900D02*
X59549400Y-75061900D01*
X46060900Y-63162800D02*
X48263600Y-60960100D01*
X48263600Y-60960100D02*
X48263600Y-60136100D01*
X65962600Y-67387400D02*
X65962600Y-61633500D01*
X72343100Y-49173500D02*
X72343100Y-44496900D01*
X72528700Y-55154800D02*
X72528700Y-49359100D01*
X63500000Y-69850000D02*
X65962600Y-67387400D01*
X71168500Y-56515000D02*
X72528700Y-55154800D01*
X72528700Y-49359100D02*
X72343100Y-49173500D01*
X65962600Y-61633500D02*
X71081100Y-56515000D01*
X72343100Y-44496900D02*
X73660000Y-43180000D01*
X71081100Y-56515000D02*
X71168500Y-56515000D01*
X55880000Y-72258100D02*
X60189500Y-67948600D01*
X55880000Y-73660000D02*
X55880000Y-72258100D01*
X60189500Y-67948600D02*
X60189500Y-49487100D01*
X60189500Y-49487100D02*
X60541300Y-49135300D01*
X60541300Y-40221300D02*
X58420000Y-38100000D01*
X60541300Y-49135300D02*
X60541300Y-40221300D01*
X58420000Y-35560000D02*
X64910900Y-42050900D01*
X64910900Y-42050900D02*
X64910900Y-66611300D01*
X63577200Y-67945000D02*
X62149800Y-67945000D01*
X64910900Y-66611300D02*
X63577200Y-67945000D01*
X58420000Y-73660000D02*
X58420000Y-72258100D01*
X58420000Y-71674800D02*
X58420000Y-72258100D01*
X62149800Y-67945000D02*
X58420000Y-71674800D01*
X55880000Y-62230000D02*
X55880000Y-64770000D01*
M02*
