M48
; DRILL file {KiCad 7.0.7} date Wed Feb 28 11:45:43 2024
; FORMAT={-:-/ absolute / metric / decimal}
; #@! TF.CreationDate,2024-02-28T11:45:43+01:00
; #@! TF.GenerationSoftware,Kicad,Pcbnew,7.0.7
; #@! TF.FileFunction,Plated,1,2,PTH
FMAT,2
METRIC
; #@! TA.AperFunction,Plated,PTH,ViaDrill
T1C0.400
; #@! TA.AperFunction,Plated,PTH,ComponentDrill
T2C0.800
; #@! TA.AperFunction,Plated,PTH,ComponentDrill
T3C1.000
; #@! TA.AperFunction,Plated,PTH,ComponentDrill
T4C1.020
%
G90
G05
T1
X46.061Y-63.163
X48.264Y-60.136
X50.816Y-71.983
X51.733Y-52.726
X55.798Y-58.357
X59.238Y-61.823
X60.775Y-70.666
X61.249Y-49.774
T2
X30.48Y-43.18
X30.48Y-45.72
X30.48Y-48.26
X30.48Y-50.8
X30.48Y-53.34
X30.48Y-55.88
X30.48Y-58.42
X30.48Y-60.96
X33.02Y-71.12
X38.02Y-71.12
X38.1Y-43.18
X38.1Y-45.72
X38.1Y-48.26
X38.1Y-50.8
X38.1Y-53.34
X38.1Y-55.88
X38.1Y-58.42
X38.1Y-60.96
X63.5Y-54.61
X63.5Y-58.42
X63.5Y-62.23
X63.5Y-66.04
X63.5Y-69.85
X71.12Y-54.61
X71.12Y-58.42
X71.12Y-62.23
X71.12Y-66.04
X71.12Y-69.85
T3
X45.72Y-43.18
X45.72Y-45.72
X45.72Y-48.26
X45.72Y-50.8
X45.72Y-53.34
X45.72Y-55.88
X45.72Y-58.42
X45.72Y-60.96
X48.26Y-73.66
X50.8Y-73.66
X52.147Y-62.23
X52.147Y-64.77
X52.147Y-67.31
X52.147Y-69.85
X53.34Y-73.66
X55.88Y-62.23
X55.88Y-64.77
X55.88Y-67.31
X55.88Y-69.85
X55.88Y-73.66
X58.42Y-73.66
T4
X58.42Y-33.02
X58.42Y-35.56
X58.42Y-38.1
X58.42Y-40.64
X58.42Y-43.18
X58.42Y-45.72
X58.42Y-48.26
X73.66Y-33.02
X73.66Y-35.56
X73.66Y-38.1
X73.66Y-40.64
X73.66Y-43.18
X73.66Y-45.72
X73.66Y-48.26
T0
M30
