<?xml version="1.0" encoding="UTF-8" standalone="no"?>
<!-- Created with Inkscape (http://www.inkscape.org/) -->

<svg
   width="198.92902mm"
   height="198.90907mm"
   viewBox="0 0 198.92902 198.90907"
   version="1.1"
   id="svg5"
   xml:space="preserve"
   inkscape:version="1.2.1 (9c6d41e410, 2022-07-14, custom)"
   sodipodi:docname="AlleIcons.svg"
   xmlns:inkscape="http://www.inkscape.org/namespaces/inkscape"
   xmlns:sodipodi="http://sodipodi.sourceforge.net/DTD/sodipodi-0.dtd"
   xmlns="http://www.w3.org/2000/svg"
   xmlns:svg="http://www.w3.org/2000/svg"><sodipodi:namedview
     id="namedview7"
     pagecolor="#ffffff"
     bordercolor="#666666"
     borderopacity="1.0"
     inkscape:showpageshadow="2"
     inkscape:pageopacity="0.0"
     inkscape:pagecheckerboard="0"
     inkscape:deskcolor="#d1d1d1"
     inkscape:document-units="mm"
     showgrid="false"
     inkscape:zoom="0.47748556"
     inkscape:cx="783.26976"
     inkscape:cy="594.78238"
     inkscape:window-width="1920"
     inkscape:window-height="1173"
     inkscape:window-x="0"
     inkscape:window-y="27"
     inkscape:window-maximized="1"
     inkscape:current-layer="layer1" /><defs
     id="defs2" /><g
     inkscape:label="Ebene 1"
     inkscape:groupmode="layer"
     id="layer1"
     transform="translate(0,0.0059223)"><g
       id="g1052"
       transform="translate(-278.39793,-32.030122)"><path
         style="fill:#00aced;stroke-width:0.264583"
         d="m 355.20619,163.94315 c -4.80197,-1.16478 -8.84879,-5.33511 -9.85382,-10.15455 -0.45792,-2.19586 -0.38485,-30.94094 0.0808,-31.78139 0.33807,-0.61019 0.36666,-0.6163 0.61968,-0.13229 0.42632,0.81552 1.29105,4.85765 2.31604,10.82618 1.62025,9.43472 2.32958,11.77396 3.57027,11.77396 1.25509,0 1.94755,-2.3097 3.68855,-12.30313 1.05096,-6.03257 1.8852,-9.79194 2.36201,-10.64395 0.45018,-0.80442 1.37703,3.08499 3.07241,12.89291 1.47151,8.51283 2.2232,10.51485 3.69598,9.8438 0.87905,-0.40052 1.52423,-2.57455 2.68577,-9.05005 2.17451,-12.12271 2.74221,-14.43304 3.30271,-13.4408 0.40608,0.71889 1.21671,4.25972 1.9565,8.54601 0.37674,2.18281 0.75071,4.29938 0.83103,4.70348 l 0.14605,0.73473 3.74772,-0.0733 3.74773,-0.0733 0.0729,-4.16718 0.0729,-4.16719 h -3.71089 -3.71089 l -0.0225,0.7276 c -0.0124,0.40019 -0.35395,-0.87974 -0.759,-2.84427 -0.84162,-4.08199 -1.42894,-5.71082 -2.20985,-6.12875 -0.46026,-0.24633 -0.64174,-0.18179 -1.14985,0.40892 -0.8768,1.01935 -1.28261,2.62186 -2.75499,10.87921 -1.35928,7.62314 -2.2531,11.50937 -2.64712,11.50937 -0.42191,0 -1.24451,-3.29999 -2.20944,-8.86354 -1.90529,-10.9854 -2.50288,-13.30719 -3.57241,-13.87958 -0.45998,-0.24618 -0.65719,-0.19229 -1.16888,0.31941 -0.82907,0.82907 -1.51312,3.50958 -2.81899,11.04663 -1.14988,6.63664 -1.9743,10.46885 -2.39063,11.1125 -0.22819,0.35278 -0.28524,0.35278 -0.51342,0 -0.40709,-0.62935 -1.21079,-4.39032 -2.40272,-11.24363 -1.6495,-9.48419 -2.29234,-11.4702 -3.66253,-11.31522 -0.54589,0.0618 -0.55721,-0.0227 -0.55721,-4.15416 0,-4.77566 0.24166,-6.29163 1.3934,-8.74116 1.01319,-2.15484 3.70161,-4.9124 5.75035,-5.89824 3.19264,-1.536264 2.74784,-1.510092 25.66458,-1.510092 22.84943,0 22.49512,-0.02043 25.58315,1.475242 2.84503,1.37798 5.58271,4.57082 6.54648,7.6349 l 0.47047,1.49574 -0.67989,0.98091 c -0.37393,0.53951 -1.59387,1.74954 -2.71097,2.68896 -4.06112,3.4152 -4.01488,4.44485 0.32943,7.33561 3.26933,2.17546 3.87693,3.13934 2.67436,4.2425 -0.92623,0.84966 -2.8999,1.73803 -7.2099,3.24526 -4.33604,1.51634 -5.77298,2.15976 -6.68073,2.99144 -1.62144,1.48558 -0.17491,2.5587 6.68073,4.95615 9.17067,3.20703 9.73047,4.23896 4.20261,7.74705 -3.8429,2.43877 -3.90764,3.63595 -0.36615,6.76989 1.23693,1.09458 2.56646,2.41461 2.95451,2.9334 l 0.70556,0.94324 -0.49697,1.41118 c -1.46603,4.16296 -5.37048,7.56482 -9.72456,8.47281 -2.10163,0.43827 -43.10335,0.36229 -44.94025,-0.0833 z m 24.72012,-11.54979 c 1.21094,-0.42213 1.38159,-1.2743 1.38159,-6.89945 v -4.9876 h -3.70417 -3.70417 l 0.004,5.4901 c 0.002,3.01956 0.0949,5.633 0.20591,5.80766 0.11102,0.17465 0.49615,0.43499 0.85584,0.57854 0.88654,0.35379 3.9578,0.36045 4.96094,0.0108 z m 1.32714,-34.64122 c 0.0846,-5.03242 -0.0181,-6.12019 -0.6363,-6.73837 -0.5922,-0.59219 -5.70766,-0.58376 -6.30181,0.0104 -0.35152,0.35153 -0.41578,1.27263 -0.41578,5.96059 v 5.54482 l 3.63803,-0.0736 3.63802,-0.0736 z"
         id="path400" /><path
         style="fill:#7e5576;stroke-width:0.264583"
         d="m 409.61513,153.15441 c -0.36205,-0.49711 -1.6703,-1.7982 -2.90723,-2.8913 -3.54182,-3.13001 -3.47699,-4.32828 0.36615,-6.76721 1.03554,-0.65718 2.26976,-1.56251 2.7427,-2.01184 l 0.8599,-0.81697 -0.0264,6.07117 c -0.0145,3.33914 -0.10524,6.35216 -0.20162,6.69559 -0.17325,0.61728 -0.18276,0.61409 -0.83352,-0.27944 z m -58.50348,-9.11874 c -0.33238,-0.40218 -0.31272,-0.40799 0.23218,-0.0686 0.51052,0.31792 0.68012,0.31792 1.19063,0 0.54491,-0.33935 0.56457,-0.33354 0.23219,0.0686 -0.19972,0.24167 -0.5721,0.43939 -0.8275,0.43939 -0.25541,0 -0.62778,-0.19772 -0.8275,-0.43939 z m 12.94872,0.25865 c 0.191,-0.0764 0.4192,-0.067 0.50712,0.0209 0.0879,0.0879 -0.0684,0.15046 -0.34727,0.13897 -0.30822,-0.0127 -0.37092,-0.0754 -0.15985,-0.15985 z m 1.10794,-0.61301 c 0.15576,-0.29105 0.34274,-0.52917 0.4155,-0.52917 0.0728,0 0.005,0.23812 -0.15091,0.52917 -0.15576,0.29104 -0.34274,0.52916 -0.4155,0.52916 -0.0728,0 -0.005,-0.23812 0.15091,-0.52916 z m -1.99525,-0.0176 c -0.0959,-0.1552 -0.11766,-0.33893 -0.0483,-0.40829 0.0693,-0.0694 0.1966,0.0576 0.28277,0.28219 0.17891,0.46623 0.0264,0.54823 -0.23447,0.1261 z m 46.9565,-4.6342 c -0.57093,-0.68793 -3.05171,-1.80916 -7.25812,-3.28042 -4.3363,-1.51669 -5.77309,-2.16009 -6.68073,-2.99168 -1.62144,-1.48558 -0.17491,-2.55869 6.68073,-4.95615 4.31,-1.50723 6.28367,-2.3956 7.2099,-3.24526 l 0.59531,-0.5461 v 7.71904 c 0,4.24547 -0.0449,7.71903 -0.0999,7.71903 -0.0549,0 -0.25617,-0.18831 -0.44719,-0.41846 z m -36.52987,-3.74872 c -0.0533,-0.25467 -0.0315,-1.83224 0.0487,-3.50573 l 0.14566,-3.04271 0.0528,3.50573 c 0.0495,3.2903 -0.0188,4.13221 -0.2471,3.04271 z m 36.50536,-12.88149 c -0.24162,-0.32053 -1.45074,-1.2558 -2.68694,-2.07839 -4.28213,-2.84939 -4.37866,-3.8906 -0.65374,-7.05142 1.06035,-0.89977 2.31009,-2.11468 2.77721,-2.6998 0.81611,-1.02227 0.85522,-1.03972 1.00064,-0.44643 0.0832,0.33958 0.11777,3.37174 0.0767,6.73812 -0.0703,5.76968 -0.0998,6.08728 -0.51391,5.53792 z"
         id="path398" /><path
         style="fill:#f3080b;stroke-width:0.264583"
         d="m 350.88606,143.36175 c -0.60252,-0.99077 -1.34435,-4.02954 -2.11807,-8.67628 -1.29647,-7.7863 -2.27383,-12.40699 -2.80667,-13.26913 -0.11614,-0.18792 -0.3108,-0.0655 -0.5328,0.33495 -0.32049,0.5782 -0.35057,0.49255 -0.35916,-1.02259 -0.009,-1.59949 0.0128,-1.65364 0.66672,-1.65364 0.55906,0 0.78535,0.24043 1.30728,1.38906 0.65606,1.44379 2.39475,9.80427 2.12853,10.23502 -0.0835,0.13508 -0.0238,0.32473 0.13273,0.42145 0.15649,0.0967 0.25979,0.43236 0.22956,0.74588 -0.0302,0.31353 0.011,0.74864 0.0915,0.96692 0.0805,0.21828 0.40109,1.76609 0.7123,3.43958 0.61458,3.30482 1.31869,5.82084 1.62897,5.82084 0.46455,0 1.20208,-3.20598 2.61726,-11.37709 1.59419,-9.20465 2.33855,-11.64166 3.55584,-11.64166 1.24093,0 1.87925,2.05659 3.44905,11.1125 1.47519,8.51013 2.26751,11.90625 2.77774,11.90625 0.38227,0 1.28978,-3.95229 2.52122,-10.98021 1.73531,-9.90355 2.4288,-12.16394 3.67719,-11.98567 1.49251,0.21312 3.0767,6.58685 3.0448,12.25025 l -0.0194,3.43958 -0.90467,-5.02708 c -0.49758,-2.7649 -1.15407,-5.85775 -1.4589,-6.873 -0.49968,-1.66428 -0.58925,-1.79801 -0.91027,-1.35899 -0.38876,0.53166 -1.24463,3.98087 -1.71439,6.90907 -0.16342,1.01865 -0.36701,2.03068 -0.45243,2.24896 -0.0854,0.21828 -0.13216,0.49888 -0.10388,0.62355 0.0885,0.39012 -1.28467,7.61604 -1.83247,9.64294 -0.63433,2.34706 -1.17143,3.22726 -1.96925,3.22726 -0.46477,0 -0.72384,-0.2915 -1.15985,-1.30502 -0.7395,-1.71902 -1.11897,-3.42898 -2.41132,-10.86581 -1.48834,-8.5647 -2.0963,-11.05702 -2.61846,-10.73431 -0.42108,0.26024 -1.31064,4.1248 -2.40997,10.46973 -1.75193,10.1115 -2.44445,12.43541 -3.70567,12.43541 -0.32068,0 -0.74484,-0.34184 -1.05309,-0.84872 z"
         id="path396" /></g><g
       id="g1043"
       transform="translate(-133.24794,-115.76269)"><path
         style="fill:#5ecaf4;stroke-width:0.264583"
         d="m 277.62317,247.8643 c 0.19099,-0.0764 0.4192,-0.067 0.50712,0.0209 0.0879,0.0879 -0.0684,0.15045 -0.34727,0.13896 -0.30822,-0.0127 -0.37092,-0.0754 -0.15985,-0.15985 z m 43.12708,0 c 0.191,-0.0764 0.4192,-0.067 0.50712,0.0209 0.0879,0.0879 -0.0683,0.15045 -0.34726,0.13896 -0.30823,-0.0127 -0.37092,-0.0754 -0.15986,-0.15985 z m -50.51955,-3.72187 c -0.32911,-0.41964 -0.31975,-0.429 0.0999,-0.0999 0.44072,0.34564 0.58088,0.56292 0.36312,0.56292 -0.0549,0 -0.2633,-0.20836 -0.46302,-0.46303 z m 57.71291,0.36313 c 0,-0.0549 0.20836,-0.2633 0.46302,-0.46302 0.41965,-0.32911 0.42901,-0.31975 0.0999,0.0999 -0.34564,0.44073 -0.56291,0.58089 -0.56291,0.36313 z m -61.36245,-7.72736 c 0.0127,-0.30823 0.0754,-0.37092 0.15986,-0.15985 0.0764,0.19099 0.067,0.41919 -0.0209,0.50711 -0.0879,0.0879 -0.15045,-0.0684 -0.13897,-0.34726 z m 26.4037,-7.45243 c -0.32911,-0.41965 -0.31975,-0.42901 0.0999,-0.0999 0.25466,0.19972 0.46302,0.40808 0.46302,0.46302 0,0.21776 -0.21727,0.0776 -0.56291,-0.36312 z m 2.94417,-0.46302 c 0.34177,-0.36381 0.68094,-0.66146 0.7537,-0.66146 0.0728,0 -0.14734,0.29765 -0.48912,0.66146 -0.34177,0.3638 -0.68094,0.66146 -0.7537,0.66146 -0.0728,0 0.14734,-0.29766 0.48912,-0.66146 z m 1.71979,-1.45521 c 0.26339,-0.29104 0.53842,-0.52917 0.61118,-0.52917 0.0728,0 -0.0832,0.23813 -0.3466,0.52917 -0.26339,0.29104 -0.53842,0.52916 -0.61118,0.52916 -0.0728,0 0.0832,-0.23812 0.3466,-0.52916 z m 1.5875,-1.32292 c 0.26339,-0.29104 0.53842,-0.52917 0.61118,-0.52917 0.0728,0 -0.0832,0.23813 -0.3466,0.52917 -0.26339,0.29104 -0.53842,0.52917 -0.61118,0.52917 -0.0728,0 0.0832,-0.23813 0.3466,-0.52917 z m 1.5875,-1.32292 c 0.26339,-0.29104 0.53842,-0.52916 0.61118,-0.52916 0.0728,0 -0.0832,0.23812 -0.3466,0.52916 -0.26339,0.29105 -0.53842,0.52917 -0.61118,0.52917 -0.0728,0 0.0832,-0.23812 0.3466,-0.52917 z m 1.19063,-0.89364 c 0,-0.0549 0.20835,-0.2633 0.46302,-0.46302 0.41964,-0.32911 0.429,-0.31975 0.0999,0.0999 -0.34565,0.44073 -0.56292,0.58089 -0.56292,0.36313 z m 20.62325,-0.89229 -0.9118,-0.99219 0.99219,0.9118 c 0.92351,0.84868 1.11384,1.07257 0.9118,1.07257 -0.0442,0 -0.4907,-0.44648 -0.99219,-0.99218 z m -11.02266,-0.41025 c 0.32223,-0.33478 0.63474,-0.57364 0.69449,-0.53079 0.15439,0.11073 -0.80821,1.13947 -1.06622,1.13947 -0.11777,0 0.0495,-0.27391 0.37173,-0.60868 z m 17.72267,-1.16217 c 0.25743,-0.0671 0.61462,-0.0627 0.79375,0.01 0.17913,0.0725 -0.0315,0.12736 -0.46806,0.12197 -0.43656,-0.005 -0.58312,-0.0647 -0.32569,-0.13178 z m -5.77637,-5.17446 -0.7771,-0.85989 0.85989,0.7771 c 0.80155,0.72437 0.98152,0.94269 0.77711,0.94269 -0.0455,0 -0.43249,-0.38696 -0.8599,-0.8599 z m -10.36825,-2.77243 c 0.5457,-0.0571 1.43867,-0.0571 1.98438,0 0.5457,0.0571 0.0992,0.10379 -0.99219,0.10379 -1.09141,0 -1.53789,-0.0467 -0.99219,-0.10379 z m -1.57805,-5.28398 c -0.32222,-0.33478 -0.4895,-0.60869 -0.37173,-0.60869 0.25801,0 1.22061,1.02874 1.06622,1.13947 -0.0597,0.0428 -0.37226,-0.19601 -0.69449,-0.53078 z m -9.22886,-1.204 -0.50403,-0.59532 0.59532,0.50403 c 0.55944,0.47366 0.71576,0.6866 0.50402,0.6866 -0.0502,0 -0.31809,-0.26789 -0.59531,-0.59531 z m -1.5875,-1.32292 -0.50403,-0.59531 0.59532,0.50402 c 0.55944,0.47367 0.71576,0.6866 0.50402,0.6866 -0.0502,0 -0.31809,-0.26789 -0.59531,-0.59531 z m -1.5875,-1.32292 -0.50403,-0.59531 0.59532,0.50403 c 0.55944,0.47366 0.71576,0.68659 0.50402,0.68659 -0.0502,0 -0.31809,-0.26789 -0.59531,-0.59531 z m -1.5875,-1.32292 -0.50403,-0.59531 0.59532,0.50403 c 0.55944,0.47366 0.71576,0.6866 0.50402,0.6866 -0.0502,0 -0.31809,-0.26789 -0.59531,-0.59532 z m -1.71468,-1.4552 -0.64143,-0.72761 0.7276,0.64144 c 0.68006,0.59951 0.84894,0.81377 0.64144,0.81377 -0.0474,0 -0.37482,-0.32742 -0.72761,-0.7276 z m -3.15497,-0.16604 c 0,-0.0549 0.20836,-0.26331 0.46302,-0.46302 0.41964,-0.32911 0.429,-0.31975 0.0999,0.0999 -0.34565,0.44073 -0.56292,0.58089 -0.56292,0.36313 z m -26.17287,-7.72737 c 0.0127,-0.30822 0.0754,-0.37092 0.15986,-0.15985 0.0764,0.191 0.067,0.4192 -0.0209,0.50712 -0.0879,0.0879 -0.15045,-0.0684 -0.13897,-0.34727 z m 65.35209,0 c 0.0127,-0.30822 0.0754,-0.37092 0.15985,-0.15985 0.0764,0.191 0.067,0.4192 -0.0209,0.50712 -0.0879,0.0879 -0.15045,-0.0684 -0.13896,-0.34727 z m -61.93339,-7.0893 c 0,-0.0549 0.20836,-0.2633 0.46302,-0.46302 0.41964,-0.32911 0.429,-0.31975 0.0999,0.0999 -0.34564,0.44073 -0.56292,0.58089 -0.56292,0.36313 z m 58.17459,-0.36313 c -0.32911,-0.41964 -0.31975,-0.429 0.0999,-0.0999 0.44073,0.34564 0.58088,0.56291 0.36312,0.56291 -0.0549,0 -0.2633,-0.20836 -0.46302,-0.46302 z m -50.55128,-3.68647 c 0.19099,-0.0764 0.4192,-0.067 0.50712,0.0209 0.0879,0.0879 -0.0684,0.15045 -0.34727,0.13897 -0.30822,-0.0127 -0.37092,-0.0754 -0.15985,-0.15986 z m 43.12708,0 c 0.191,-0.0764 0.4192,-0.067 0.50712,0.0209 0.0879,0.0879 -0.0683,0.15045 -0.34726,0.13897 -0.30823,-0.0127 -0.37092,-0.0754 -0.15986,-0.15986 z"
         id="path440" /><path
         style="fill:#00acee;stroke-width:0.264583"
         d="m 277.67278,247.86664 c -4.76171,-0.82866 -8.64732,-4.09015 -10.37258,-8.7065 -0.55998,-1.49835 -0.58938,-2.00991 -0.67944,-11.81875 l -0.0941,-10.2526 h 12.98141 12.9814 v 5.79152 c 0,5.1323 0.0527,5.85339 0.46302,6.33502 0.4538,0.53267 0.82926,0.66763 1.68259,0.60481 0.2342,-0.0172 2.19873,-1.51852 4.36563,-3.33617 l 3.9398,-3.30481 4.25847,-0.002 c 5.27435,-0.003 5.13424,0.0895 5.13424,-3.39685 v -2.42656 l 1.65365,0.006 c 1.92372,0.008 3.4943,0.32085 5.38903,1.0751 1.40705,0.56011 1.68866,0.92235 2.20352,2.83439 0.66539,2.47107 3.58887,3.88925 8.01742,3.88925 h 2.57924 l 5.3e-4,5.56681 c 2.7e-4,4.13541 -0.10368,5.97229 -0.40448,7.14375 -1.14939,4.4761 -4.12679,7.79245 -8.47998,9.44532 l -1.56613,0.59466 -21.69584,0.0363 c -11.93279,0.02 -21.99357,-0.0155 -22.35738,-0.0788 z m 49.02969,-27.17458 c -1.21632,-0.57921 -1.3944,-0.76975 -1.55671,-1.66563 -0.10081,-0.55638 -0.34349,-1.32831 -0.53928,-1.71539 -0.51185,-1.01191 -2.14186,-2.27073 -3.54287,-2.73607 -1.7433,-0.57903 -5.44198,-1.18957 -7.20906,-1.18999 l -1.52135,-3.6e-4 v -2.47253 c 0,-3.42231 0.11091,-3.3483 -5.01784,-3.3483 h -4.05014 l -3.95667,-3.32296 c -2.17617,-1.82763 -4.21377,-3.41978 -4.52799,-3.53811 -0.72798,-0.27413 -1.64658,0.0657 -2.00924,0.74333 -0.17502,0.32703 -0.28187,2.73993 -0.28187,6.36493 v 5.83822 h -12.98123 -12.98123 l 0.0867,-10.38489 0.0867,-10.3849 0.73165,-1.83858 c 1.52248,-3.82582 4.50053,-6.66041 8.38866,-7.98458 1.37689,-0.46891 2.65141,-0.49559 23.68021,-0.49559 22.09406,0 22.23374,0.003 23.7083,0.56797 3.9185,1.50043 6.57219,4.10294 8.11868,7.9621 l 0.71677,1.78868 0.0791,13.78131 c 0.0904,15.74437 0.30561,14.44733 -2.42191,14.59646 -1.30561,0.0714 -1.89655,-0.04 -2.99939,-0.56512 z"
         id="path438" /><path
         style="fill:#fe0404;stroke-width:0.264583"
         d="m 327.08144,223.81924 c -0.838,-0.20307 -1.86562,-0.54607 -2.28359,-0.76221 -0.88562,-0.45797 -2.1459,-1.87413 -2.1459,-2.41131 0,-0.20417 -0.19032,-0.84686 -0.42292,-1.42819 -0.33872,-0.84655 -0.69426,-1.18863 -1.78594,-1.71833 -1.59376,-0.77331 -5.95197,-1.58501 -7.22651,-1.34591 -0.84435,0.1584 -0.88339,0.13012 -0.88339,-0.64001 v -0.80574 h 1.99829 c 2.01555,0 5.03443,0.55325 6.60921,1.21124 1.57225,0.65693 2.47547,1.64841 2.93187,3.21839 0.5316,1.82866 1.262,2.52435 3.22997,3.07654 1.74219,0.48883 2.96961,0.54275 4.21627,0.18522 0.84414,-0.2421 0.85815,-0.23187 0.85815,0.62683 0,0.80321 -0.0793,0.88606 -0.99219,1.03696 -1.41485,0.23386 -2.36653,0.17739 -4.10332,-0.24348 z M 266.56028,215.369 v -1.7198 h 12.96458 12.96458 v 1.7198 1.71979 h -12.96458 -12.96458 z"
         id="path436" /></g><g
       id="g1025"
       transform="translate(-361.36905,-52.816559)"><path
         style="fill:#00aced;stroke-width:0.264583"
         d="m 437.88271,251.3248 c -4.53331,-1.22088 -8.27278,-4.98825 -9.45445,-9.52499 -0.29122,-1.11807 -0.40513,-2.89537 -0.40513,-6.32118 0,-4.43979 0.0289,-4.72453 0.42242,-4.16269 0.56184,0.80214 1.41255,0.65128 1.99804,-0.35432 0.67571,-1.16056 1.16408,-3.23981 2.36118,-10.0529 1.18502,-6.74437 1.89722,-10.1804 2.35816,-11.37708 0.28391,-0.73709 0.32607,-0.75743 0.59046,-0.28499 0.50317,0.89909 1.2132,4.1032 2.32045,10.47144 1.81462,10.4365 2.34792,12.17084 3.74253,12.17084 1.2368,0 1.96745,-2.58339 3.81638,-13.49375 0.80505,-4.75054 1.58539,-8.27804 2.00445,-9.06105 0.23704,-0.44292 0.33426,-0.47587 0.50482,-0.1711 0.44007,0.78636 1.31844,4.82078 2.38444,10.95194 1.57738,9.07239 2.19674,11.25739 3.31233,11.68549 1.05245,0.40386 1.8641,-1.26727 2.78416,-5.73236 l 0.736,-3.57188 0.0205,8.20208 c 0.0113,4.51115 0.11041,8.34347 0.22029,8.51626 0.34508,0.5427 1.6176,0.87645 3.34174,0.87645 2.26264,0 3.22265,-0.37101 3.57494,-1.38159 0.18025,-0.51702 0.28378,-4.0635 0.28378,-9.71993 v -8.90589 l 1.38907,-1.19108 c 1.33093,-1.14124 3.33799,-2.69694 5.5233,-4.28117 l 1.02232,-0.74113 -0.26977,0.70953 c -0.14837,0.39025 -0.4861,1.02141 -0.75052,1.40259 -0.26441,0.38117 -0.66445,1.05023 -0.88897,1.4868 -0.22453,0.43656 -1.07904,1.98437 -1.89893,3.43958 -1.79888,3.19281 -2.23378,4.43844 -1.75221,5.01869 0.18499,0.2229 0.54632,0.40527 0.80296,0.40527 0.54712,0 3.15968,-1.71665 4.51344,-2.96567 0.51909,-0.47893 1.4716,-1.33771 2.11667,-1.90839 0.64507,-0.57068 2.40581,-2.17803 3.91277,-3.57188 2.39644,-2.21657 5.06529,-4.2495 5.06529,-3.85836 0,0.0727 -0.82171,2.00763 -1.82603,4.29997 -2.08521,4.75946 -2.49067,5.97396 -2.36465,7.08307 0.12234,1.07676 1.00746,1.17212 2.38962,0.25744 0.5869,-0.38839 3.46341,-3.10659 6.39224,-6.04044 l 5.32516,-5.33428 0.0818,1.21725 c 0.0558,0.83009 -0.221,2.21619 -0.87021,4.35801 -1.14872,3.78974 -1.35904,5.12468 -0.93284,5.92104 0.24631,0.46023 0.49349,0.56973 1.08886,0.48235 l 0.77022,-0.11305 v 7.04234 c 0,7.77812 -0.16095,8.9349 -1.62547,11.68263 -0.99296,1.86298 -3.5913,4.41629 -5.45552,5.36096 -2.98751,1.51388 -2.54147,1.48853 -25.84908,1.4696 -17.57811,-0.0143 -21.69142,-0.0846 -22.82702,-0.39047 z m 15.60048,-23.41299 c -0.28933,-0.94128 -0.84326,-3.49736 -1.23095,-5.68017 -1.78491,-10.04963 -2.3088,-12.65504 -2.81856,-14.01751 -1.06859,-2.85606 -2.43912,-2.39332 -3.38942,1.14437 -0.29921,1.11387 -0.96509,4.466 -1.47973,7.44918 -1.48711,8.62024 -2.34659,12.43541 -2.80142,12.43541 -0.42191,0 -1.24452,-3.29999 -2.20944,-8.86354 -1.90048,-10.95768 -2.52133,-13.32347 -3.67522,-14.00468 -0.38815,-0.22915 -0.59462,-0.14998 -1.08805,0.41719 -0.82446,0.94766 -1.51888,3.69704 -2.79702,11.07395 -1.51574,8.74832 -2.27674,11.83588 -2.79056,11.32205 -0.0946,-0.0946 -0.39873,-1.03559 -0.67585,-2.09111 -0.4644,-1.76889 -0.50384,-2.99829 -0.50384,-15.70589 0,-15.15181 0.0238,-15.42211 1.62547,-18.42708 0.99296,-1.86298 3.5913,-4.41629 5.45552,-5.36096 2.98231,-1.51125 2.56287,-1.48701 25.72734,-1.48701 23.43294,0 22.84114,-0.037 25.96036,1.62548 1.86299,0.99296 4.41629,3.5913 5.36096,5.45551 1.33751,2.63945 1.48701,3.80815 1.48701,11.62441 v 7.21714 l -5.35781,5.44034 c -2.9468,2.99219 -5.75773,5.74807 -6.24651,6.12417 l -0.8887,0.68382 0.18603,-0.84701 c 0.10232,-0.46585 0.35267,-1.1664 0.55634,-1.55678 0.20367,-0.39038 0.37104,-0.78726 0.37194,-0.88195 7.9e-4,-0.0947 0.45929,-1.16625 1.01865,-2.38125 0.94205,-2.04624 1.39178,-3.07186 1.49076,-3.39971 0.022,-0.0728 0.19466,-0.62075 0.38377,-1.21775 0.26298,-0.83022 0.27233,-1.21907 0.0397,-1.65365 -0.38096,-0.71182 -0.96292,-0.71776 -2.10505,-0.0215 -0.73677,0.44917 -3.81435,2.97395 -4.95701,4.06663 -0.16187,0.15479 -1.28789,1.1744 -2.50226,2.26581 -1.21437,1.0914 -2.414,2.18534 -2.66584,2.43098 -0.25184,0.24563 -1.14989,1.01029 -1.99566,1.69924 -1.23908,1.00932 -1.55486,1.16422 -1.62576,0.79745 -0.0484,-0.25035 0.025,-0.59829 0.16303,-0.7732 0.13806,-0.17491 0.54921,-0.8538 0.91367,-1.50864 0.36445,-0.65484 1.39402,-2.44078 2.28793,-3.96875 1.81601,-3.10412 2.26233,-4.31782 1.86253,-5.06485 -0.39144,-0.7314 -1.0449,-0.60501 -2.82698,0.54681 -1.45016,0.93728 -4.92935,3.62986 -6.28094,4.86088 -0.52808,0.48097 -0.52946,0.46222 -0.673,-9.12471 -0.0791,-5.28367 -0.1684,-9.62793 -0.19844,-9.65392 -0.03,-0.026 -0.2417,-0.23434 -0.47037,-0.46302 -0.60193,-0.60193 -5.71028,-0.60193 -6.31221,0 -0.35854,0.35855 -0.41577,1.45467 -0.41577,7.96305 0,7.18171 -0.039,7.77992 -0.80537,12.35037 -0.9154,5.45934 -1.74968,9.26307 -2.24129,10.21869 -0.32406,0.62996 -0.35461,0.59246 -0.86202,-1.05833 z m 39.9436,-4.35726 c 0.005,-0.43656 0.0647,-0.58312 0.13177,-0.32569 0.0671,0.25743 0.0627,0.61462 -0.01,0.79375 -0.0725,0.17913 -0.12736,-0.0315 -0.12197,-0.46806 z"
         id="path460" /><path
         style="fill:#576f9a;stroke-width:0.264583"
         d="m 428.51855,231.42591 c -0.31582,-0.4027 -0.31142,-0.42364 0.0337,-0.16077 0.21828,0.16625 0.63499,0.3608 0.92604,0.43233 0.50261,0.12355 0.50091,0.13162 -0.0337,0.16077 -0.30961,0.0169 -0.72633,-0.17767 -0.92604,-0.43233 z m 13.13062,0.27156 c 0.29104,-0.0715 0.70776,-0.26608 0.92604,-0.43233 0.34517,-0.26287 0.34956,-0.24193 0.0337,0.16077 -0.19972,0.25466 -0.61644,0.44921 -0.92604,0.43233 -0.53467,-0.0291 -0.53636,-0.0372 -0.0337,-0.16077 z m 12.25351,0.0107 c 0.191,-0.0764 0.4192,-0.067 0.50712,0.0209 0.0879,0.0879 -0.0684,0.15046 -0.34726,0.13897 -0.30823,-0.0127 -0.37092,-0.0754 -0.15986,-0.15985 z m 25.58378,-5.63706 c -0.0927,-0.14998 0.0135,-0.19434 0.24897,-0.10398 0.45837,0.17589 0.54223,0.36553 0.16165,0.36553 -0.13694,0 -0.32172,-0.1177 -0.41062,-0.26155 z m -12.52781,-0.79678 c 0,-0.3638 0.0601,-0.51263 0.13345,-0.33073 0.0734,0.1819 0.0734,0.47956 0,0.66146 -0.0734,0.1819 -0.13345,0.0331 -0.13345,-0.33073 z M 491.5649,224.216 c 0,-0.36381 0.06,-0.51263 0.13345,-0.33073 0.0734,0.1819 0.0734,0.47955 0,0.66146 -0.0734,0.1819 -0.13345,0.0331 -0.13345,-0.33073 z m -22.64664,-0.0776 c 0.0994,-0.26094 0.24731,-0.40778 0.32877,-0.32632 0.0815,0.0815 1.7e-4,0.29495 -0.18065,0.47443 -0.26131,0.25936 -0.2917,0.22897 -0.14812,-0.14811 z m 24.24395,-0.31932 c 0.005,-0.43656 0.0647,-0.58313 0.13177,-0.3257 0.0671,0.25744 0.0627,0.61462 -0.01,0.79375 -0.0725,0.17914 -0.12736,-0.0315 -0.12197,-0.46805 z M 480.15415,221.967 c 0,-0.14553 0.11541,-0.44318 0.25648,-0.66146 0.14106,-0.21828 0.25648,-0.27782 0.25648,-0.13229 0,0.14552 -0.11542,0.44317 -0.25648,0.66145 -0.14107,0.21828 -0.25648,0.27782 -0.25648,0.1323 z m -9.91297,-0.73902 c 0.0994,-0.26094 0.2473,-0.40778 0.32877,-0.32632 0.0815,0.0815 1.6e-4,0.29496 -0.18066,0.47443 -0.2613,0.25936 -0.2917,0.22897 -0.14811,-0.14811 z m -5.44097,-1.34526 c 0,-0.0549 0.20836,-0.2633 0.46302,-0.46302 0.41965,-0.32911 0.429,-0.31975 0.0999,0.0999 -0.34564,0.44073 -0.56292,0.58089 -0.56292,0.36313 z m 1.38432,-1.22302 c 0.18176,-0.29104 0.43934,-0.52916 0.57241,-0.52916 0.13308,0 0.0265,0.23812 -0.23694,0.52916 -0.26339,0.29104 -0.52097,0.52917 -0.57241,0.52917 -0.0514,0 0.0552,-0.23813 0.23694,-0.52917 z m -1.38432,-0.36448 c 0,-0.0549 0.20836,-0.2633 0.46302,-0.46302 0.41965,-0.32911 0.429,-0.31975 0.0999,0.0999 -0.34564,0.44073 -0.56292,0.58089 -0.56292,0.36313 z m 2.66788,-0.76872 c 0.0606,-0.0412 0.34837,-0.24954 0.63941,-0.46302 0.48948,-0.35904 0.50194,-0.35343 0.16604,0.0749 -0.19972,0.25466 -0.48745,0.46302 -0.63941,0.46302 -0.15195,0 -0.22667,-0.0337 -0.16604,-0.0749 z m 9.89983,-0.4543 c 0.26339,-0.29104 0.53842,-0.52916 0.61118,-0.52916 0.0728,0 -0.0832,0.23812 -0.3466,0.52916 -0.26339,0.29104 -0.53842,0.52917 -0.61118,0.52917 -0.0728,0 0.0832,-0.23813 0.3466,-0.52917 z m -6.21771,-0.26458 c 0.15576,-0.29104 0.34273,-0.52917 0.41549,-0.52917 0.0728,0 0.005,0.23813 -0.15091,0.52917 -0.15576,0.29104 -0.34273,0.52917 -0.41549,0.52917 -0.0728,0 -0.005,-0.23813 0.15091,-0.52917 z m 11.12061,0.39687 c 0,-0.14552 0.11541,-0.44317 0.25647,-0.66145 0.14107,-0.21829 0.25648,-0.27782 0.25648,-0.1323 0,0.14553 -0.11541,0.44318 -0.25648,0.66146 -0.14106,0.21828 -0.25647,0.27781 -0.25647,0.13229 z m -15.61853,-0.49677 c 0,-0.0549 0.20836,-0.2633 0.46302,-0.46302 0.41965,-0.3291 0.42901,-0.31975 0.0999,0.0999 -0.34564,0.44073 -0.56291,0.58089 -0.56291,0.36313 z m 6.61459,-0.69385 c 0.15576,-0.29104 0.34273,-0.52917 0.41549,-0.52917 0.0728,0 0.005,0.23813 -0.15091,0.52917 -0.15576,0.29104 -0.34273,0.52917 -0.41549,0.52917 -0.0728,0 -0.005,-0.23813 0.15091,-0.52917 z m -3.175,-0.39688 c 0.34177,-0.3638 0.68094,-0.66145 0.7537,-0.66145 0.0728,0 -0.14734,0.29765 -0.48912,0.66145 -0.34178,0.36381 -0.68094,0.66146 -0.7537,0.66146 -0.0728,0 0.14734,-0.29765 0.48912,-0.66146 z m -2.38125,0.29698 c 0,-0.0549 0.20836,-0.2633 0.46302,-0.46302 0.41964,-0.32911 0.429,-0.31975 0.0999,0.0999 -0.34565,0.44073 -0.56292,0.58089 -0.56292,0.36313 z m -10.56245,-0.84819 c 0.0127,-0.30823 0.0754,-0.37092 0.15985,-0.15985 0.0764,0.19099 0.067,0.41919 -0.0209,0.50711 -0.0879,0.0879 -0.15045,-0.0683 -0.13896,-0.34726 z m 22.4687,0.0544 c 0,-0.0549 0.20836,-0.2633 0.46302,-0.46302 0.41964,-0.32911 0.429,-0.31975 0.0999,0.0999 -0.34565,0.44073 -0.56292,0.58088 -0.56292,0.36312 z m 11.24479,-0.42927 c 0.26339,-0.29104 0.53842,-0.52917 0.61118,-0.52917 0.0728,0 -0.0832,0.23813 -0.3466,0.52917 -0.26339,0.29104 -0.53842,0.52916 -0.61118,0.52916 -0.0728,0 0.0832,-0.23812 0.3466,-0.52916 z m -21.56354,-0.0963 c 0,-0.0728 0.35719,-0.38664 0.79375,-0.69749 0.43656,-0.31086 0.79375,-0.50567 0.79375,-0.43291 0,0.0728 -0.35719,0.38663 -0.79375,0.69749 -0.43656,0.31086 -0.79375,0.50567 -0.79375,0.43291 z m 13.81818,-0.58603 c 0.25119,-0.26226 0.51367,-0.41989 0.58328,-0.35028 0.0696,0.0696 -0.13592,0.28418 -0.45673,0.47684 -0.55729,0.33467 -0.56293,0.32904 -0.12655,-0.12656 z m -1.81692,-0.31573 c 0.20934,-0.33872 1.75707,-1.48416 1.75707,-1.30036 0,0.0654 -0.4371,0.45229 -0.97132,0.85977 -0.53423,0.40747 -0.88782,0.60574 -0.78575,0.44059 z m 3.91551,-0.58948 c 0,-0.36381 0.0601,-0.51263 0.13346,-0.33073 0.0734,0.1819 0.0734,0.47955 0,0.66145 -0.0734,0.18191 -0.13346,0.0331 -0.13346,-0.33072 z m 7.76344,-0.26459 c 0.26339,-0.29104 0.53842,-0.52916 0.61118,-0.52916 0.0728,0 -0.0832,0.23812 -0.3466,0.52916 -0.26339,0.29104 -0.53842,0.52917 -0.61118,0.52917 -0.0728,0 0.0832,-0.23813 0.3466,-0.52917 z m -19.51302,-0.96898 c 0.1819,-0.0734 0.47955,-0.0734 0.66145,0 0.1819,0.0734 0.0331,0.13346 -0.33073,0.13346 -0.3638,0 -0.51263,-0.06 -0.33072,-0.13346 z m 10.58333,0 c 0.1819,-0.0734 0.47956,-0.0734 0.66146,0 0.1819,0.0734 0.0331,0.13346 -0.33073,0.13346 -0.36381,0 -0.51263,-0.06 -0.33073,-0.13346 z m -48.6668,-5.56175 c 0.191,-0.0764 0.4192,-0.067 0.50712,0.0209 0.0879,0.0879 -0.0683,0.15045 -0.34727,0.13896 -0.30822,-0.0127 -0.37092,-0.0754 -0.15985,-0.15985 z"
         id="path458" /><path
         style="fill:#f2080b;stroke-width:0.264583"
         d="m 428.435,231.03631 c -0.30354,-0.43338 -0.40638,-1.21625 -0.39099,-2.97657 0.0115,-1.31368 0.057,-2.26946 0.10107,-2.12394 0.0441,0.14553 0.29167,1.00873 0.55016,1.91823 0.2585,0.90951 0.5656,1.65365 0.68244,1.65365 0.46386,0 1.49945,-4.65755 2.88263,-12.96458 1.22541,-7.35952 2.11621,-10.05417 3.3237,-10.05417 1.24502,0 1.90733,2.25872 3.6851,12.56771 0.93396,5.41581 1.81046,9.39563 2.23721,10.15819 0.52614,0.94015 1.1886,-1.60335 2.78357,-10.68736 1.74089,-9.91512 2.39538,-12.03854 3.71057,-12.03854 1.20798,0 1.90927,2.51183 3.95204,14.15521 1.0189,5.80747 1.7249,8.69379 2.13209,8.7165 0.41012,0.0229 1.3153,-3.51717 2.1273,-8.31963 0.40597,-2.40109 0.85151,-4.48468 0.99007,-4.63021 0.49812,-0.52315 -0.0264,6.99572 -0.70329,10.08202 -0.80415,3.66633 -1.49922,5.13152 -2.43434,5.13152 -1.25597,0 -1.77908,-1.77507 -3.66471,-12.43541 -1.17207,-6.62626 -1.78987,-9.4547 -2.24137,-10.26148 -0.1943,-0.3472 -0.27028,-0.32648 -0.52105,0.14209 -0.43707,0.81666 -1.20974,4.36028 -2.14881,9.85481 -1.41044,8.25256 -2.16168,11.39762 -2.94912,12.34643 -0.16139,0.19446 -0.5634,0.35356 -0.89336,0.35356 -1.18403,0 -1.95374,-2.62446 -3.56949,-12.17083 -0.96009,-5.6725 -1.77163,-9.37897 -2.25931,-10.31875 l -0.34325,-0.66146 -0.30467,0.79375 c -0.48847,1.27261 -0.97321,3.57796 -2.1151,10.05903 -1.79374,10.18081 -2.41242,12.29826 -3.59333,12.29826 -0.33763,0 -0.79922,-0.26461 -1.02576,-0.58803 z m 39.07719,-4.88151 c -0.96659,-0.38229 -0.11702,-2.57973 3.0973,-8.01124 0.90002,-1.52084 1.79779,-3.15144 1.99505,-3.62355 l 0.35866,-0.85838 -1.23722,0.79419 c -1.31684,0.84529 -3.2511,2.30466 -4.18494,3.15747 -0.31155,0.28452 -0.62638,0.51731 -0.69962,0.51731 -0.0732,0 -0.53271,0.37433 -1.02104,0.83186 -0.85803,0.80389 -0.89079,0.8123 -0.97433,0.25002 -0.10943,-0.73647 0.18895,-1.08807 2.4677,-2.90786 4.29725,-3.43175 5.57581,-4.25944 6.57967,-4.25944 1.22195,0 0.92114,1.24732 -1.22186,5.06639 -3.00745,5.35966 -3.13408,5.59433 -3.52943,6.54053 -0.27443,0.6568 -0.28568,0.82738 -0.0425,0.64416 1.19732,-0.9021 4.66685,-3.78637 5.34799,-4.44587 0.45089,-0.43657 1.24413,-1.15094 1.76276,-1.5875 0.51863,-0.43657 1.77371,-1.53812 2.78907,-2.44789 2.8777,-2.57848 4.59297,-3.76982 5.42771,-3.76982 0.69538,0 0.74596,0.0726 0.74596,1.07111 0,0.58911 -0.23812,1.56398 -0.52917,2.16637 -0.29104,0.60238 -0.52916,1.19253 -0.52916,1.31143 0,0.1189 -0.30774,0.84068 -0.68386,1.60395 -0.6836,1.38724 -2.49114,5.85564 -2.49114,6.15831 0,0.41259 1.89043,-1.31261 7.01003,-6.39733 5.19658,-5.16117 5.56042,-5.46892 5.64164,-4.77199 0.0749,0.64248 -0.32536,1.15774 -2.90898,3.74492 -1.6477,1.64996 -3.77013,3.81503 -4.71651,4.81127 -3.30501,3.47909 -5.23095,4.80781 -6.19048,4.27083 -0.39462,-0.22084 -0.44452,-0.46904 -0.29489,-1.46683 0.0991,-0.66056 0.40073,-1.68992 0.67038,-2.28747 0.26965,-0.59754 1.02929,-2.27707 1.68808,-3.73228 1.30468,-2.88191 2.06597,-4.89479 1.85124,-4.89479 -0.38232,0 -4.70646,3.63039 -7.1462,5.9997 -0.49808,0.48371 -1.00976,0.87946 -1.13707,0.87946 -0.1273,0 -0.29085,0.15479 -0.36345,0.34397 -0.13851,0.36095 -3.98502,3.66971 -5.34858,4.60084 -0.92262,0.63002 -1.71461,0.88333 -2.18281,0.69815 z m 24.7657,-0.021 c -0.93219,-0.20107 -0.74066,-2.33105 0.565,-6.28339 l 0.78665,-2.38125 -0.1064,2.64584 c -0.0585,1.45521 -0.19128,3.0497 -0.29501,3.54331 -0.13457,0.64041 -0.10263,0.84435 0.11153,0.71199 0.20159,-0.12459 0.30013,0.11357 0.30013,0.72531 0,0.9342 -0.40669,1.24422 -1.3619,1.03819 z"
         id="path456" /></g><g
       id="g1034"
       transform="translate(-347.94539,-47.289668)"><path
         style="fill:#5fcaf4;stroke-width:0.264583"
         d="m 359.05564,246.01221 c 0.191,-0.0764 0.4192,-0.067 0.50712,0.0209 0.0879,0.0879 -0.0683,0.15045 -0.34726,0.13896 -0.30823,-0.0127 -0.37092,-0.0754 -0.15986,-0.15985 z m 43.12709,0 c 0.19099,-0.0764 0.4192,-0.067 0.50712,0.0209 0.0879,0.0879 -0.0684,0.15045 -0.34727,0.13896 -0.30823,-0.0127 -0.37092,-0.0754 -0.15985,-0.15985 z m -50.51956,-3.72187 c -0.32911,-0.41964 -0.31975,-0.429 0.0999,-0.0999 0.44073,0.34564 0.58089,0.56292 0.36313,0.56292 -0.0549,0 -0.26331,-0.20836 -0.46302,-0.46303 z m 57.71292,0.36313 c 0,-0.0549 0.20836,-0.2633 0.46302,-0.46302 0.41964,-0.32911 0.429,-0.31975 0.0999,0.0999 -0.34564,0.44073 -0.56291,0.58089 -0.56291,0.36313 z m -61.36245,-7.72736 c 0.0127,-0.30823 0.0754,-0.37092 0.15985,-0.15985 0.0764,0.19099 0.067,0.41919 -0.0209,0.50711 -0.0879,0.0879 -0.15045,-0.0684 -0.13896,-0.34726 z m 26.4037,-7.45243 c -0.32911,-0.41965 -0.31975,-0.42901 0.0999,-0.0999 0.25466,0.19972 0.46302,0.40808 0.46302,0.46302 0,0.21776 -0.21727,0.0776 -0.56291,-0.36312 z m 2.415,0.0985 c 0,-0.0549 0.20836,-0.2633 0.46302,-0.46302 0.41964,-0.32911 0.429,-0.31975 0.0999,0.0999 -0.34564,0.44073 -0.56291,0.58089 -0.56291,0.36313 z m 1.71979,-1.48761 c 0.26339,-0.29104 0.53842,-0.52916 0.61118,-0.52916 0.0728,0 -0.0832,0.23812 -0.3466,0.52916 -0.26339,0.29105 -0.53842,0.52917 -0.61118,0.52917 -0.0728,0 0.0832,-0.23812 0.3466,-0.52917 z m 1.98437,-1.71979 c 0.34178,-0.3638 0.68094,-0.66146 0.7537,-0.66146 0.0728,0 -0.14734,0.29766 -0.48911,0.66146 -0.34178,0.36381 -0.68094,0.66146 -0.7537,0.66146 -0.0728,0 0.14734,-0.29765 0.48911,-0.66146 z m 1.71979,-1.45521 c 0.26339,-0.29104 0.53843,-0.52916 0.61119,-0.52916 0.0728,0 -0.0832,0.23812 -0.3466,0.52916 -0.26339,0.29105 -0.53842,0.52917 -0.61118,0.52917 -0.0728,0 0.0832,-0.23812 0.34659,-0.52917 z m 1.5875,-1.32291 c 0.2634,-0.29104 0.53843,-0.52917 0.61119,-0.52917 0.0728,0 -0.0832,0.23813 -0.3466,0.52917 -0.26339,0.29104 -0.53842,0.52916 -0.61118,0.52916 -0.0728,0 0.0832,-0.23812 0.34659,-0.52916 z m 5.2902,-0.79537 c -0.67635,-0.74737 -0.38848,-0.81685 0.32275,-0.0779 0.32222,0.33477 0.4895,0.60868 0.37173,0.60868 -0.11776,0 -0.43028,-0.23885 -0.69448,-0.53078 z m 14.49686,-0.0779 c 0.32223,-0.33478 0.63474,-0.57364 0.69448,-0.53079 0.1544,0.11073 -0.8082,1.13947 -1.06621,1.13947 -0.11777,0 0.0495,-0.27391 0.37173,-0.60868 z m -18.19956,-0.44965 c 0.2634,-0.29104 0.53843,-0.52917 0.61119,-0.52917 0.0728,0 -0.0832,0.23813 -0.3466,0.52917 -0.26339,0.29104 -0.53842,0.52917 -0.61118,0.52917 -0.0728,0 0.0832,-0.23813 0.34659,-0.52917 z m 1.58751,-1.32292 c 0.26339,-0.29104 0.53842,-0.52916 0.61118,-0.52916 0.0728,0 -0.0832,0.23812 -0.3466,0.52916 -0.26339,0.29105 -0.53842,0.52917 -0.61118,0.52917 -0.0728,0 0.0832,-0.23812 0.3466,-0.52917 z m -0.0251,-11.17864 -0.50403,-0.59531 0.59531,0.50402 c 0.55945,0.47367 0.71576,0.6866 0.50403,0.6866 -0.0502,0 -0.3181,-0.26789 -0.59531,-0.59531 z m -1.5875,-1.32292 -0.50403,-0.59531 0.59531,0.50403 c 0.55945,0.47366 0.71576,0.68659 0.50403,0.68659 -0.0502,0 -0.3181,-0.26789 -0.59531,-0.59531 z m 3.33243,0.36228 c 0,-0.25801 1.02874,-1.22061 1.13947,-1.06621 0.0428,0.0597 -0.19601,0.37226 -0.53079,0.69448 -0.33477,0.32222 -0.60868,0.4895 -0.60868,0.37173 z m 14.89226,-0.48119 c -0.32222,-0.33478 -0.4895,-0.60869 -0.37173,-0.60869 0.25801,0 1.22061,1.02874 1.06621,1.13947 -0.0597,0.0428 -0.37225,-0.19601 -0.69448,-0.53078 z m -19.81219,-1.204 -0.50403,-0.59532 0.59531,0.50403 c 0.55945,0.47366 0.71576,0.6866 0.50403,0.6866 -0.0502,0 -0.3181,-0.26789 -0.59531,-0.59531 z m -1.5875,-1.32292 -0.50403,-0.59531 0.59531,0.50402 c 0.55945,0.47367 0.71576,0.6866 0.50403,0.6866 -0.0502,0 -0.3181,-0.26789 -0.59531,-0.59531 z m -1.5875,-1.32292 -0.50403,-0.59531 0.59531,0.50403 c 0.55945,0.47366 0.71576,0.68659 0.50403,0.68659 -0.0502,0 -0.3181,-0.26789 -0.59531,-0.59531 z m -1.5875,-1.32292 -0.50403,-0.59531 0.59531,0.50403 c 0.55945,0.47366 0.71576,0.6866 0.50403,0.6866 -0.0502,0 -0.3181,-0.26789 -0.59531,-0.59532 z m -1.85209,-1.5875 -0.50403,-0.59531 0.59532,0.50403 c 0.55944,0.47366 0.71576,0.6866 0.50403,0.6866 -0.0502,0 -0.3181,-0.26789 -0.59532,-0.59532 z m -3.01757,-0.0337 c 0,-0.0549 0.20836,-0.26331 0.46302,-0.46302 0.41965,-0.32911 0.42901,-0.31975 0.0999,0.0999 -0.34564,0.44073 -0.56292,0.58089 -0.56292,0.36313 z m -26.17286,-7.72737 c 0.0127,-0.30822 0.0754,-0.37092 0.15985,-0.15985 0.0764,0.191 0.067,0.4192 -0.0209,0.50712 -0.0879,0.0879 -0.15045,-0.0684 -0.13896,-0.34727 z m 65.35209,0 c 0.0127,-0.30822 0.0754,-0.37092 0.15985,-0.15985 0.0764,0.191 0.067,0.4192 -0.0209,0.50712 -0.0879,0.0879 -0.15045,-0.0684 -0.13896,-0.34727 z m -61.9334,-7.0893 c 0,-0.0549 0.20836,-0.2633 0.46303,-0.46302 0.41964,-0.32911 0.429,-0.31975 0.0999,0.0999 -0.34565,0.44073 -0.56292,0.58089 -0.56292,0.36313 z m 58.17459,-0.36313 c -0.32911,-0.41964 -0.31975,-0.429 0.0999,-0.0999 0.44073,0.34564 0.58088,0.56291 0.36312,0.56291 -0.0549,0 -0.2633,-0.20836 -0.46302,-0.46302 z m -50.55128,-3.68647 c 0.191,-0.0764 0.4192,-0.067 0.50712,0.0209 0.0879,0.0879 -0.0683,0.15045 -0.34726,0.13897 -0.30823,-0.0127 -0.37092,-0.0754 -0.15986,-0.15986 z m 43.12709,0 c 0.19099,-0.0764 0.4192,-0.067 0.50712,0.0209 0.0879,0.0879 -0.0684,0.15045 -0.34727,0.13897 -0.30823,-0.0127 -0.37092,-0.0754 -0.15985,-0.15986 z"
         id="path430" /><path
         style="fill:#00acee;stroke-width:0.264583"
         d="m 359.10525,246.01455 c -4.7617,-0.82866 -8.64732,-4.09015 -10.37257,-8.7065 -0.55998,-1.49835 -0.58939,-2.00991 -0.67944,-11.81875 l -0.0941,-10.2526 h 12.98141 12.9814 v 5.79152 c 0,5.1323 0.0527,5.85339 0.46302,6.33502 0.9071,1.06474 1.83073,0.8652 3.8329,-0.82809 7.63924,-6.46074 10.27022,-8.65262 10.38601,-8.65262 0.0741,0 0.13474,0.57686 0.13474,1.28191 0,2.1835 -0.094,2.15767 7.85118,2.15767 6.33257,0 6.91852,-0.0387 7.32135,-0.48385 0.38384,-0.42413 0.43788,-1.33348 0.43788,-7.36733 0,-6.33257 -0.0387,-6.91851 -0.48385,-7.32135 -0.42413,-0.38383 -1.33348,-0.43788 -7.36733,-0.43788 -7.81611,0 -7.75923,-0.0152 -7.75923,2.07135 0,0.60701 -0.0574,1.10365 -0.12748,1.10365 -0.0701,0 -2.75939,-2.20955 -5.97618,-4.91011 -3.21679,-2.70056 -6.10623,-5.00708 -6.42097,-5.1256 -0.72882,-0.27445 -1.64734,0.065 -2.01016,0.74297 -0.17502,0.32703 -0.28188,2.73993 -0.28188,6.36493 v 5.83822 h -12.98123 -12.98123 l 0.0867,-10.38489 0.0867,-10.3849 0.73166,-1.83858 c 1.52247,-3.82582 4.50052,-6.66041 8.38866,-7.98458 1.37688,-0.46891 2.65141,-0.49559 23.68021,-0.49559 22.09405,0 22.23374,0.003 23.70829,0.56797 3.91851,1.50043 6.57219,4.10294 8.11868,7.9621 l 0.71678,1.78868 0.075,21.65484 c 0.0655,18.90901 0.0227,21.86132 -0.3375,23.28333 -1.14254,4.51054 -4.11528,7.83578 -8.49011,9.49688 l -1.56614,0.59465 -21.69584,0.0363 c -11.9327,0.02 -21.99349,-0.0155 -22.35729,-0.0788 z"
         id="path428" /><path
         style="fill:#fe0000;stroke-width:0.264583"
         d="m 347.99275,213.51691 v -1.7198 h 12.96459 12.96458 v 1.7198 1.71979 h -12.96458 -12.96459 z"
         id="path426" /></g><g
       id="g1070"
       transform="translate(-253.16764,-12.102925)"><path
         style="fill:#97dcf7;stroke-width:0.264583"
         d="m 264.21439,77.573399 c 0.18191,-0.0734 0.47956,-0.0734 0.66146,0 0.1819,0.0734 0.0331,0.133454 -0.33073,0.133454 -0.3638,0 -0.51263,-0.06006 -0.33073,-0.133454 z m 42.86251,0 c 0.1819,-0.0734 0.47955,-0.0734 0.66145,0 0.1819,0.0734 0.0331,0.133454 -0.33073,0.133454 -0.3638,0 -0.51263,-0.06006 -0.33072,-0.133454 z M 253.20982,66.371544 c 0,-0.363802 0.06,-0.51263 0.13345,-0.330729 0.0734,0.181901 0.0734,0.479558 0,0.661459 -0.0734,0.181901 -0.13345,0.03307 -0.13345,-0.33073 z m 65.35208,0 c 0,-0.363802 0.0601,-0.51263 0.13345,-0.330729 0.0734,0.181901 0.0734,0.479558 0,0.661459 -0.0734,0.181901 -0.13345,0.03307 -0.13345,-0.33073 z m -30.13015,-0.459388 c 0.69562,-0.05468 1.76718,-0.05402 2.38125,0.0016 0.61408,0.05549 0.0449,0.100229 -1.26475,0.09942 -1.30969,-7.93e-4 -1.81211,-0.04621 -1.1165,-0.100888 z m 12.89793,-0.09973 c -0.3597,-0.143547 -0.74483,-0.403889 -0.85585,-0.578541 -0.11102,-0.174654 -0.20368,-9.328031 -0.2059,-20.340838 -0.004,-17.853721 0.041,-20.068339 0.41172,-20.439063 0.32412,-0.324124 1.00941,-0.414881 3.10885,-0.411722 1.4812,0.0022 2.83446,0.09395 3.00726,0.203822 0.1728,0.109874 0.44069,0.532521 0.59531,0.939215 0.39276,1.033026 0.39026,38.412996 -0.003,39.54007 -0.18958,0.543817 -0.554,0.908241 -1.09782,1.097815 -1.00314,0.349697 -4.07441,0.343037 -4.96094,-0.01077 z m -15.12247,-0.43307 c -0.32911,-0.419645 -0.31975,-0.429003 0.0999,-0.0999 0.44073,0.345644 0.58089,0.562917 0.36313,0.562917 -0.0549,0 -0.2633,-0.20836 -0.46302,-0.463021 z m 6.11916,0.363125 c 0,-0.05494 0.20836,-0.2633 0.46303,-0.463021 0.41964,-0.329107 0.429,-0.319749 0.0999,0.0999 -0.34564,0.44073 -0.56292,0.580887 -0.56292,0.363125 z m 0.91937,-20.669896 c 2e-5,-10.768541 0.0327,-15.1353 0.0727,-9.703907 0.04,5.431392 0.04,14.242017 -4e-5,19.579168 -0.04,5.337148 -0.0727,0.893281 -0.0727,-9.875261 z m -7.41535,10.451042 c 0,-4.874948 0.0357,-6.869245 0.0794,-4.431771 0.0437,2.437474 0.0437,6.426068 0,8.863542 -0.0437,2.437474 -0.0794,0.443177 -0.0794,-4.431771 z m 1.7e-4,-21.034375 c 1e-4,-4.947708 0.0358,-6.934383 0.0793,-4.414832 0.0435,2.519551 0.0434,6.567675 -1.8e-4,8.995833 -0.0436,2.428158 -0.0792,0.366707 -0.0791,-4.581001 z m 0.14581,-9.624895 c 0,-0.26685 0.76523,-0.954002 0.88834,-0.797704 0.045,0.05712 -0.13648,0.312208 -0.40327,0.56687 -0.26678,0.254661 -0.48507,0.358537 -0.48507,0.230834 z m 6.54844,-0.341077 c -0.25466,-0.266788 -0.35853,-0.48507 -0.23083,-0.48507 0.26685,0 0.954,0.765225 0.7977,0.888339 -0.0571,0.04499 -0.31221,-0.136481 -0.56687,-0.403269 z m -39.31499,-1.014235 c 0,-0.363802 0.06,-0.512631 0.13345,-0.33073 0.0734,0.181901 0.0734,0.479558 0,0.661459 -0.0734,0.181901 -0.13345,0.03307 -0.13345,-0.330729 z m 35.35323,0.335095 c 0.62232,-0.05589 1.57482,-0.0551 2.11667,0.0017 0.54186,0.05685 0.0327,0.102583 -1.13147,0.101622 -1.16417,-9.52e-4 -1.60751,-0.04748 -0.9852,-0.103369 z m 29.99885,-0.335095 c 0,-0.363802 0.0601,-0.512631 0.13345,-0.33073 0.0734,0.181901 0.0734,0.479558 0,0.661459 -0.0734,0.181901 -0.13345,0.03307 -0.13345,-0.330729 z M 264.49551,12.215804 c 0.191,-0.07643 0.4192,-0.06703 0.50712,0.02089 0.0879,0.08792 -0.0684,0.150453 -0.34726,0.138964 -0.30823,-0.01269 -0.37092,-0.07539 -0.15986,-0.159852 z m 42.59792,0 c 0.191,-0.07643 0.4192,-0.06703 0.50712,0.02089 0.0879,0.08792 -0.0684,0.150453 -0.34726,0.138964 -0.30823,-0.01269 -0.37092,-0.07539 -0.15986,-0.159852 z"
         id="path410" /><path
         style="fill:#01acee;stroke-width:0.264583"
         d="m 263.59552,77.35602 c -4.99743,-1.087344 -8.97707,-5.11117 -10.04691,-10.158446 -0.27803,-1.311675 -0.37254,-4.09637 -0.37597,-11.078634 l -0.005,-9.326562 h 16.25896 16.25896 l 0.0791,9.119018 c 0.0723,8.338997 0.11948,9.159404 0.55153,9.591146 0.69737,0.696864 5.76649,0.696573 6.4634,-2.65e-4 0.44527,-0.445302 0.47246,-1.628865 0.47246,-20.56193 0,-18.933088 -0.0272,-20.116627 -0.47246,-20.561876 -0.69694,-0.696896 -5.76607,-0.697138 -6.4634,-3.18e-4 -0.43237,0.432065 -0.47916,1.257274 -0.55138,9.723438 l -0.0789,9.251204 h -16.25916 -16.25911 l 0.005,-9.458855 c 0.003,-7.095852 0.0974,-9.896554 0.37597,-11.210924 1.08297,-5.109218 5.06127,-9.087519 10.17049,-10.17049 2.57654,-0.546135 41.93801,-0.546135 44.51455,0 5.10922,1.082971 9.08752,5.061272 10.17049,10.17049 0.54614,2.576545 0.54614,41.938013 0,44.514558 -1.08297,5.109217 -5.06127,9.087519 -10.17049,10.17049 -2.48906,0.52759 -42.20723,0.516877 -44.63813,-0.01204 z m 42.6951,-11.532835 c 0.54381,-0.189574 0.90824,-0.553998 1.09781,-1.097815 0.3929,-1.127074 0.3954,-38.507044 0.003,-39.54007 -0.15463,-0.406694 -0.42252,-0.829341 -0.59532,-0.939215 -0.17279,-0.109874 -1.52606,-0.201594 -3.00725,-0.203822 -2.09944,-0.0032 -2.78473,0.0876 -3.10886,0.411722 -0.37072,0.370724 -0.41533,2.585342 -0.41172,20.439063 0.002,11.012807 0.0949,20.166184 0.20591,20.340838 0.11102,0.174652 0.49615,0.434994 0.85584,0.578541 0.88653,0.353795 3.9578,0.360455 4.96094,0.01077 z"
         id="path408" /><path
         style="fill:#fd0101;stroke-width:0.264583"
         d="m 253.16804,45.072586 v -1.719791 h 16.40417 16.40416 v 1.719791 1.719792 h -16.40416 -16.40417 z"
         id="path406" /></g><g
       id="g1077"
       transform="translate(-268.15861,-7.5973233)"><path
         style="fill:#00aced;stroke-width:0.264583"
         d="m 344.67225,72.850722 c -4.5333,-1.220875 -8.27278,-4.988248 -9.45445,-9.52499 -0.32825,-1.260258 -0.40513,-3.402409 -0.40513,-11.289387 v -9.733994 h 8.06979 8.0698 l 0.004,7.077604 c 0.002,3.892682 0.094,7.218984 0.20382,7.391781 0.46407,0.72984 1.84845,0.876448 8.27602,0.876448 h 6.59736 v 7.805208 7.805209 l -9.98802,-0.01741 c -7.71897,-0.01347 -10.30271,-0.102163 -11.37324,-0.390467 z m 24.80084,-7.39733 v -7.805208 h 6.15071 6.1507 L 366.42953,42.30121 351.08455,26.954234 l -0.0711,5.954268 -0.0711,5.954266 h -8.06482 -8.06483 v -9.866287 c 0,-7.891947 0.079,-10.169501 0.39467,-11.381528 1.20354,-4.620704 4.94191,-8.370709 9.5382,-9.567891 2.33254,-0.607548 43.41839,-0.607548 45.75093,0 3.42728,0.892694 6.91046,3.645904 8.44586,6.67586 1.40109,2.764932 1.48701,3.589616 1.48701,14.273559 v 9.866287 h -7.80521 -7.80521 v -7.14375 c 0,-6.790973 -0.0261,-7.169882 -0.52916,-7.672917 -0.51674,-0.516733 -0.88195,-0.529167 -15.54343,-0.529167 h -15.01425 l 15.47728,15.47925 15.47727,15.479246 0.071,-6.086538 0.071,-6.086541 h 7.80033 7.80033 v 9.733994 c 0,10.712405 -0.0879,11.489441 -1.62548,14.374286 -0.99296,1.862984 -3.59129,4.41629 -5.45551,5.360958 -2.75999,1.398593 -3.60084,1.487012 -14.14127,1.487012 h -9.73399 z"
         id="path390" /><path
         style="fill:#fc0001;stroke-width:0.264583"
         d="m 366.03351,65.453392 v -7.805208 h 1.71979 1.71979 v 7.805208 7.805209 h -1.71979 -1.71979 z M 334.81267,40.582559 v -1.719791 h 8.06979 8.0698 v 1.719791 1.719792 h -8.0698 -8.06979 z m 50.00625,0 v -1.719791 h 7.80521 7.80521 v 1.719791 1.719792 h -7.80521 -7.80521 z"
         id="path388" /></g><g
       id="g1086"
       transform="translate(-292.87472,-25.72476)"><path
         style="fill:#63ccf4;stroke-width:0.264583"
         d="m 437.61931,91.166889 c 0.25743,-0.0671 0.61462,-0.0627 0.79375,0.01 0.17913,0.0725 -0.0315,0.12736 -0.46805,0.12197 -0.43657,-0.005 -0.58313,-0.0647 -0.3257,-0.13177 z m 42.06875,0 c 0.25743,-0.0671 0.61462,-0.0627 0.79375,0.01 0.17913,0.0725 -0.0315,0.12736 -0.46806,0.12197 -0.43656,-0.005 -0.58312,-0.0647 -0.32569,-0.13177 z m -48.52368,-2.66092 c -0.32911,-0.41965 -0.31975,-0.42901 0.0999,-0.0999 0.25466,0.19972 0.46302,0.40808 0.46302,0.46302 0,0.21777 -0.21727,0.0776 -0.56291,-0.36312 z m 55.06708,0.36312 c 0,-0.0549 0.20836,-0.2633 0.46302,-0.46302 0.41965,-0.32911 0.42901,-0.31975 0.0999,0.0999 -0.34565,0.44073 -0.56292,0.58089 -0.56292,0.36312 z m -60.01864,-9.16052 c 0,-0.3638 0.06,-0.51263 0.13346,-0.33073 0.0734,0.1819 0.0734,0.47956 0,0.66146 -0.0734,0.1819 -0.13346,0.0331 -0.13346,-0.33073 z m 65.35208,0 c 0,-0.3638 0.0601,-0.51263 0.13346,-0.33073 0.0734,0.1819 0.0734,0.47956 0,0.66146 -0.0734,0.1819 -0.13346,0.0331 -0.13346,-0.33073 z m -26.10599,-9.32656 -4.75974,-4.82865 4.82865,4.75975 c 4.48623,4.42221 4.94819,4.89755 4.75974,4.89755 -0.0379,0 -2.21079,-2.1729 -4.82865,-4.82865 z m -3.83464,-14.41979 -13.88968,-13.95677 13.95677,13.88968 c 12.97316,12.91079 14.07557,14.02386 13.88968,14.02386 -0.0369,0 -6.31745,-6.28055 -13.95677,-13.95677 z m -5.30497,5.29166 -0.91179,-0.99218 0.99218,0.9118 c 0.92351,0.84868 1.11384,1.07257 0.9118,1.07257 -0.0442,0 -0.4907,-0.44648 -0.99219,-0.99219 z m -9.11663,-9.12812 -4.75975,-4.82865 4.82865,4.75975 c 4.48623,4.42221 4.94819,4.89755 4.75974,4.89755 -0.0379,0 -2.21079,-2.1729 -4.82864,-4.82865 z m -20.98985,-14.75052 c 0,-0.3638 0.06,-0.51263 0.13346,-0.33073 0.0734,0.1819 0.0734,0.47956 0,0.66146 -0.0734,0.1819 -0.13346,0.0331 -0.13346,-0.33073 z m 65.35208,0 c 0,-0.3638 0.0601,-0.51263 0.13346,-0.33073 0.0734,0.1819 0.0734,0.47956 0,0.66146 -0.0734,0.1819 -0.13346,0.0331 -0.13346,-0.33073 z M 437.61428,25.81577 c 0.25466,-0.06655 0.67138,-0.06655 0.92604,0 0.25466,0.06655 0.0463,0.121001 -0.46302,0.121001 -0.50933,0 -0.71768,-0.05445 -0.46302,-0.121001 z m 41.80416,0 c 0.25466,-0.06655 0.67138,-0.06655 0.92605,0 0.25466,0.06655 0.0463,0.121001 -0.46303,0.121001 -0.50932,0 -0.71768,-0.05445 -0.46302,-0.121001 z"
         id="path450" /><path
         style="fill:#00acee;stroke-width:0.264583"
         d="m 437.19228,91.059769 c -5.1924,-0.75862 -9.92238,-5.52071 -10.74906,-10.82203 -0.14749,-0.94589 -0.26908,-5.79768 -0.27017,-10.78177 l -0.002,-9.06198 h 14.63068 14.63067 l 0.97974,1.00334 0.97974,1.00335 v 14.47478 14.47478 l -9.32656,-0.0323 c -5.12961,-0.0178 -10.02248,-0.13394 -10.87305,-0.25821 z m 23.63918,-12.46629 v -12.75677 l 4.8449,4.81927 c 4.02257,4.00129 4.9736,4.81926 5.60319,4.81926 1.10332,0 4.63316,-3.54012 4.63316,-4.64665 0,-0.66659 -1.92045,-2.69223 -14.09183,-14.8636 -12.17137,-12.17138 -14.19701,-14.09183 -14.86361,-14.09183 -1.10652,0 -4.64664,3.52984 -4.64664,4.63316 0,0.62959 0.81797,1.58061 4.81926,5.60319 l 4.81927,4.8449 H 439.0601 426.17105 l 0.002,-9.19428 c 0.001,-5.05684 0.12268,-9.96817 0.27018,-10.91406 0.85917,-5.50972 5.59944,-10.123826 11.13952,-10.843041 2.55113,-0.331188 40.24214,-0.331188 42.79327,0 5.54008,0.719215 10.28035,5.333321 11.13952,10.843041 0.36078,2.31362 0.36078,41.07805 0,43.39167 -0.84949,5.44762 -5.51092,10.04497 -10.98753,10.8365 -1.01045,0.14603 -5.85553,0.26788 -10.76686,0.27076 l -8.92968,0.005 z"
         id="path448" /><path
         style="fill:#fb0202;stroke-width:0.264583"
         d="m 457.39188,76.739649 v -14.61058 l 1.71979,1.7045 1.71979,1.70451 v 12.90608 12.90608 h -1.71979 -1.71979 z m -31.22083,-18.06545 v -1.71979 h 13.03837 13.03837 l 1.70451,1.71979 1.7045,1.71979 h -14.74288 -14.74287 z"
         id="path446" /></g><g
       id="g1061"
       transform="translate(-266.53505,-34.035027)"><path
         style="fill:#6bcef4;stroke-width:0.264583"
         d="m 277.87725,166.14155 c 0.19099,-0.0764 0.41919,-0.067 0.50711,0.0209 0.0879,0.0879 -0.0684,0.15046 -0.34726,0.13897 -0.30823,-0.0127 -0.37092,-0.0754 -0.15985,-0.15985 z m 42.59791,0 c 0.191,-0.0764 0.4192,-0.067 0.50712,0.0209 0.0879,0.0879 -0.0684,0.15046 -0.34726,0.13897 -0.30823,-0.0127 -0.37092,-0.0754 -0.15986,-0.15985 z m -48.93205,-2.66353 c -0.32911,-0.41965 -0.31975,-0.42901 0.0999,-0.0999 0.25466,0.19972 0.46302,0.40808 0.46302,0.46302 0,0.21777 -0.21728,0.0776 -0.56292,-0.36312 z m -4.97245,-8.68715 c 0.0127,-0.30823 0.0754,-0.37092 0.15985,-0.15986 0.0764,0.191 0.067,0.4192 -0.0209,0.50712 -0.0879,0.0879 -0.15045,-0.0684 -0.13896,-0.34726 z m 65.35208,0 c 0.0127,-0.30823 0.0754,-0.37092 0.15985,-0.15986 0.0764,0.191 0.067,0.4192 -0.0209,0.50712 -0.0879,0.0879 -0.15045,-0.0684 -0.13897,-0.34726 z m -36.84758,-2.14307 c 0.191,-0.0764 0.4192,-0.067 0.50712,0.0209 0.0879,0.0879 -0.0683,0.15046 -0.34726,0.13897 -0.30823,-0.0127 -0.37092,-0.0754 -0.15986,-0.15985 z m 5.21297,-4.31718 c 2.32614,-2.40109 4.28369,-4.33113 4.35011,-4.28896 0.0664,0.0422 -1.83679,2.00669 -4.22935,4.36562 l -4.35011,4.28897 z m -6.65189,-22.62187 c 5.3e-4,-1.60073 0.0442,-2.22146 0.0968,-1.3794 0.0527,0.84205 0.0522,2.15174 -0.001,2.91041 -0.0533,0.75867 -0.0964,0.0697 -0.0958,-1.53101 z m 5.18797,-8.13594 c 1.52537,-1.56435 2.80529,-2.84427 2.84427,-2.84427 0.19109,0 -0.13158,0.33915 -2.7734,2.91514 l -2.84427,2.7734 z m 3.92387,-3.28959 c 0.19099,-0.0764 0.4192,-0.067 0.50712,0.0209 0.0879,0.0879 -0.0684,0.15046 -0.34727,0.13897 -0.30822,-0.0127 -0.37092,-0.0754 -0.15985,-0.15985 z m -36.17742,-2.09027 c 0.0127,-0.30823 0.0754,-0.37092 0.15985,-0.15985 0.0764,0.19099 0.067,0.4192 -0.0209,0.50711 -0.0879,0.0879 -0.15045,-0.0683 -0.13896,-0.34726 z m 65.35208,0 c 0.0127,-0.30823 0.0754,-0.37092 0.15985,-0.15985 0.0764,0.19099 0.067,0.4192 -0.0209,0.50711 -0.0879,0.0879 -0.15045,-0.0683 -0.13897,-0.34726 z m -62.99172,-6.03097 c 0,-0.0549 0.20836,-0.2633 0.46302,-0.46302 0.41965,-0.32911 0.429,-0.31976 0.0999,0.0999 -0.34564,0.44073 -0.56291,0.58089 -0.56291,0.36313 z m 60.29125,-0.36313 c -0.32911,-0.41965 -0.31975,-0.429 0.0999,-0.0999 0.44073,0.34564 0.58088,0.56291 0.36312,0.56291 -0.0549,0 -0.2633,-0.20836 -0.46302,-0.46302 z m -57.91,-2.01813 c 0,-0.0549 0.20836,-0.2633 0.46302,-0.46302 0.41965,-0.3291 0.429,-0.31975 0.0999,0.0999 -0.34564,0.44073 -0.56291,0.58089 -0.56291,0.36313 z m 55.52875,-0.36312 c -0.32911,-0.41965 -0.31975,-0.429 0.0999,-0.0999 0.44073,0.34564 0.58088,0.56291 0.36312,0.56291 -0.0549,0 -0.2633,-0.20836 -0.46302,-0.46302 z m -48.96377,-2.62814 c 0.19099,-0.0764 0.41919,-0.067 0.50711,0.0209 0.0879,0.0879 -0.0684,0.15045 -0.34726,0.13897 -0.30823,-0.0127 -0.37092,-0.0754 -0.15985,-0.15986 z m 42.59791,0 c 0.191,-0.0764 0.4192,-0.067 0.50712,0.0209 0.0879,0.0879 -0.0684,0.15045 -0.34726,0.13897 -0.30823,-0.0127 -0.37092,-0.0754 -0.15986,-0.15986 z"
         id="path420" /><path
         style="fill:#00aced;stroke-width:0.264583"
         d="m 276.93802,165.92168 c -4.87087,-1.05824 -8.95657,-5.18963 -9.9995,-10.11134 -0.20876,-0.98515 -0.38163,-2.8925 -0.38415,-4.23857 l -0.005,-2.4474 h 13.49374 13.49375 v 1.20265 c 0,1.55391 0.94979,2.64891 2.06384,2.3794 0.43553,-0.10536 2.34058,-1.79197 4.88148,-4.32172 l 4.16719,-4.14892 v -11.44633 -11.44633 h 13.75832 13.75834 l -0.005,16.33802 c -0.004,13.16905 -0.0782,16.68545 -0.38416,18.1292 -1.05948,4.99983 -5.12336,9.06372 -10.12319,10.1232 -2.55622,0.54168 -42.21707,0.53116 -44.71648,-0.0119 z m -10.38365,-36.57491 c 0.005,-18.05439 0.0437,-18.56304 1.63632,-21.56535 1.79938,-3.392 5.51888,-6.10177 9.32174,-6.79119 2.16175,-0.3919 41.52959,-0.3919 43.69135,0 2.42026,0.43877 5.21221,1.90191 6.94692,3.64059 2.78371,2.79008 4.00223,6.07864 4.01114,10.82532 l 0.005,2.4474 h -13.74451 -13.7445 l -0.08,-1.36228 c -0.0658,-1.12039 -0.20617,-1.45618 -0.79072,-1.89116 -1.09754,-0.8167 -1.78636,-0.36034 -6.26132,4.14836 l -4.00814,4.03836 v 11.42398 11.42399 h -13.49413 -13.49375 l 0.005,-16.33802 z"
         id="path418" /><path
         style="fill:#fd0000;stroke-width:0.264583"
         d="m 266.54977,147.40458 v -1.71979 h 13.49375 13.49375 v 1.71979 1.71979 h -13.49375 -13.49375 z m 38.1,-27.78125 v -1.71979 h 13.75833 13.75834 v 1.71979 1.71979 H 318.4081 304.64977 Z"
         id="path416" /></g></g></svg>
