<?xml version="1.0" encoding="UTF-8" standalone="no"?>
<!-- Created with Inkscape (http://www.inkscape.org/) -->

<svg
   width="65.632607mm"
   height="65.616791mm"
   viewBox="0 0 65.632608 65.61679"
   version="1.1"
   id="svg5"
   xml:space="preserve"
   inkscape:version="1.2.1 (9c6d41e410, 2022-07-14, custom)"
   sodipodi:docname="AlleIcons.svg"
   xmlns:inkscape="http://www.inkscape.org/namespaces/inkscape"
   xmlns:sodipodi="http://sodipodi.sourceforge.net/DTD/sodipodi-0.dtd"
   xmlns="http://www.w3.org/2000/svg"
   xmlns:svg="http://www.w3.org/2000/svg"><sodipodi:namedview
     id="namedview7"
     pagecolor="#ffffff"
     bordercolor="#666666"
     borderopacity="1.0"
     inkscape:showpageshadow="2"
     inkscape:pageopacity="0.0"
     inkscape:pagecheckerboard="0"
     inkscape:deskcolor="#d1d1d1"
     inkscape:document-units="mm"
     showgrid="false"
     inkscape:zoom="0.47748556"
     inkscape:cx="783.26976"
     inkscape:cy="594.78238"
     inkscape:window-width="1920"
     inkscape:window-height="1173"
     inkscape:window-x="0"
     inkscape:window-y="27"
     inkscape:window-maximized="1"
     inkscape:current-layer="layer1" /><defs
     id="defs2" /><g
     inkscape:label="Ebene 1"
     inkscape:groupmode="layer"
     id="layer1"
     transform="translate(-66.646112,-66.671937)"><g
       id="g1052"
       transform="translate(-278.39793,-32.030122)"
       inkscape:export-filename="Wellenplättchen.svg"
       inkscape:export-xdpi="96"
       inkscape:export-ydpi="96"><path
         style="fill:#00aced;stroke-width:0.264583"
         d="m 355.20619,163.94315 c -4.80197,-1.16478 -8.84879,-5.33511 -9.85382,-10.15455 -0.45792,-2.19586 -0.38485,-30.94094 0.0808,-31.78139 0.33807,-0.61019 0.36666,-0.6163 0.61968,-0.13229 0.42632,0.81552 1.29105,4.85765 2.31604,10.82618 1.62025,9.43472 2.32958,11.77396 3.57027,11.77396 1.25509,0 1.94755,-2.3097 3.68855,-12.30313 1.05096,-6.03257 1.8852,-9.79194 2.36201,-10.64395 0.45018,-0.80442 1.37703,3.08499 3.07241,12.89291 1.47151,8.51283 2.2232,10.51485 3.69598,9.8438 0.87905,-0.40052 1.52423,-2.57455 2.68577,-9.05005 2.17451,-12.12271 2.74221,-14.43304 3.30271,-13.4408 0.40608,0.71889 1.21671,4.25972 1.9565,8.54601 0.37674,2.18281 0.75071,4.29938 0.83103,4.70348 l 0.14605,0.73473 3.74772,-0.0733 3.74773,-0.0733 0.0729,-4.16718 0.0729,-4.16719 h -3.71089 -3.71089 l -0.0225,0.7276 c -0.0124,0.40019 -0.35395,-0.87974 -0.759,-2.84427 -0.84162,-4.08199 -1.42894,-5.71082 -2.20985,-6.12875 -0.46026,-0.24633 -0.64174,-0.18179 -1.14985,0.40892 -0.8768,1.01935 -1.28261,2.62186 -2.75499,10.87921 -1.35928,7.62314 -2.2531,11.50937 -2.64712,11.50937 -0.42191,0 -1.24451,-3.29999 -2.20944,-8.86354 -1.90529,-10.9854 -2.50288,-13.30719 -3.57241,-13.87958 -0.45998,-0.24618 -0.65719,-0.19229 -1.16888,0.31941 -0.82907,0.82907 -1.51312,3.50958 -2.81899,11.04663 -1.14988,6.63664 -1.9743,10.46885 -2.39063,11.1125 -0.22819,0.35278 -0.28524,0.35278 -0.51342,0 -0.40709,-0.62935 -1.21079,-4.39032 -2.40272,-11.24363 -1.6495,-9.48419 -2.29234,-11.4702 -3.66253,-11.31522 -0.54589,0.0618 -0.55721,-0.0227 -0.55721,-4.15416 0,-4.77566 0.24166,-6.29163 1.3934,-8.74116 1.01319,-2.15484 3.70161,-4.9124 5.75035,-5.89824 3.19264,-1.536264 2.74784,-1.510092 25.66458,-1.510092 22.84943,0 22.49512,-0.02043 25.58315,1.475242 2.84503,1.37798 5.58271,4.57082 6.54648,7.6349 l 0.47047,1.49574 -0.67989,0.98091 c -0.37393,0.53951 -1.59387,1.74954 -2.71097,2.68896 -4.06112,3.4152 -4.01488,4.44485 0.32943,7.33561 3.26933,2.17546 3.87693,3.13934 2.67436,4.2425 -0.92623,0.84966 -2.8999,1.73803 -7.2099,3.24526 -4.33604,1.51634 -5.77298,2.15976 -6.68073,2.99144 -1.62144,1.48558 -0.17491,2.5587 6.68073,4.95615 9.17067,3.20703 9.73047,4.23896 4.20261,7.74705 -3.8429,2.43877 -3.90764,3.63595 -0.36615,6.76989 1.23693,1.09458 2.56646,2.41461 2.95451,2.9334 l 0.70556,0.94324 -0.49697,1.41118 c -1.46603,4.16296 -5.37048,7.56482 -9.72456,8.47281 -2.10163,0.43827 -43.10335,0.36229 -44.94025,-0.0833 z m 24.72012,-11.54979 c 1.21094,-0.42213 1.38159,-1.2743 1.38159,-6.89945 v -4.9876 h -3.70417 -3.70417 l 0.004,5.4901 c 0.002,3.01956 0.0949,5.633 0.20591,5.80766 0.11102,0.17465 0.49615,0.43499 0.85584,0.57854 0.88654,0.35379 3.9578,0.36045 4.96094,0.0108 z m 1.32714,-34.64122 c 0.0846,-5.03242 -0.0181,-6.12019 -0.6363,-6.73837 -0.5922,-0.59219 -5.70766,-0.58376 -6.30181,0.0104 -0.35152,0.35153 -0.41578,1.27263 -0.41578,5.96059 v 5.54482 l 3.63803,-0.0736 3.63802,-0.0736 z"
         id="path400" /><path
         style="fill:#7e5576;stroke-width:0.264583"
         d="m 409.61513,153.15441 c -0.36205,-0.49711 -1.6703,-1.7982 -2.90723,-2.8913 -3.54182,-3.13001 -3.47699,-4.32828 0.36615,-6.76721 1.03554,-0.65718 2.26976,-1.56251 2.7427,-2.01184 l 0.8599,-0.81697 -0.0264,6.07117 c -0.0145,3.33914 -0.10524,6.35216 -0.20162,6.69559 -0.17325,0.61728 -0.18276,0.61409 -0.83352,-0.27944 z m -58.50348,-9.11874 c -0.33238,-0.40218 -0.31272,-0.40799 0.23218,-0.0686 0.51052,0.31792 0.68012,0.31792 1.19063,0 0.54491,-0.33935 0.56457,-0.33354 0.23219,0.0686 -0.19972,0.24167 -0.5721,0.43939 -0.8275,0.43939 -0.25541,0 -0.62778,-0.19772 -0.8275,-0.43939 z m 12.94872,0.25865 c 0.191,-0.0764 0.4192,-0.067 0.50712,0.0209 0.0879,0.0879 -0.0684,0.15046 -0.34727,0.13897 -0.30822,-0.0127 -0.37092,-0.0754 -0.15985,-0.15985 z m 1.10794,-0.61301 c 0.15576,-0.29105 0.34274,-0.52917 0.4155,-0.52917 0.0728,0 0.005,0.23812 -0.15091,0.52917 -0.15576,0.29104 -0.34274,0.52916 -0.4155,0.52916 -0.0728,0 -0.005,-0.23812 0.15091,-0.52916 z m -1.99525,-0.0176 c -0.0959,-0.1552 -0.11766,-0.33893 -0.0483,-0.40829 0.0693,-0.0694 0.1966,0.0576 0.28277,0.28219 0.17891,0.46623 0.0264,0.54823 -0.23447,0.1261 z m 46.9565,-4.6342 c -0.57093,-0.68793 -3.05171,-1.80916 -7.25812,-3.28042 -4.3363,-1.51669 -5.77309,-2.16009 -6.68073,-2.99168 -1.62144,-1.48558 -0.17491,-2.55869 6.68073,-4.95615 4.31,-1.50723 6.28367,-2.3956 7.2099,-3.24526 l 0.59531,-0.5461 v 7.71904 c 0,4.24547 -0.0449,7.71903 -0.0999,7.71903 -0.0549,0 -0.25617,-0.18831 -0.44719,-0.41846 z m -36.52987,-3.74872 c -0.0533,-0.25467 -0.0315,-1.83224 0.0487,-3.50573 l 0.14566,-3.04271 0.0528,3.50573 c 0.0495,3.2903 -0.0188,4.13221 -0.2471,3.04271 z m 36.50536,-12.88149 c -0.24162,-0.32053 -1.45074,-1.2558 -2.68694,-2.07839 -4.28213,-2.84939 -4.37866,-3.8906 -0.65374,-7.05142 1.06035,-0.89977 2.31009,-2.11468 2.77721,-2.6998 0.81611,-1.02227 0.85522,-1.03972 1.00064,-0.44643 0.0832,0.33958 0.11777,3.37174 0.0767,6.73812 -0.0703,5.76968 -0.0998,6.08728 -0.51391,5.53792 z"
         id="path398" /><path
         style="fill:#f3080b;stroke-width:0.264583"
         d="m 350.88606,143.36175 c -0.60252,-0.99077 -1.34435,-4.02954 -2.11807,-8.67628 -1.29647,-7.7863 -2.27383,-12.40699 -2.80667,-13.26913 -0.11614,-0.18792 -0.3108,-0.0655 -0.5328,0.33495 -0.32049,0.5782 -0.35057,0.49255 -0.35916,-1.02259 -0.009,-1.59949 0.0128,-1.65364 0.66672,-1.65364 0.55906,0 0.78535,0.24043 1.30728,1.38906 0.65606,1.44379 2.39475,9.80427 2.12853,10.23502 -0.0835,0.13508 -0.0238,0.32473 0.13273,0.42145 0.15649,0.0967 0.25979,0.43236 0.22956,0.74588 -0.0302,0.31353 0.011,0.74864 0.0915,0.96692 0.0805,0.21828 0.40109,1.76609 0.7123,3.43958 0.61458,3.30482 1.31869,5.82084 1.62897,5.82084 0.46455,0 1.20208,-3.20598 2.61726,-11.37709 1.59419,-9.20465 2.33855,-11.64166 3.55584,-11.64166 1.24093,0 1.87925,2.05659 3.44905,11.1125 1.47519,8.51013 2.26751,11.90625 2.77774,11.90625 0.38227,0 1.28978,-3.95229 2.52122,-10.98021 1.73531,-9.90355 2.4288,-12.16394 3.67719,-11.98567 1.49251,0.21312 3.0767,6.58685 3.0448,12.25025 l -0.0194,3.43958 -0.90467,-5.02708 c -0.49758,-2.7649 -1.15407,-5.85775 -1.4589,-6.873 -0.49968,-1.66428 -0.58925,-1.79801 -0.91027,-1.35899 -0.38876,0.53166 -1.24463,3.98087 -1.71439,6.90907 -0.16342,1.01865 -0.36701,2.03068 -0.45243,2.24896 -0.0854,0.21828 -0.13216,0.49888 -0.10388,0.62355 0.0885,0.39012 -1.28467,7.61604 -1.83247,9.64294 -0.63433,2.34706 -1.17143,3.22726 -1.96925,3.22726 -0.46477,0 -0.72384,-0.2915 -1.15985,-1.30502 -0.7395,-1.71902 -1.11897,-3.42898 -2.41132,-10.86581 -1.48834,-8.5647 -2.0963,-11.05702 -2.61846,-10.73431 -0.42108,0.26024 -1.31064,4.1248 -2.40997,10.46973 -1.75193,10.1115 -2.44445,12.43541 -3.70567,12.43541 -0.32068,0 -0.74484,-0.34184 -1.05309,-0.84872 z"
         id="path396" /></g></g></svg>
