<?xml version="1.0" encoding="UTF-8" standalone="no"?>
<!-- Created with Inkscape (http://www.inkscape.org/) -->

<svg
   width="65.616646mm"
   height="65.60376mm"
   viewBox="0 0 65.616647 65.603759"
   version="1.1"
   id="svg5"
   xml:space="preserve"
   inkscape:version="1.2.1 (9c6d41e410, 2022-07-14, custom)"
   sodipodi:docname="AlleIcons.svg"
   xmlns:inkscape="http://www.inkscape.org/namespaces/inkscape"
   xmlns:sodipodi="http://sodipodi.sourceforge.net/DTD/sodipodi-0.dtd"
   xmlns="http://www.w3.org/2000/svg"
   xmlns:svg="http://www.w3.org/2000/svg"><sodipodi:namedview
     id="namedview7"
     pagecolor="#ffffff"
     bordercolor="#666666"
     borderopacity="1.0"
     inkscape:showpageshadow="2"
     inkscape:pageopacity="0.0"
     inkscape:pagecheckerboard="0"
     inkscape:deskcolor="#d1d1d1"
     inkscape:document-units="mm"
     showgrid="false"
     inkscape:zoom="0.47748556"
     inkscape:cx="783.26976"
     inkscape:cy="594.78238"
     inkscape:window-width="1920"
     inkscape:window-height="1173"
     inkscape:window-x="0"
     inkscape:window-y="27"
     inkscape:window-maximized="1"
     inkscape:current-layer="layer1" /><defs
     id="defs2" /><g
     inkscape:label="Ebene 1"
     inkscape:groupmode="layer"
     id="layer1"
     transform="translate(-66.654077,-133.29938)"><g
       id="g1025"
       transform="translate(-361.36905,-52.816559)"><path
         style="fill:#00aced;stroke-width:0.264583"
         d="m 437.88271,251.3248 c -4.53331,-1.22088 -8.27278,-4.98825 -9.45445,-9.52499 -0.29122,-1.11807 -0.40513,-2.89537 -0.40513,-6.32118 0,-4.43979 0.0289,-4.72453 0.42242,-4.16269 0.56184,0.80214 1.41255,0.65128 1.99804,-0.35432 0.67571,-1.16056 1.16408,-3.23981 2.36118,-10.0529 1.18502,-6.74437 1.89722,-10.1804 2.35816,-11.37708 0.28391,-0.73709 0.32607,-0.75743 0.59046,-0.28499 0.50317,0.89909 1.2132,4.1032 2.32045,10.47144 1.81462,10.4365 2.34792,12.17084 3.74253,12.17084 1.2368,0 1.96745,-2.58339 3.81638,-13.49375 0.80505,-4.75054 1.58539,-8.27804 2.00445,-9.06105 0.23704,-0.44292 0.33426,-0.47587 0.50482,-0.1711 0.44007,0.78636 1.31844,4.82078 2.38444,10.95194 1.57738,9.07239 2.19674,11.25739 3.31233,11.68549 1.05245,0.40386 1.8641,-1.26727 2.78416,-5.73236 l 0.736,-3.57188 0.0205,8.20208 c 0.0113,4.51115 0.11041,8.34347 0.22029,8.51626 0.34508,0.5427 1.6176,0.87645 3.34174,0.87645 2.26264,0 3.22265,-0.37101 3.57494,-1.38159 0.18025,-0.51702 0.28378,-4.0635 0.28378,-9.71993 v -8.90589 l 1.38907,-1.19108 c 1.33093,-1.14124 3.33799,-2.69694 5.5233,-4.28117 l 1.02232,-0.74113 -0.26977,0.70953 c -0.14837,0.39025 -0.4861,1.02141 -0.75052,1.40259 -0.26441,0.38117 -0.66445,1.05023 -0.88897,1.4868 -0.22453,0.43656 -1.07904,1.98437 -1.89893,3.43958 -1.79888,3.19281 -2.23378,4.43844 -1.75221,5.01869 0.18499,0.2229 0.54632,0.40527 0.80296,0.40527 0.54712,0 3.15968,-1.71665 4.51344,-2.96567 0.51909,-0.47893 1.4716,-1.33771 2.11667,-1.90839 0.64507,-0.57068 2.40581,-2.17803 3.91277,-3.57188 2.39644,-2.21657 5.06529,-4.2495 5.06529,-3.85836 0,0.0727 -0.82171,2.00763 -1.82603,4.29997 -2.08521,4.75946 -2.49067,5.97396 -2.36465,7.08307 0.12234,1.07676 1.00746,1.17212 2.38962,0.25744 0.5869,-0.38839 3.46341,-3.10659 6.39224,-6.04044 l 5.32516,-5.33428 0.0818,1.21725 c 0.0558,0.83009 -0.221,2.21619 -0.87021,4.35801 -1.14872,3.78974 -1.35904,5.12468 -0.93284,5.92104 0.24631,0.46023 0.49349,0.56973 1.08886,0.48235 l 0.77022,-0.11305 v 7.04234 c 0,7.77812 -0.16095,8.9349 -1.62547,11.68263 -0.99296,1.86298 -3.5913,4.41629 -5.45552,5.36096 -2.98751,1.51388 -2.54147,1.48853 -25.84908,1.4696 -17.57811,-0.0143 -21.69142,-0.0846 -22.82702,-0.39047 z m 15.60048,-23.41299 c -0.28933,-0.94128 -0.84326,-3.49736 -1.23095,-5.68017 -1.78491,-10.04963 -2.3088,-12.65504 -2.81856,-14.01751 -1.06859,-2.85606 -2.43912,-2.39332 -3.38942,1.14437 -0.29921,1.11387 -0.96509,4.466 -1.47973,7.44918 -1.48711,8.62024 -2.34659,12.43541 -2.80142,12.43541 -0.42191,0 -1.24452,-3.29999 -2.20944,-8.86354 -1.90048,-10.95768 -2.52133,-13.32347 -3.67522,-14.00468 -0.38815,-0.22915 -0.59462,-0.14998 -1.08805,0.41719 -0.82446,0.94766 -1.51888,3.69704 -2.79702,11.07395 -1.51574,8.74832 -2.27674,11.83588 -2.79056,11.32205 -0.0946,-0.0946 -0.39873,-1.03559 -0.67585,-2.09111 -0.4644,-1.76889 -0.50384,-2.99829 -0.50384,-15.70589 0,-15.15181 0.0238,-15.42211 1.62547,-18.42708 0.99296,-1.86298 3.5913,-4.41629 5.45552,-5.36096 2.98231,-1.51125 2.56287,-1.48701 25.72734,-1.48701 23.43294,0 22.84114,-0.037 25.96036,1.62548 1.86299,0.99296 4.41629,3.5913 5.36096,5.45551 1.33751,2.63945 1.48701,3.80815 1.48701,11.62441 v 7.21714 l -5.35781,5.44034 c -2.9468,2.99219 -5.75773,5.74807 -6.24651,6.12417 l -0.8887,0.68382 0.18603,-0.84701 c 0.10232,-0.46585 0.35267,-1.1664 0.55634,-1.55678 0.20367,-0.39038 0.37104,-0.78726 0.37194,-0.88195 7.9e-4,-0.0947 0.45929,-1.16625 1.01865,-2.38125 0.94205,-2.04624 1.39178,-3.07186 1.49076,-3.39971 0.022,-0.0728 0.19466,-0.62075 0.38377,-1.21775 0.26298,-0.83022 0.27233,-1.21907 0.0397,-1.65365 -0.38096,-0.71182 -0.96292,-0.71776 -2.10505,-0.0215 -0.73677,0.44917 -3.81435,2.97395 -4.95701,4.06663 -0.16187,0.15479 -1.28789,1.1744 -2.50226,2.26581 -1.21437,1.0914 -2.414,2.18534 -2.66584,2.43098 -0.25184,0.24563 -1.14989,1.01029 -1.99566,1.69924 -1.23908,1.00932 -1.55486,1.16422 -1.62576,0.79745 -0.0484,-0.25035 0.025,-0.59829 0.16303,-0.7732 0.13806,-0.17491 0.54921,-0.8538 0.91367,-1.50864 0.36445,-0.65484 1.39402,-2.44078 2.28793,-3.96875 1.81601,-3.10412 2.26233,-4.31782 1.86253,-5.06485 -0.39144,-0.7314 -1.0449,-0.60501 -2.82698,0.54681 -1.45016,0.93728 -4.92935,3.62986 -6.28094,4.86088 -0.52808,0.48097 -0.52946,0.46222 -0.673,-9.12471 -0.0791,-5.28367 -0.1684,-9.62793 -0.19844,-9.65392 -0.03,-0.026 -0.2417,-0.23434 -0.47037,-0.46302 -0.60193,-0.60193 -5.71028,-0.60193 -6.31221,0 -0.35854,0.35855 -0.41577,1.45467 -0.41577,7.96305 0,7.18171 -0.039,7.77992 -0.80537,12.35037 -0.9154,5.45934 -1.74968,9.26307 -2.24129,10.21869 -0.32406,0.62996 -0.35461,0.59246 -0.86202,-1.05833 z m 39.9436,-4.35726 c 0.005,-0.43656 0.0647,-0.58312 0.13177,-0.32569 0.0671,0.25743 0.0627,0.61462 -0.01,0.79375 -0.0725,0.17913 -0.12736,-0.0315 -0.12197,-0.46806 z"
         id="path460" /><path
         style="fill:#576f9a;stroke-width:0.264583"
         d="m 428.51855,231.42591 c -0.31582,-0.4027 -0.31142,-0.42364 0.0337,-0.16077 0.21828,0.16625 0.63499,0.3608 0.92604,0.43233 0.50261,0.12355 0.50091,0.13162 -0.0337,0.16077 -0.30961,0.0169 -0.72633,-0.17767 -0.92604,-0.43233 z m 13.13062,0.27156 c 0.29104,-0.0715 0.70776,-0.26608 0.92604,-0.43233 0.34517,-0.26287 0.34956,-0.24193 0.0337,0.16077 -0.19972,0.25466 -0.61644,0.44921 -0.92604,0.43233 -0.53467,-0.0291 -0.53636,-0.0372 -0.0337,-0.16077 z m 12.25351,0.0107 c 0.191,-0.0764 0.4192,-0.067 0.50712,0.0209 0.0879,0.0879 -0.0684,0.15046 -0.34726,0.13897 -0.30823,-0.0127 -0.37092,-0.0754 -0.15986,-0.15985 z m 25.58378,-5.63706 c -0.0927,-0.14998 0.0135,-0.19434 0.24897,-0.10398 0.45837,0.17589 0.54223,0.36553 0.16165,0.36553 -0.13694,0 -0.32172,-0.1177 -0.41062,-0.26155 z m -12.52781,-0.79678 c 0,-0.3638 0.0601,-0.51263 0.13345,-0.33073 0.0734,0.1819 0.0734,0.47956 0,0.66146 -0.0734,0.1819 -0.13345,0.0331 -0.13345,-0.33073 z M 491.5649,224.216 c 0,-0.36381 0.06,-0.51263 0.13345,-0.33073 0.0734,0.1819 0.0734,0.47955 0,0.66146 -0.0734,0.1819 -0.13345,0.0331 -0.13345,-0.33073 z m -22.64664,-0.0776 c 0.0994,-0.26094 0.24731,-0.40778 0.32877,-0.32632 0.0815,0.0815 1.7e-4,0.29495 -0.18065,0.47443 -0.26131,0.25936 -0.2917,0.22897 -0.14812,-0.14811 z m 24.24395,-0.31932 c 0.005,-0.43656 0.0647,-0.58313 0.13177,-0.3257 0.0671,0.25744 0.0627,0.61462 -0.01,0.79375 -0.0725,0.17914 -0.12736,-0.0315 -0.12197,-0.46805 z M 480.15415,221.967 c 0,-0.14553 0.11541,-0.44318 0.25648,-0.66146 0.14106,-0.21828 0.25648,-0.27782 0.25648,-0.13229 0,0.14552 -0.11542,0.44317 -0.25648,0.66145 -0.14107,0.21828 -0.25648,0.27782 -0.25648,0.1323 z m -9.91297,-0.73902 c 0.0994,-0.26094 0.2473,-0.40778 0.32877,-0.32632 0.0815,0.0815 1.6e-4,0.29496 -0.18066,0.47443 -0.2613,0.25936 -0.2917,0.22897 -0.14811,-0.14811 z m -5.44097,-1.34526 c 0,-0.0549 0.20836,-0.2633 0.46302,-0.46302 0.41965,-0.32911 0.429,-0.31975 0.0999,0.0999 -0.34564,0.44073 -0.56292,0.58089 -0.56292,0.36313 z m 1.38432,-1.22302 c 0.18176,-0.29104 0.43934,-0.52916 0.57241,-0.52916 0.13308,0 0.0265,0.23812 -0.23694,0.52916 -0.26339,0.29104 -0.52097,0.52917 -0.57241,0.52917 -0.0514,0 0.0552,-0.23813 0.23694,-0.52917 z m -1.38432,-0.36448 c 0,-0.0549 0.20836,-0.2633 0.46302,-0.46302 0.41965,-0.32911 0.429,-0.31975 0.0999,0.0999 -0.34564,0.44073 -0.56292,0.58089 -0.56292,0.36313 z m 2.66788,-0.76872 c 0.0606,-0.0412 0.34837,-0.24954 0.63941,-0.46302 0.48948,-0.35904 0.50194,-0.35343 0.16604,0.0749 -0.19972,0.25466 -0.48745,0.46302 -0.63941,0.46302 -0.15195,0 -0.22667,-0.0337 -0.16604,-0.0749 z m 9.89983,-0.4543 c 0.26339,-0.29104 0.53842,-0.52916 0.61118,-0.52916 0.0728,0 -0.0832,0.23812 -0.3466,0.52916 -0.26339,0.29104 -0.53842,0.52917 -0.61118,0.52917 -0.0728,0 0.0832,-0.23813 0.3466,-0.52917 z m -6.21771,-0.26458 c 0.15576,-0.29104 0.34273,-0.52917 0.41549,-0.52917 0.0728,0 0.005,0.23813 -0.15091,0.52917 -0.15576,0.29104 -0.34273,0.52917 -0.41549,0.52917 -0.0728,0 -0.005,-0.23813 0.15091,-0.52917 z m 11.12061,0.39687 c 0,-0.14552 0.11541,-0.44317 0.25647,-0.66145 0.14107,-0.21829 0.25648,-0.27782 0.25648,-0.1323 0,0.14553 -0.11541,0.44318 -0.25648,0.66146 -0.14106,0.21828 -0.25647,0.27781 -0.25647,0.13229 z m -15.61853,-0.49677 c 0,-0.0549 0.20836,-0.2633 0.46302,-0.46302 0.41965,-0.3291 0.42901,-0.31975 0.0999,0.0999 -0.34564,0.44073 -0.56291,0.58089 -0.56291,0.36313 z m 6.61459,-0.69385 c 0.15576,-0.29104 0.34273,-0.52917 0.41549,-0.52917 0.0728,0 0.005,0.23813 -0.15091,0.52917 -0.15576,0.29104 -0.34273,0.52917 -0.41549,0.52917 -0.0728,0 -0.005,-0.23813 0.15091,-0.52917 z m -3.175,-0.39688 c 0.34177,-0.3638 0.68094,-0.66145 0.7537,-0.66145 0.0728,0 -0.14734,0.29765 -0.48912,0.66145 -0.34178,0.36381 -0.68094,0.66146 -0.7537,0.66146 -0.0728,0 0.14734,-0.29765 0.48912,-0.66146 z m -2.38125,0.29698 c 0,-0.0549 0.20836,-0.2633 0.46302,-0.46302 0.41964,-0.32911 0.429,-0.31975 0.0999,0.0999 -0.34565,0.44073 -0.56292,0.58089 -0.56292,0.36313 z m -10.56245,-0.84819 c 0.0127,-0.30823 0.0754,-0.37092 0.15985,-0.15985 0.0764,0.19099 0.067,0.41919 -0.0209,0.50711 -0.0879,0.0879 -0.15045,-0.0683 -0.13896,-0.34726 z m 22.4687,0.0544 c 0,-0.0549 0.20836,-0.2633 0.46302,-0.46302 0.41964,-0.32911 0.429,-0.31975 0.0999,0.0999 -0.34565,0.44073 -0.56292,0.58088 -0.56292,0.36312 z m 11.24479,-0.42927 c 0.26339,-0.29104 0.53842,-0.52917 0.61118,-0.52917 0.0728,0 -0.0832,0.23813 -0.3466,0.52917 -0.26339,0.29104 -0.53842,0.52916 -0.61118,0.52916 -0.0728,0 0.0832,-0.23812 0.3466,-0.52916 z m -21.56354,-0.0963 c 0,-0.0728 0.35719,-0.38664 0.79375,-0.69749 0.43656,-0.31086 0.79375,-0.50567 0.79375,-0.43291 0,0.0728 -0.35719,0.38663 -0.79375,0.69749 -0.43656,0.31086 -0.79375,0.50567 -0.79375,0.43291 z m 13.81818,-0.58603 c 0.25119,-0.26226 0.51367,-0.41989 0.58328,-0.35028 0.0696,0.0696 -0.13592,0.28418 -0.45673,0.47684 -0.55729,0.33467 -0.56293,0.32904 -0.12655,-0.12656 z m -1.81692,-0.31573 c 0.20934,-0.33872 1.75707,-1.48416 1.75707,-1.30036 0,0.0654 -0.4371,0.45229 -0.97132,0.85977 -0.53423,0.40747 -0.88782,0.60574 -0.78575,0.44059 z m 3.91551,-0.58948 c 0,-0.36381 0.0601,-0.51263 0.13346,-0.33073 0.0734,0.1819 0.0734,0.47955 0,0.66145 -0.0734,0.18191 -0.13346,0.0331 -0.13346,-0.33072 z m 7.76344,-0.26459 c 0.26339,-0.29104 0.53842,-0.52916 0.61118,-0.52916 0.0728,0 -0.0832,0.23812 -0.3466,0.52916 -0.26339,0.29104 -0.53842,0.52917 -0.61118,0.52917 -0.0728,0 0.0832,-0.23813 0.3466,-0.52917 z m -19.51302,-0.96898 c 0.1819,-0.0734 0.47955,-0.0734 0.66145,0 0.1819,0.0734 0.0331,0.13346 -0.33073,0.13346 -0.3638,0 -0.51263,-0.06 -0.33072,-0.13346 z m 10.58333,0 c 0.1819,-0.0734 0.47956,-0.0734 0.66146,0 0.1819,0.0734 0.0331,0.13346 -0.33073,0.13346 -0.36381,0 -0.51263,-0.06 -0.33073,-0.13346 z m -48.6668,-5.56175 c 0.191,-0.0764 0.4192,-0.067 0.50712,0.0209 0.0879,0.0879 -0.0683,0.15045 -0.34727,0.13896 -0.30822,-0.0127 -0.37092,-0.0754 -0.15985,-0.15985 z"
         id="path458" /><path
         style="fill:#f2080b;stroke-width:0.264583"
         d="m 428.435,231.03631 c -0.30354,-0.43338 -0.40638,-1.21625 -0.39099,-2.97657 0.0115,-1.31368 0.057,-2.26946 0.10107,-2.12394 0.0441,0.14553 0.29167,1.00873 0.55016,1.91823 0.2585,0.90951 0.5656,1.65365 0.68244,1.65365 0.46386,0 1.49945,-4.65755 2.88263,-12.96458 1.22541,-7.35952 2.11621,-10.05417 3.3237,-10.05417 1.24502,0 1.90733,2.25872 3.6851,12.56771 0.93396,5.41581 1.81046,9.39563 2.23721,10.15819 0.52614,0.94015 1.1886,-1.60335 2.78357,-10.68736 1.74089,-9.91512 2.39538,-12.03854 3.71057,-12.03854 1.20798,0 1.90927,2.51183 3.95204,14.15521 1.0189,5.80747 1.7249,8.69379 2.13209,8.7165 0.41012,0.0229 1.3153,-3.51717 2.1273,-8.31963 0.40597,-2.40109 0.85151,-4.48468 0.99007,-4.63021 0.49812,-0.52315 -0.0264,6.99572 -0.70329,10.08202 -0.80415,3.66633 -1.49922,5.13152 -2.43434,5.13152 -1.25597,0 -1.77908,-1.77507 -3.66471,-12.43541 -1.17207,-6.62626 -1.78987,-9.4547 -2.24137,-10.26148 -0.1943,-0.3472 -0.27028,-0.32648 -0.52105,0.14209 -0.43707,0.81666 -1.20974,4.36028 -2.14881,9.85481 -1.41044,8.25256 -2.16168,11.39762 -2.94912,12.34643 -0.16139,0.19446 -0.5634,0.35356 -0.89336,0.35356 -1.18403,0 -1.95374,-2.62446 -3.56949,-12.17083 -0.96009,-5.6725 -1.77163,-9.37897 -2.25931,-10.31875 l -0.34325,-0.66146 -0.30467,0.79375 c -0.48847,1.27261 -0.97321,3.57796 -2.1151,10.05903 -1.79374,10.18081 -2.41242,12.29826 -3.59333,12.29826 -0.33763,0 -0.79922,-0.26461 -1.02576,-0.58803 z m 39.07719,-4.88151 c -0.96659,-0.38229 -0.11702,-2.57973 3.0973,-8.01124 0.90002,-1.52084 1.79779,-3.15144 1.99505,-3.62355 l 0.35866,-0.85838 -1.23722,0.79419 c -1.31684,0.84529 -3.2511,2.30466 -4.18494,3.15747 -0.31155,0.28452 -0.62638,0.51731 -0.69962,0.51731 -0.0732,0 -0.53271,0.37433 -1.02104,0.83186 -0.85803,0.80389 -0.89079,0.8123 -0.97433,0.25002 -0.10943,-0.73647 0.18895,-1.08807 2.4677,-2.90786 4.29725,-3.43175 5.57581,-4.25944 6.57967,-4.25944 1.22195,0 0.92114,1.24732 -1.22186,5.06639 -3.00745,5.35966 -3.13408,5.59433 -3.52943,6.54053 -0.27443,0.6568 -0.28568,0.82738 -0.0425,0.64416 1.19732,-0.9021 4.66685,-3.78637 5.34799,-4.44587 0.45089,-0.43657 1.24413,-1.15094 1.76276,-1.5875 0.51863,-0.43657 1.77371,-1.53812 2.78907,-2.44789 2.8777,-2.57848 4.59297,-3.76982 5.42771,-3.76982 0.69538,0 0.74596,0.0726 0.74596,1.07111 0,0.58911 -0.23812,1.56398 -0.52917,2.16637 -0.29104,0.60238 -0.52916,1.19253 -0.52916,1.31143 0,0.1189 -0.30774,0.84068 -0.68386,1.60395 -0.6836,1.38724 -2.49114,5.85564 -2.49114,6.15831 0,0.41259 1.89043,-1.31261 7.01003,-6.39733 5.19658,-5.16117 5.56042,-5.46892 5.64164,-4.77199 0.0749,0.64248 -0.32536,1.15774 -2.90898,3.74492 -1.6477,1.64996 -3.77013,3.81503 -4.71651,4.81127 -3.30501,3.47909 -5.23095,4.80781 -6.19048,4.27083 -0.39462,-0.22084 -0.44452,-0.46904 -0.29489,-1.46683 0.0991,-0.66056 0.40073,-1.68992 0.67038,-2.28747 0.26965,-0.59754 1.02929,-2.27707 1.68808,-3.73228 1.30468,-2.88191 2.06597,-4.89479 1.85124,-4.89479 -0.38232,0 -4.70646,3.63039 -7.1462,5.9997 -0.49808,0.48371 -1.00976,0.87946 -1.13707,0.87946 -0.1273,0 -0.29085,0.15479 -0.36345,0.34397 -0.13851,0.36095 -3.98502,3.66971 -5.34858,4.60084 -0.92262,0.63002 -1.71461,0.88333 -2.18281,0.69815 z m 24.7657,-0.021 c -0.93219,-0.20107 -0.74066,-2.33105 0.565,-6.28339 l 0.78665,-2.38125 -0.1064,2.64584 c -0.0585,1.45521 -0.19128,3.0497 -0.29501,3.54331 -0.13457,0.64041 -0.10263,0.84435 0.11153,0.71199 0.20159,-0.12459 0.30013,0.11357 0.30013,0.72531 0,0.9342 -0.40669,1.24422 -1.3619,1.03819 z"
         id="path456" /></g></g></svg>
